SplineFontDB: 3.0
FontName: AbhayaLibreTamil-ExtraBold
FullName: AbhayaLibre ExtraBold
FamilyName: AbhayaLibre
Weight: ExtraBold
Copyright: Copyright (c) 2000, Modular Infotech, Pune, INDIA.
Version: 1.00
ItalicAngle: 0
UnderlinePosition: -282
UnderlineWidth: 20
Ascent: 700
Descent: 300
InvalidEm: 0
sfntRevision: 0x00010000
LayerCount: 2
Layer: 0 1 "Back" 1
Layer: 1 1 "Fore" 0
XUID: [1021 779 -1439063335 8111123]
FSType: 0
OS2Version: 4
OS2_WeightWidthSlopeOnly: 0
OS2_UseTypoMetrics: 1
CreationTime: 1442707200
ModificationTime: 1443334230
PfmFamily: 17
TTFWeight: 800
TTFWidth: 5
LineGap: 147
VLineGap: 0
Panose: 2 0 8 0 0 0 0 0 0 0
OS2TypoAscent: 700
OS2TypoAOffset: 0
OS2TypoDescent: -300
OS2TypoDOffset: 0
OS2TypoLinegap: 147
OS2WinAscent: 845
OS2WinAOffset: 0
OS2WinDescent: 302
OS2WinDOffset: 0
HheadAscent: 700
HheadAOffset: 0
HheadDescent: -300
HheadDOffset: 0
OS2SubXSize: 700
OS2SubYSize: 650
OS2SubXOff: 0
OS2SubYOff: 200
OS2SupXSize: 700
OS2SupYSize: 650
OS2SupXOff: 0
OS2SupYOff: 500
OS2StrikeYSize: 50
OS2StrikeYPos: 250
OS2CapHeight: 604
OS2XHeight: 409
OS2Vendor: 'MODI'
OS2CodePages: 00000003.00000000
OS2UnicodeRanges: 80108003.00000000.00000000.00000000
Lookup: 4 0 0 "'akhn' Akhand in Tamil lookup 0" { "'akhn' Akhand in Tamil lookup 0 subtable"  } ['akhn' ('taml' <'dflt' > ) ]
Lookup: 4 0 0 "'abvs' Above Base Substitutions in Tamil lookup 1" { "'abvs' Above Base Substitutions in Tamil lookup 1 subtable"  } ['abvs' ('taml' <'dflt' > ) ]
Lookup: 4 0 0 "'abvs' Above Base Substitutions in Tamil lookup 2" { "'abvs' Above Base Substitutions in Tamil lookup 2 subtable"  } ['abvs' ('taml' <'dflt' > ) ]
Lookup: 4 0 0 "'blws' Below Base Substitutions in Tamil lookup 3" { "'blws' Below Base Substitutions in Tamil lookup 3 subtable"  } ['blws' ('taml' <'dflt' > ) ]
Lookup: 4 0 0 "'haln' Halant Forms in Tamil lookup 4" { "'haln' Halant Forms in Tamil lookup 4 subtable"  } ['haln' ('taml' <'dflt' > ) ]

StartChar: .notdef
Encoding: 256 -1 0
Width: 800
GlyphClass: 2
Flags: W
LayerCount: 2
Back
Fore
SplineSet
100 0 m 1,0,-1
 100 700 l 1,1,-1
 700 700 l 1,2,-1
 700 0 l 1,3,-1
 100 0 l 1,4,-1
 100 0 l 1,0,-1
150 50 m 1,5,-1
 650 50 l 1,6,-1
 650 650 l 1,7,-1
 150 650 l 1,8,-1
 150 50 l 1,9,-1
 150 50 l 1,5,-1
EndSplineSet
EndChar

StartChar: uni0B83
Encoding: 259 2947 4
Width: 720
GlyphClass: 2
Flags: W
LayerCount: 2
Back
Fore
SplineSet
323 136 m 1,0,1
 323 72 323 72 281 34 c 0,2,3
 239 -5 239 -5 170 -5 c 256,4,5
 101 -5 101 -5 59 34 c 0,6,7
 17 72 17 72 17 136 c 0,8,9
 17 201 17 201 59 240 c 256,10,11
 101 279 101 279 170 279 c 256,12,13
 239 279 239 279 281 240 c 256,14,15
 323 201 323 201 323 136 c 1,16,-1
 323 136 l 1,0,1
193 136 m 1,17,18
 193 175 193 175 172 202 c 256,19,20
 151 229 151 229 122 229 c 256,21,22
 93 229 93 229 73 202 c 0,23,24
 52 175 52 175 52 136 c 0,25,26
 52 98 52 98 73 72 c 0,27,28
 93 45 93 45 122 45 c 256,29,30
 151 45 151 45 172 72 c 0,31,32
 193 98 193 98 193 136 c 1,33,-1
 193 136 l 1,17,18
703 136 m 1,34,35
 703 72 703 72 661 34 c 0,36,37
 619 -5 619 -5 550 -5 c 256,38,39
 481 -5 481 -5 439 34 c 0,40,41
 397 72 397 72 397 136 c 0,42,43
 397 201 397 201 439 240 c 256,44,45
 481 279 481 279 550 279 c 256,46,47
 619 279 619 279 661 240 c 256,48,49
 703 201 703 201 703 136 c 1,50,-1
 703 136 l 1,34,35
573 136 m 1,51,52
 573 175 573 175 552 202 c 256,53,54
 531 229 531 229 502 229 c 256,55,56
 473 229 473 229 453 202 c 0,57,58
 432 175 432 175 432 136 c 0,59,60
 432 98 432 98 453 72 c 0,61,62
 473 45 473 45 502 45 c 256,63,64
 531 45 531 45 552 72 c 0,65,66
 573 98 573 98 573 136 c 1,67,-1
 573 136 l 1,51,52
518 541 m 1,68,69
 518 477 518 477 476 439 c 0,70,71
 434 400 434 400 365 400 c 256,72,73
 296 400 296 400 254 439 c 0,74,75
 212 477 212 477 212 541 c 0,76,77
 212 606 212 606 254 645 c 256,78,79
 296 684 296 684 365 684 c 256,80,81
 434 684 434 684 476 645 c 256,82,83
 518 606 518 606 518 541 c 1,84,-1
 518 541 l 1,68,69
388 541 m 1,85,86
 388 580 388 580 367 607 c 256,87,88
 346 634 346 634 317 634 c 256,89,90
 288 634 288 634 268 607 c 0,91,92
 247 580 247 580 247 541 c 0,93,94
 247 503 247 503 268 477 c 0,95,96
 288 450 288 450 317 450 c 256,97,98
 346 450 346 450 367 477 c 0,99,100
 388 503 388 503 388 541 c 1,101,-1
 388 541 l 1,85,86
EndSplineSet
EndChar

StartChar: uni0B85
Encoding: 260 2949 5
Width: 951
GlyphClass: 2
Flags: W
LayerCount: 2
Back
Fore
SplineSet
8 32 m 1,0,1
 8 53 8 53 24 68 c 256,2,3
 40 83 40 83 62 83 c 2,4,-1
 572 83 l 1,5,6
 602 139 602 139 602 215 c 0,7,8
 602 282 602 282 565 330 c 0,9,10
 528 377 528 377 475 377 c 1,11,12
 503 361 503 361 519 333 c 256,13,14
 535 305 535 305 535 272 c 0,15,16
 535 221 535 221 492 184 c 0,17,18
 448 148 448 148 387 148 c 256,19,20
 326 148 326 148 282 185 c 0,21,22
 239 221 239 221 239 273 c 0,23,24
 239 336 239 336 293 374 c 256,25,26
 347 412 347 412 436 412 c 0,27,28
 559 412 559 412 645 354 c 0,29,30
 732 296 732 296 732 214 c 0,31,32
 732 126 732 126 710 83 c 1,33,-1
 776 83 l 1,34,-1
 776 400 l 1,35,-1
 906 400 l 1,36,-1
 906 -134 l 1,37,-1
 776 -134 l 1,38,-1
 776 48 l 1,39,-1
 702 48 l 1,40,41
 657 -30 657 -30 547 -75 c 256,42,43
 437 -120 437 -120 292 -120 c 0,44,45
 174 -120 174 -120 91 -75 c 0,46,47
 8 -31 8 -31 8 32 c 1,48,-1
 8 32 l 1,0,1
405 270 m 1,49,50
 405 306 405 306 385 332 c 256,51,52
 365 358 365 358 337 358 c 0,53,54
 311 358 311 358 292 332 c 0,55,56
 274 306 274 306 274 270 c 0,57,58
 274 238 274 238 292 216 c 0,59,60
 311 193 311 193 337 193 c 0,61,62
 365 193 365 193 385 216 c 0,63,64
 405 238 405 238 405 270 c 1,65,-1
 405 270 l 1,49,50
544 48 m 1,66,-1
 64 48 l 2,67,68
 55 48 55 48 49 42 c 256,69,70
 43 36 43 36 43 28 c 0,71,72
 43 -19 43 -19 109 -52 c 256,73,74
 175 -85 175 -85 269 -85 c 0,75,76
 357 -85 357 -85 430 -50 c 0,77,78
 504 -14 504 -14 544 48 c 1,79,-1
 544 48 l 1,66,-1
EndSplineSet
EndChar

StartChar: uni0B86
Encoding: 261 2950 6
Width: 1120
GlyphClass: 2
Flags: W
LayerCount: 2
Back
Fore
SplineSet
1120 -48 m 1,0,1
 1120 -161 1120 -161 1007 -230 c 0,2,3
 894 -298 894 -298 706 -298 c 0,4,5
 589 -298 589 -298 506 -267 c 256,6,7
 423 -236 423 -236 423 -193 c 0,8,9
 423 -171 423 -171 448 -156 c 0,10,11
 472 -141 472 -141 507 -141 c 2,12,-1
 638 -141 l 1,13,-1
 638 -176 l 1,14,-1
 505 -176 l 2,15,16
 486 -176 486 -176 472 -181 c 0,17,18
 458 -187 458 -187 458 -194 c 0,19,20
 458 -225 458 -225 531 -245 c 0,21,22
 600 -263 600 -263 706 -263 c 0,23,24
 835 -263 835 -263 912 -205 c 0,25,26
 990 -148 990 -148 990 -52 c 0,27,28
 990 -18 990 -18 975 6 c 256,29,30
 960 30 960 30 938 30 c 0,31,32
 925 30 925 30 915 18 c 0,33,34
 906 7 906 7 906 -10 c 2,35,-1
 906 -183 l 1,36,-1
 776 -183 l 1,37,-1
 776 48 l 1,38,-1
 702 48 l 1,39,40
 657 -30 657 -30 547 -75 c 256,41,42
 437 -120 437 -120 292 -120 c 0,43,44
 174 -120 174 -120 91 -75 c 0,45,46
 8 -31 8 -31 8 32 c 0,47,48
 8 53 8 53 24 68 c 256,49,50
 40 83 40 83 62 83 c 2,51,-1
 571 83 l 1,52,53
 602 141 602 141 602 215 c 0,54,55
 602 282 602 282 565 330 c 0,56,57
 528 377 528 377 475 377 c 1,58,59
 503 361 503 361 519 333 c 256,60,61
 535 305 535 305 535 272 c 0,62,63
 535 221 535 221 491 184 c 0,64,65
 447 148 447 148 385 148 c 0,66,67
 325 148 325 148 282 185 c 0,68,69
 240 221 240 221 240 273 c 0,70,71
 240 336 240 336 294 374 c 0,72,73
 347 412 347 412 436 412 c 0,74,75
 559 412 559 412 645 354 c 0,76,77
 732 296 732 296 732 214 c 0,78,79
 732 126 732 126 710 83 c 1,80,-1
 776 83 l 1,81,-1
 776 400 l 1,82,-1
 906 400 l 1,83,-1
 906 58 l 1,84,85
 955 85 955 85 991 85 c 0,86,87
 1050 85 1050 85 1085 49 c 0,88,89
 1120 12 1120 12 1120 -48 c 1,90,-1
 1120 -48 l 1,0,1
405 270 m 1,91,92
 405 306 405 306 385 332 c 256,93,94
 365 358 365 358 337 358 c 0,95,96
 311 358 311 358 293 332 c 256,97,98
 275 306 275 306 275 270 c 0,99,100
 275 238 275 238 293 216 c 0,101,102
 311 193 311 193 337 193 c 0,103,104
 365 193 365 193 385 216 c 0,105,106
 405 238 405 238 405 270 c 1,107,-1
 405 270 l 1,91,92
545 48 m 1,108,-1
 64 48 l 2,109,110
 55 48 55 48 49 44 c 0,111,112
 43 39 43 39 43 33 c 0,113,114
 43 -16 43 -16 109 -50 c 0,115,116
 176 -85 176 -85 270 -85 c 0,117,118
 358 -85 358 -85 431 -50 c 0,119,120
 505 -14 505 -14 545 48 c 1,121,-1
 545 48 l 1,108,-1
EndSplineSet
EndChar

StartChar: uni0B87
Encoding: 262 2951 7
Width: 914
GlyphClass: 2
Flags: W
LayerCount: 2
Back
Fore
SplineSet
875 -273 m 1,0,-1
 840 -273 l 1,1,-1
 840 189 l 2,2,3
 840 366 840 366 737 472 c 0,4,5
 635 579 635 579 464 579 c 0,6,7
 300 579 300 579 201 485 c 0,8,9
 102 392 102 392 102 236 c 0,10,11
 102 110 102 110 178 5 c 1,12,13
 272 53 272 53 429 53 c 0,14,15
 491 53 491 53 552 39 c 1,16,17
 581 77 581 77 596 129 c 256,18,19
 611 181 611 181 611 241 c 0,20,21
 611 296 611 296 579 334 c 0,22,23
 547 373 547 373 502 373 c 1,24,25
 530 358 530 358 546 328 c 0,26,27
 562 297 562 297 562 261 c 0,28,29
 562 197 562 197 521 159 c 256,30,31
 480 121 480 121 412 121 c 256,32,33
 344 121 344 121 304 161 c 0,34,35
 263 200 263 200 263 266 c 0,36,37
 263 342 263 342 318 387 c 0,38,39
 374 433 374 433 466 433 c 0,40,41
 589 433 589 433 662 378 c 0,42,43
 736 324 736 324 736 233 c 0,44,45
 736 99 736 99 668 2 c 1,46,47
 728 -22 728 -22 764 -61 c 0,48,49
 800 -99 800 -99 800 -139 c 0,50,51
 800 -199 800 -199 732 -242 c 256,52,53
 664 -285 664 -285 568 -285 c 0,54,55
 447 -285 447 -285 357 -237 c 1,56,57
 270 -285 270 -285 153 -285 c 0,58,59
 90 -285 90 -285 45 -256 c 256,60,61
 0 -227 0 -227 0 -186 c 0,62,63
 0 -138 0 -138 37 -91 c 0,64,65
 73 -45 73 -45 135 -15 c 1,66,67
 92 38 92 38 69 109 c 0,68,69
 46 179 46 179 46 259 c 0,70,71
 46 446 46 446 161 558 c 0,72,73
 275 671 275 671 466 671 c 0,74,75
 652 671 652 671 763 539 c 0,76,77
 875 407 875 407 875 188 c 2,78,-1
 875 -273 l 1,79,-1
 875 -273 l 1,0,-1
432 262 m 1,80,81
 432 298 432 298 411 324 c 0,82,83
 391 349 391 349 362 349 c 0,84,85
 335 349 335 349 317 324 c 0,86,87
 298 299 298 299 298 264 c 0,88,89
 298 228 298 228 317 202 c 0,90,91
 335 176 335 176 362 176 c 0,92,93
 391 176 391 176 411 201 c 0,94,95
 432 226 432 226 432 262 c 1,96,-1
 432 262 l 1,80,81
520 -9 m 1,97,98
 468 7 468 7 414 7 c 0,99,100
 279 7 279 7 202 -32 c 1,101,102
 276 -126 276 -126 352 -174 c 1,103,104
 448 -112 448 -112 520 -9 c 1,105,-1
 520 -9 l 1,97,98
670 -137 m 1,106,107
 670 -110 670 -110 655 -89 c 0,108,109
 640 -67 640 -67 616 -61 c 1,110,111
 527 -150 527 -150 411 -204 c 1,112,113
 460 -229 460 -229 537 -229 c 0,114,115
 592 -229 592 -229 631 -202 c 256,116,117
 670 -175 670 -175 670 -137 c 1,118,-1
 670 -137 l 1,106,107
303 -198 m 1,119,120
 207 -128 207 -128 153 -54 c 1,121,122
 100 -80 100 -80 68 -115 c 0,123,124
 37 -151 37 -151 37 -185 c 0,125,126
 37 -212 37 -212 69 -231 c 256,127,128
 101 -250 101 -250 147 -250 c 0,129,130
 226 -250 226 -250 303 -198 c 1,131,-1
 303 -198 l 1,119,120
EndSplineSet
EndChar

StartChar: uni0B88
Encoding: 263 2952 8
Width: 671
GlyphClass: 2
Flags: W
LayerCount: 2
Back
Fore
SplineSet
659 370 m 1,0,-1
 452 370 l 1,1,-1
 452 0 l 1,2,-1
 322 0 l 1,3,-1
 322 370 l 1,4,-1
 80 370 l 1,5,-1
 80 0 l 1,6,-1
 45 0 l 1,7,-1
 45 400 l 1,8,-1
 659 400 l 1,9,-1
 659 370 l 1,10,-1
 659 370 l 1,0,-1
278 199 m 1,11,12
 278 170 278 170 257 149 c 256,13,14
 236 128 236 128 207 128 c 256,15,16
 178 128 178 128 158 149 c 256,17,18
 138 170 138 170 138 199 c 256,19,20
 138 228 138 228 158 248 c 0,21,22
 178 269 178 269 207 269 c 256,23,24
 236 269 236 269 257 248 c 0,25,26
 278 228 278 228 278 199 c 1,27,-1
 278 199 l 1,11,12
652 199 m 1,28,29
 652 170 652 170 631 149 c 0,30,31
 609 128 609 128 579 128 c 0,32,33
 551 128 551 128 532 149 c 0,34,35
 512 170 512 170 512 199 c 256,36,37
 512 228 512 228 532 248 c 0,38,39
 551 269 551 269 579 269 c 0,40,41
 609 269 609 269 631 248 c 0,42,43
 652 228 652 228 652 199 c 1,44,-1
 652 199 l 1,28,29
EndSplineSet
EndChar

StartChar: uni0B89
Encoding: 264 2953 9
Width: 743
GlyphClass: 2
Flags: W
LayerCount: 2
Back
Fore
SplineSet
740 0 m 1,0,-1
 125 0 l 2,1,2
 81 0 81 0 49 19 c 0,3,4
 18 37 18 37 18 64 c 256,5,6
 18 91 18 91 45 111 c 0,7,8
 72 130 72 130 111 130 c 2,9,-1
 270 130 l 2,10,11
 310 130 310 130 339 166 c 0,12,13
 367 202 367 202 367 253 c 0,14,15
 367 302 367 302 338 337 c 0,16,17
 308 372 308 372 267 372 c 2,18,-1
 222 372 l 1,19,20
 257 363 257 363 279 338 c 0,21,22
 301 314 301 314 301 285 c 0,23,24
 301 233 301 233 264 202 c 256,25,26
 227 171 227 171 165 171 c 0,27,28
 109 171 109 171 69 204 c 0,29,30
 29 238 29 238 29 285 c 0,31,32
 29 345 29 345 82 376 c 256,33,34
 135 407 135 407 238 407 c 0,35,36
 356 407 356 407 426 365 c 0,37,38
 497 322 497 322 497 252 c 0,39,40
 497 181 497 181 437 138 c 0,41,42
 378 95 378 95 279 95 c 2,43,-1
 189 95 l 2,44,45
 172 95 172 95 160 86 c 0,46,47
 148 76 148 76 148 63 c 0,48,49
 148 49 148 49 161 40 c 0,50,51
 174 30 174 30 192 30 c 2,52,-1
 740 30 l 1,53,-1
 740 0 l 1,54,-1
 740 0 l 1,0,-1
171 286 m 1,55,56
 171 315 171 315 155 335 c 0,57,58
 138 356 138 356 115 356 c 0,59,60
 94 356 94 356 79 335 c 0,61,62
 64 315 64 315 64 286 c 256,63,64
 64 257 64 257 79 237 c 0,65,66
 94 216 94 216 115 216 c 0,67,68
 138 216 138 216 155 237 c 0,69,70
 171 257 171 257 171 286 c 1,71,-1
 171 286 l 1,55,56
EndSplineSet
EndChar

StartChar: uni0B8A
Encoding: 265 2954 10
Width: 1363
GlyphClass: 2
Flags: W
LayerCount: 2
Back
Fore
SplineSet
1279 370 m 1,0,-1
 1260 370 l 1,1,-1
 1260 95 l 1,2,-1
 1130 95 l 1,3,-1
 1130 370 l 1,4,-1
 1057 370 l 1,5,-1
 1057 95 l 1,6,-1
 927 95 l 1,7,-1
 927 285 l 1,8,9
 894 325 894 325 849 348 c 0,10,11
 804 370 804 370 755 370 c 0,12,13
 685 370 685 370 635 327 c 0,14,15
 586 284 586 284 586 224 c 0,16,17
 586 196 586 196 599 170 c 0,18,19
 613 144 613 144 637 125 c 1,20,21
 625 141 625 141 618 157 c 0,22,23
 612 174 612 174 612 190 c 0,24,25
 612 244 612 244 649 276 c 256,26,27
 686 308 686 308 748 308 c 256,28,29
 810 308 810 308 847 276 c 256,30,31
 884 244 884 244 884 191 c 0,32,33
 884 137 884 137 846 105 c 0,34,35
 809 73 809 73 746 73 c 0,36,37
 665 73 665 73 608 118 c 0,38,39
 551 164 551 164 551 228 c 0,40,41
 551 299 551 299 610 350 c 0,42,43
 670 400 670 400 754 400 c 0,44,45
 824 400 824 400 877 383 c 0,46,47
 931 365 931 365 958 334 c 1,48,-1
 958 400 l 1,49,-1
 1279 400 l 1,50,-1
 1279 370 l 1,51,-1
 1279 370 l 1,0,-1
754 189 m 1,52,53
 754 220 754 220 738 241 c 0,54,55
 721 263 721 263 698 263 c 0,56,57
 677 263 677 263 662 241 c 256,58,59
 647 219 647 219 647 188 c 0,60,61
 647 159 647 159 662 139 c 0,62,63
 677 118 677 118 698 118 c 0,64,65
 721 118 721 118 738 139 c 0,66,67
 754 160 754 160 754 189 c 1,68,-1
 754 189 l 1,52,53
1360 0 m 1,69,-1
 110 0 l 2,70,71
 72 0 72 0 45 19 c 0,72,73
 18 37 18 37 18 64 c 256,74,75
 18 91 18 91 45 111 c 0,76,77
 72 130 72 130 111 130 c 2,78,-1
 270 130 l 2,79,80
 310 130 310 130 339 166 c 0,81,82
 367 202 367 202 367 253 c 0,83,84
 367 302 367 302 338 337 c 0,85,86
 308 372 308 372 267 372 c 2,87,-1
 222 372 l 1,88,89
 257 363 257 363 279 338 c 0,90,91
 301 314 301 314 301 285 c 0,92,93
 301 233 301 233 264 202 c 256,94,95
 227 171 227 171 165 171 c 0,96,97
 109 171 109 171 69 204 c 0,98,99
 29 238 29 238 29 285 c 0,100,101
 29 345 29 345 82 376 c 256,102,103
 135 407 135 407 238 407 c 0,104,105
 356 407 356 407 426 365 c 0,106,107
 497 322 497 322 497 252 c 0,108,109
 497 181 497 181 437 138 c 0,110,111
 378 95 378 95 279 95 c 2,112,-1
 189 95 l 2,113,114
 172 95 172 95 160 86 c 0,115,116
 148 76 148 76 148 63 c 0,117,118
 148 49 148 49 161 40 c 0,119,120
 174 30 174 30 192 30 c 2,121,-1
 1360 30 l 1,122,-1
 1360 0 l 1,123,-1
 1360 0 l 1,69,-1
171 286 m 1,124,125
 171 315 171 315 155 335 c 0,126,127
 138 356 138 356 115 356 c 0,128,129
 94 356 94 356 79 335 c 0,130,131
 64 315 64 315 64 286 c 256,132,133
 64 257 64 257 79 237 c 0,134,135
 94 216 94 216 115 216 c 0,136,137
 138 216 138 216 155 237 c 0,138,139
 171 257 171 257 171 286 c 1,140,-1
 171 286 l 1,124,125
EndSplineSet
EndChar

StartChar: uni0B8E
Encoding: 266 2958 11
Width: 726
GlyphClass: 2
Flags: W
LayerCount: 2
Back
Fore
SplineSet
507 0 m 1,0,-1
 507 370 l 1,1,-1
 247 370 l 2,2,3
 167 370 167 370 111 314 c 0,4,5
 54 259 54 259 54 180 c 0,6,7
 54 138 54 138 70 105 c 256,8,9
 86 72 86 72 113 59 c 1,10,11
 102 73 102 73 96 89 c 256,12,13
 90 105 90 105 90 120 c 0,14,15
 90 178 90 178 135 219 c 0,16,17
 179 260 179 260 242 260 c 256,18,19
 305 260 305 260 349 222 c 0,20,21
 394 184 394 184 394 130 c 0,22,23
 394 72 394 72 348 31 c 0,24,25
 301 -10 301 -10 236 -10 c 0,26,27
 146 -10 146 -10 83 47 c 0,28,29
 19 103 19 103 19 183 c 0,30,31
 19 273 19 273 86 336 c 0,32,33
 153 400 153 400 247 400 c 2,34,-1
 723 400 l 1,35,-1
 723 370 l 1,36,-1
 637 370 l 1,37,-1
 637 0 l 1,38,-1
 507 0 l 1,39,-1
 507 0 l 1,0,-1
264 119 m 1,40,41
 264 153 264 153 243 176 c 0,42,43
 222 200 222 200 192 200 c 0,44,45
 164 200 164 200 145 176 c 0,46,47
 125 151 125 151 125 117 c 0,48,49
 125 84 125 84 145 60 c 0,50,51
 164 37 164 37 192 37 c 0,52,53
 222 37 222 37 243 61 c 256,54,55
 264 85 264 85 264 119 c 1,56,-1
 264 119 l 1,40,41
EndSplineSet
EndChar

StartChar: uni0B8F
Encoding: 267 2959 12
Width: 726
GlyphClass: 2
Flags: W
LayerCount: 2
Back
Fore
SplineSet
262 -117 m 1,0,-1
 509 -1 l 1,1,-1
 509 370 l 1,2,-1
 247 370 l 2,3,4
 167 370 167 370 111 314 c 0,5,6
 54 259 54 259 54 180 c 0,7,8
 54 138 54 138 70 105 c 256,9,10
 86 72 86 72 114 59 c 1,11,12
 102 74 102 74 96 90 c 0,13,14
 90 105 90 105 90 120 c 0,15,16
 90 178 90 178 134 219 c 256,17,18
 178 260 178 260 241 260 c 256,19,20
 304 260 304 260 349 221 c 0,21,22
 394 183 394 183 394 128 c 0,23,24
 394 71 394 71 348 30 c 0,25,26
 301 -10 301 -10 236 -10 c 0,27,28
 146 -10 146 -10 83 47 c 0,29,30
 19 103 19 103 19 183 c 0,31,32
 19 273 19 273 86 336 c 0,33,34
 153 400 153 400 247 400 c 2,35,-1
 723 400 l 1,36,-1
 723 370 l 1,37,-1
 639 370 l 1,38,-1
 639 0 l 1,39,-1
 277 -141 l 1,40,-1
 262 -117 l 1,41,-1
 262 -117 l 1,0,-1
264 119 m 1,42,43
 264 153 264 153 243 176 c 0,44,45
 222 200 222 200 192 200 c 0,46,47
 164 200 164 200 145 176 c 0,48,49
 125 151 125 151 125 117 c 0,50,51
 125 84 125 84 145 60 c 0,52,53
 164 37 164 37 192 37 c 0,54,55
 222 37 222 37 243 61 c 256,56,57
 264 85 264 85 264 119 c 1,58,-1
 264 119 l 1,42,43
EndSplineSet
EndChar

StartChar: uni0B90
Encoding: 268 2960 13
Width: 759
GlyphClass: 2
Flags: W
LayerCount: 2
Back
Fore
SplineSet
17 258 m 1,0,1
 17 322 17 322 73 368 c 0,2,3
 129 413 129 413 209 413 c 0,4,5
 273 413 273 413 326 388 c 0,6,7
 379 364 379 364 407 320 c 1,8,9
 423 362 423 362 459 388 c 0,10,11
 495 413 495 413 538 413 c 0,12,13
 630 413 630 413 685 362 c 0,14,15
 740 312 740 312 740 228 c 0,16,17
 740 147 740 147 675 99 c 0,18,19
 611 50 611 50 503 50 c 2,20,-1
 257 50 l 2,21,22
 211 50 211 50 179 18 c 256,23,24
 147 -14 147 -14 147 -59 c 0,25,26
 147 -103 147 -103 175 -135 c 0,27,28
 203 -166 203 -166 243 -166 c 0,29,30
 285 -166 285 -166 315 -135 c 256,31,32
 345 -104 345 -104 345 -61 c 2,33,-1
 345 2 l 1,34,-1
 475 2 l 1,35,-1
 475 -71 l 2,36,37
 475 -114 475 -114 502 -145 c 256,38,39
 529 -176 529 -176 567 -176 c 0,40,41
 601 -176 601 -176 625 -144 c 256,42,43
 649 -112 649 -112 649 -67 c 2,44,-1
 649 2 l 1,45,-1
 684 2 l 1,46,-1
 684 -67 l 2,47,48
 684 -137 684 -137 641 -179 c 256,49,50
 598 -221 598 -221 527 -221 c 0,51,52
 475 -221 475 -221 432 -198 c 0,53,54
 390 -174 390 -174 371 -135 c 1,55,56
 343 -175 343 -175 297 -198 c 0,57,58
 252 -221 252 -221 199 -221 c 0,59,60
 115 -221 115 -221 65 -177 c 0,61,62
 14 -133 14 -133 14 -59 c 0,63,64
 14 6 14 6 65 46 c 0,65,66
 117 85 117 85 202 85 c 2,67,-1
 504 85 l 2,68,69
 548 85 548 85 579 128 c 256,70,71
 610 171 610 171 610 231 c 0,72,73
 610 292 610 292 586 335 c 0,74,75
 561 378 561 378 527 378 c 0,76,77
 505 378 505 378 490 346 c 0,78,79
 475 315 475 315 475 270 c 2,80,-1
 475 138 l 1,81,-1
 345 138 l 1,82,-1
 345 259 l 2,83,84
 345 308 345 308 303 343 c 256,85,86
 261 378 261 378 201 378 c 0,87,88
 139 378 139 378 96 343 c 0,89,90
 52 307 52 307 52 257 c 0,91,92
 52 225 52 225 68 199 c 0,93,94
 84 174 84 174 111 164 c 1,95,96
 97 178 97 178 90 195 c 0,97,98
 82 212 82 212 82 229 c 0,99,100
 82 271 82 271 113 300 c 0,101,102
 145 330 145 330 189 330 c 0,103,104
 238 330 238 330 267 303 c 0,105,106
 296 275 296 275 296 230 c 0,107,108
 296 183 296 183 260 155 c 0,109,110
 223 127 223 127 163 127 c 256,111,112
 103 127 103 127 60 165 c 0,113,114
 17 204 17 204 17 258 c 1,115,-1
 17 258 l 1,0,1
210 225 m 1,116,117
 210 254 210 254 196 274 c 0,118,119
 181 295 181 295 161 295 c 0,120,121
 143 295 143 295 130 276 c 0,122,123
 117 256 117 256 117 229 c 0,124,125
 117 201 117 201 130 182 c 0,126,127
 143 162 143 162 161 162 c 0,128,129
 181 162 181 162 196 180 c 0,130,131
 210 199 210 199 210 225 c 1,132,-1
 210 225 l 1,116,117
EndSplineSet
EndChar

StartChar: uni0B92
Encoding: 269 2962 14
Width: 767
GlyphClass: 2
Flags: W
LayerCount: 2
Back
Fore
SplineSet
20 156 m 1,0,1
 20 276 20 276 110 348 c 256,2,3
 200 420 200 420 350 420 c 0,4,5
 531 420 531 420 639 347 c 0,6,7
 748 275 748 275 748 154 c 0,8,9
 748 83 748 83 702 41 c 0,10,11
 657 -2 657 -2 581 -2 c 0,12,13
 525 -2 525 -2 486 30 c 0,14,15
 446 62 446 62 446 108 c 1,16,-1
 451 131 l 1,17,18
 429 116 429 116 416 91 c 0,19,20
 404 67 404 67 404 40 c 0,21,22
 404 -5 404 -5 442 -37 c 0,23,24
 481 -69 481 -69 535 -69 c 2,25,-1
 644 -69 l 1,26,-1
 644 -104 l 1,27,-1
 489 -104 l 2,28,29
 469 -104 469 -104 454 -125 c 0,30,31
 440 -146 440 -146 440 -176 c 0,32,33
 440 -224 440 -224 378 -253 c 0,34,35
 315 -282 315 -282 212 -282 c 0,36,37
 141 -282 141 -282 98 -251 c 256,38,39
 55 -220 55 -220 55 -168 c 0,40,41
 55 -148 55 -148 69 -128 c 0,42,43
 83 -107 83 -107 108 -92 c 1,44,-1
 125 -110 l 1,45,46
 108 -123 108 -123 99 -138 c 0,47,48
 90 -154 90 -154 90 -169 c 0,49,50
 90 -204 90 -204 118 -226 c 0,51,52
 147 -247 147 -247 194 -247 c 0,53,54
 247 -247 247 -247 278 -227 c 0,55,56
 310 -207 310 -207 310 -174 c 0,57,58
 310 -135 310 -135 349 -108 c 0,59,60
 387 -80 387 -80 442 -80 c 1,61,62
 409 -69 409 -69 389 -35 c 256,63,64
 369 -1 369 -1 369 43 c 0,65,66
 369 97 369 97 407 135 c 256,67,68
 445 173 445 173 498 173 c 1,69,70
 490 164 490 164 485 147 c 0,71,72
 481 130 481 130 481 109 c 0,73,74
 481 80 481 80 500 60 c 0,75,76
 520 40 520 40 547 40 c 0,77,78
 579 40 579 40 599 71 c 0,79,80
 618 102 618 102 618 153 c 0,81,82
 618 249 618 249 538 317 c 0,83,84
 457 385 457 385 344 385 c 0,85,86
 224 385 224 385 140 318 c 0,87,88
 55 251 55 251 55 156 c 0,89,90
 55 111 55 111 75 76 c 0,91,92
 94 40 94 40 127 28 c 1,93,94
 109 44 109 44 100 64 c 0,95,96
 90 84 90 84 90 105 c 0,97,98
 90 154 90 154 127 188 c 0,99,100
 163 223 163 223 215 223 c 0,101,102
 272 223 272 223 306 189 c 0,103,104
 340 156 340 156 340 100 c 0,105,106
 340 50 340 50 304 20 c 256,107,108
 268 -10 268 -10 208 -10 c 0,109,110
 123 -10 123 -10 71 35 c 0,111,112
 20 81 20 81 20 156 c 1,113,-1
 20 156 l 1,0,1
243 104 m 1,114,115
 243 133 243 133 226 153 c 256,116,117
 209 173 209 173 185 173 c 0,118,119
 160 173 160 173 143 153 c 0,120,121
 125 134 125 134 125 106 c 0,122,123
 125 79 125 79 143 59 c 0,124,125
 160 40 160 40 185 40 c 0,126,127
 209 40 209 40 226 59 c 0,128,129
 243 77 243 77 243 104 c 1,130,-1
 243 104 l 1,114,115
EndSplineSet
EndChar

StartChar: uni0B93
Encoding: 270 2963 15
Width: 767
GlyphClass: 2
Flags: W
LayerCount: 2
Back
Fore
SplineSet
20 156 m 1,0,1
 20 276 20 276 110 348 c 256,2,3
 200 420 200 420 350 420 c 0,4,5
 531 420 531 420 639 347 c 0,6,7
 748 275 748 275 748 154 c 0,8,9
 748 83 748 83 702 41 c 0,10,11
 657 -2 657 -2 581 -2 c 0,12,13
 525 -2 525 -2 486 30 c 0,14,15
 446 62 446 62 446 108 c 1,16,-1
 451 131 l 1,17,18
 429 116 429 116 416 91 c 0,19,20
 404 67 404 67 404 40 c 0,21,22
 404 -5 404 -5 442 -37 c 0,23,24
 481 -69 481 -69 535 -69 c 2,25,-1
 644 -69 l 1,26,-1
 644 -104 l 1,27,-1
 534 -104 l 2,28,29
 498 -104 498 -104 472 -125 c 256,30,31
 446 -146 446 -146 446 -176 c 0,32,33
 446 -233 446 -233 382 -268 c 0,34,35
 319 -302 319 -302 213 -302 c 0,36,37
 141 -302 141 -302 91 -264 c 0,38,39
 40 -226 40 -226 40 -173 c 256,40,41
 40 -120 40 -120 84 -82 c 256,42,43
 128 -44 128 -44 191 -44 c 0,44,45
 235 -44 235 -44 266 -71 c 256,46,47
 297 -98 297 -98 297 -137 c 256,48,49
 297 -176 297 -176 272 -203 c 256,50,51
 247 -230 247 -230 211 -230 c 0,52,53
 173 -230 173 -230 147 -209 c 0,54,55
 120 -188 120 -188 120 -158 c 0,56,57
 120 -146 120 -146 125 -135 c 0,58,59
 129 -123 129 -123 138 -115 c 1,60,61
 114 -115 114 -115 97 -132 c 0,62,63
 80 -150 80 -150 80 -174 c 0,64,65
 80 -216 80 -216 117 -242 c 0,66,67
 153 -267 153 -267 214 -267 c 0,68,69
 258 -267 258 -267 284 -242 c 0,70,71
 310 -216 310 -216 310 -174 c 0,72,73
 310 -135 310 -135 349 -108 c 0,74,75
 387 -80 387 -80 442 -80 c 1,76,77
 409 -69 409 -69 389 -36 c 0,78,79
 369 -4 369 -4 369 38 c 0,80,81
 369 94 369 94 407 133 c 0,82,83
 445 173 445 173 498 173 c 1,84,85
 490 164 490 164 485 147 c 0,86,87
 481 130 481 130 481 109 c 0,88,89
 481 80 481 80 500 59 c 0,90,91
 520 38 520 38 547 38 c 0,92,93
 576 38 576 38 597 72 c 0,94,95
 618 105 618 105 618 153 c 0,96,97
 618 258 618 258 543 322 c 0,98,99
 468 385 468 385 344 385 c 0,100,101
 213 385 213 385 134 322 c 0,102,103
 55 260 55 260 55 156 c 0,104,105
 55 111 55 111 75 76 c 0,106,107
 94 40 94 40 127 28 c 1,108,109
 109 44 109 44 100 64 c 0,110,111
 90 84 90 84 90 105 c 0,112,113
 90 154 90 154 126 188 c 0,114,115
 163 223 163 223 214 223 c 0,116,117
 271 223 271 223 306 189 c 0,118,119
 340 156 340 156 340 100 c 0,120,121
 340 50 340 50 304 20 c 256,122,123
 268 -10 268 -10 208 -10 c 0,124,125
 123 -10 123 -10 71 35 c 0,126,127
 20 81 20 81 20 156 c 1,128,-1
 20 156 l 1,0,1
243 106 m 1,129,130
 243 134 243 134 226 153 c 0,131,132
 209 173 209 173 185 173 c 0,133,134
 160 173 160 173 143 153 c 0,135,136
 125 134 125 134 125 106 c 0,137,138
 125 79 125 79 143 59 c 0,139,140
 160 40 160 40 185 40 c 0,141,142
 209 40 209 40 226 59 c 0,143,144
 243 79 243 79 243 106 c 1,145,-1
 243 106 l 1,129,130
251 -159 m 1,146,147
 251 -142 251 -142 238 -129 c 0,148,149
 225 -117 225 -117 207 -117 c 0,150,151
 188 -117 188 -117 175 -129 c 0,152,153
 162 -142 162 -142 162 -159 c 256,154,155
 162 -176 162 -176 175 -188 c 256,156,157
 188 -200 188 -200 207 -200 c 0,158,159
 225 -200 225 -200 238 -188 c 256,160,161
 251 -176 251 -176 251 -159 c 1,162,-1
 251 -159 l 1,146,147
EndSplineSet
EndChar

StartChar: uni0B95
Encoding: 272 2965 17
Width: 619
GlyphClass: 2
Flags: W
LayerCount: 2
Back
Fore
SplineSet
138 400 m 1,0,-1
 522 400 l 1,1,-1
 522 370 l 1,2,-1
 399 370 l 1,3,-1
 399 220 l 1,4,-1
 480 220 l 2,5,6
 537 220 537 220 571 191 c 256,7,8
 605 162 605 162 605 114 c 0,9,10
 605 53 605 53 557 26 c 0,11,12
 509 0 509 0 399 0 c 1,13,-1
 399 30 l 1,14,15
 441 30 441 30 458 48 c 0,16,17
 475 67 475 67 475 113 c 0,18,19
 475 149 475 149 461 167 c 256,20,21
 447 185 447 185 420 185 c 2,22,-1
 399 185 l 1,23,-1
 399 131 l 2,24,25
 399 65 399 65 340 32 c 0,26,27
 282 -2 282 -2 167 -2 c 0,28,29
 103 -2 103 -2 58 38 c 256,30,31
 13 78 13 78 13 134 c 0,32,33
 13 173 13 173 40 197 c 0,34,35
 68 220 68 220 113 220 c 2,36,-1
 138 220 l 1,37,-1
 138 400 l 1,38,-1
 138 400 l 1,0,-1
283 220 m 1,39,-1
 283 370 l 1,40,-1
 173 370 l 1,41,-1
 173 220 l 1,42,-1
 283 220 l 1,43,-1
 283 220 l 1,39,-1
283 138 m 1,44,-1
 283 185 l 1,45,-1
 115 185 l 2,46,47
 85 185 85 185 66 171 c 0,48,49
 48 158 48 158 48 135 c 0,50,51
 48 89 48 89 81 61 c 256,52,53
 114 33 114 33 168 33 c 0,54,55
 216 33 216 33 249 64 c 0,56,57
 283 95 283 95 283 138 c 1,58,-1
 283 138 l 1,44,-1
EndSplineSet
EndChar

StartChar: uni0B99
Encoding: 273 2969 18
Width: 790
GlyphClass: 2
Flags: W
LayerCount: 2
Back
Fore
SplineSet
745 0 m 1,0,-1
 218 0 l 1,1,-1
 218 30 l 1,2,-1
 384 30 l 1,3,4
 412 45 412 45 428 77 c 0,5,6
 444 108 444 108 444 147 c 256,7,8
 444 186 444 186 426 213 c 256,9,10
 408 240 408 240 383 240 c 0,11,12
 369 240 369 240 358 227 c 0,13,14
 348 215 348 215 348 197 c 2,15,-1
 348 110 l 1,16,-1
 218 110 l 1,17,-1
 218 370 l 1,18,-1
 80 370 l 1,19,-1
 80 0 l 1,20,-1
 45 0 l 1,21,-1
 45 400 l 1,22,-1
 509 400 l 1,23,-1
 509 370 l 1,24,-1
 348 370 l 1,25,-1
 348 257 l 1,26,27
 390 285 390 285 442 285 c 0,28,29
 502 285 502 285 538 247 c 0,30,31
 574 210 574 210 574 147 c 0,32,33
 574 109 574 109 551 77 c 256,34,35
 528 45 528 45 490 30 c 1,36,-1
 615 30 l 1,37,-1
 615 400 l 1,38,-1
 745 400 l 1,39,-1
 745 0 l 1,40,-1
 745 0 l 1,0,-1
EndSplineSet
EndChar

StartChar: uni0B9A
Encoding: 274 2970 19
Width: 532
GlyphClass: 2
Flags: W
LayerCount: 2
Back
Fore
SplineSet
524 185 m 1,0,-1
 414 185 l 1,1,-1
 414 137 l 2,2,3
 414 74 414 74 354 36 c 0,4,5
 293 -2 293 -2 193 -2 c 0,6,7
 112 -2 112 -2 63 36 c 256,8,9
 14 74 14 74 14 137 c 0,10,11
 14 175 14 175 41 197 c 0,12,13
 69 220 69 220 114 220 c 2,14,-1
 128 220 l 1,15,-1
 128 400 l 1,16,-1
 524 400 l 1,17,-1
 524 370 l 1,18,-1
 414 370 l 1,19,-1
 414 220 l 1,20,-1
 524 220 l 1,21,-1
 524 185 l 1,22,-1
 524 185 l 1,0,-1
284 220 m 1,23,-1
 284 370 l 1,24,-1
 163 370 l 1,25,-1
 163 220 l 1,26,-1
 284 220 l 1,27,-1
 284 220 l 1,23,-1
284 137 m 1,28,-1
 284 185 l 1,29,-1
 116 185 l 2,30,31
 86 185 86 185 67 172 c 0,32,33
 49 159 49 159 49 137 c 0,34,35
 49 90 49 90 89 61 c 0,36,37
 128 33 128 33 194 33 c 0,38,39
 235 33 235 33 259 61 c 0,40,41
 284 90 284 90 284 137 c 1,42,-1
 284 137 l 1,28,-1
EndSplineSet
EndChar

StartChar: uni0B9C
Encoding: 275 2972 20
Width: 771
GlyphClass: 2
Flags: W
LayerCount: 2
Back
Fore
SplineSet
751 233 m 1,0,1
 751 142 751 142 686 96 c 256,2,3
 621 50 621 50 493 50 c 2,4,-1
 237 50 l 2,5,6
 187 50 187 50 152 17 c 0,7,8
 117 -17 117 -17 117 -64 c 0,9,10
 117 -113 117 -113 143 -148 c 0,11,12
 170 -183 170 -183 207 -183 c 0,13,14
 237 -183 237 -183 277 -158 c 0,15,16
 317 -134 317 -134 361 -88 c 0,17,18
 406 -42 406 -42 458 -16 c 0,19,20
 510 9 510 9 560 9 c 0,21,22
 647 9 647 9 699 -25 c 0,23,24
 751 -58 751 -58 751 -114 c 0,25,26
 751 -166 751 -166 698 -197 c 0,27,28
 646 -228 646 -228 558 -228 c 0,29,30
 519 -228 519 -228 486 -216 c 256,31,32
 453 -204 453 -204 431 -181 c 1,33,-1
 446 -157 l 1,34,35
 467 -174 467 -174 496 -184 c 0,36,37
 525 -193 525 -193 558 -193 c 0,38,39
 584 -193 584 -193 603 -170 c 0,40,41
 621 -146 621 -146 621 -113 c 0,42,43
 621 -77 621 -77 600 -51 c 0,44,45
 579 -26 579 -26 549 -26 c 0,46,47
 479 -26 479 -26 376 -122 c 256,48,49
 273 -218 273 -218 203 -218 c 0,50,51
 115 -218 115 -218 61 -176 c 0,52,53
 8 -134 8 -134 8 -64 c 0,54,55
 8 -2 8 -2 68 41 c 0,56,57
 128 85 128 85 212 85 c 2,58,-1
 494 85 l 2,59,60
 547 85 547 85 584 128 c 256,61,62
 621 171 621 171 621 231 c 0,63,64
 621 290 621 290 600 331 c 0,65,66
 578 373 578 373 548 373 c 0,67,68
 519 373 519 373 498 343 c 256,69,70
 477 313 477 313 477 271 c 2,71,-1
 477 138 l 1,72,-1
 347 138 l 1,73,-1
 347 259 l 2,74,75
 347 306 347 306 301 340 c 0,76,77
 255 373 255 373 190 373 c 0,78,79
 133 373 133 373 92 339 c 0,80,81
 52 305 52 305 52 257 c 0,82,83
 52 216 52 216 72 186 c 0,84,85
 92 157 92 157 121 154 c 1,86,87
 104 160 104 160 93 180 c 0,88,89
 82 201 82 201 82 229 c 0,90,91
 82 275 82 275 111 302 c 0,92,93
 140 330 140 330 189 330 c 256,94,95
 238 330 238 330 267 301 c 0,96,97
 296 273 296 273 296 225 c 0,98,99
 296 181 296 181 261 154 c 256,100,101
 226 127 226 127 168 127 c 0,102,103
 99 127 99 127 58 163 c 256,104,105
 17 199 17 199 17 258 c 0,106,107
 17 320 17 320 73 364 c 256,108,109
 129 408 129 408 209 408 c 0,110,111
 275 408 275 408 328 385 c 0,112,113
 380 361 380 361 407 320 c 1,114,115
 422 360 422 360 464 384 c 256,116,117
 506 408 506 408 560 408 c 0,118,119
 655 408 655 408 703 364 c 256,120,121
 751 320 751 320 751 233 c 1,122,-1
 751 233 l 1,0,1
210 225 m 1,123,124
 210 254 210 254 196 274 c 0,125,126
 181 295 181 295 161 295 c 0,127,128
 143 295 143 295 130 276 c 0,129,130
 117 256 117 256 117 229 c 0,131,132
 117 201 117 201 130 182 c 0,133,134
 143 162 143 162 161 162 c 0,135,136
 181 162 181 162 196 180 c 0,137,138
 210 199 210 199 210 225 c 1,139,-1
 210 225 l 1,123,124
EndSplineSet
EndChar

StartChar: uni0B9E
Encoding: 276 2974 21
Width: 1016
GlyphClass: 2
Flags: W
LayerCount: 2
Back
Fore
SplineSet
998 88 m 1,0,1
 998 -77 998 -77 856 -168 c 0,2,3
 713 -259 713 -259 456 -259 c 0,4,5
 269 -259 269 -259 146 -150 c 0,6,7
 24 -41 24 -41 24 126 c 0,8,9
 24 195 24 195 56 265 c 0,10,11
 89 335 89 335 149 395 c 1,12,-1
 169 373 l 1,13,14
 116 318 116 318 88 254 c 0,15,16
 59 190 59 190 59 125 c 0,17,18
 59 -26 59 -26 172 -125 c 0,19,20
 284 -224 284 -224 456 -224 c 0,21,22
 651 -224 651 -224 760 -142 c 0,23,24
 868 -59 868 -59 868 89 c 0,25,26
 868 136 868 136 842 169 c 256,27,28
 816 202 816 202 779 202 c 0,29,30
 763 202 763 202 752 188 c 256,31,32
 741 174 741 174 741 155 c 2,33,-1
 741 0 l 1,34,-1
 611 0 l 1,35,-1
 611 370 l 1,36,-1
 442 370 l 2,37,38
 344 370 344 370 274 316 c 0,39,40
 205 262 205 262 205 185 c 0,41,42
 205 138 205 138 221 102 c 0,43,44
 238 66 238 66 266 50 c 1,45,46
 255 62 255 62 250 80 c 0,47,48
 244 98 244 98 244 120 c 0,49,50
 244 184 244 184 285 223 c 256,51,52
 326 262 326 262 394 262 c 256,53,54
 462 262 462 262 503 226 c 0,55,56
 544 189 544 189 544 129 c 256,57,58
 544 69 544 69 496 33 c 0,59,60
 449 -3 449 -3 370 -3 c 0,61,62
 279 -3 279 -3 225 48 c 0,63,64
 170 99 170 99 170 184 c 0,65,66
 170 278 170 278 248 339 c 0,67,68
 325 400 325 400 444 400 c 2,69,-1
 837 400 l 1,70,-1
 837 370 l 1,71,-1
 741 370 l 1,72,-1
 741 228 l 1,73,74
 778 252 778 252 824 252 c 0,75,76
 903 252 903 252 950 207 c 0,77,78
 998 162 998 162 998 88 c 1,79,-1
 998 88 l 1,0,1
414 119 m 1,80,81
 414 154 414 154 393 178 c 0,82,83
 373 203 373 203 344 203 c 0,84,85
 317 203 317 203 298 178 c 256,86,87
 279 153 279 153 279 117 c 0,88,89
 279 82 279 82 298 57 c 256,90,91
 317 32 317 32 344 32 c 0,92,93
 373 32 373 32 393 57 c 0,94,95
 414 83 414 83 414 119 c 1,96,-1
 414 119 l 1,80,81
EndSplineSet
EndChar

StartChar: uni0B9F
Encoding: 277 2975 22
Width: 802
GlyphClass: 2
Flags: W
LayerCount: 2
Back
Fore
SplineSet
799 0 m 1,0,-1
 45 0 l 1,1,-1
 45 400 l 1,2,-1
 175 400 l 1,3,-1
 175 30 l 1,4,-1
 799 30 l 1,5,-1
 799 0 l 1,6,-1
 799 0 l 1,0,-1
EndSplineSet
EndChar

StartChar: uni0BA3
Encoding: 278 2979 23
Width: 1229
GlyphClass: 2
Flags: W
LayerCount: 2
Back
Fore
SplineSet
20 173 m 1,0,1
 20 278 20 278 98 342 c 0,2,3
 176 405 176 405 306 405 c 0,4,5
 387 405 387 405 444 393 c 0,6,7
 501 382 501 382 528 360 c 1,8,9
 555 382 555 382 589 393 c 0,10,11
 623 405 623 405 660 405 c 0,12,13
 714 405 714 405 759 393 c 0,14,15
 803 380 803 380 833 357 c 1,16,17
 892 400 892 400 960 400 c 2,18,-1
 1226 400 l 1,19,-1
 1226 370 l 1,20,-1
 1144 370 l 1,21,-1
 1144 0 l 1,22,-1
 1014 0 l 1,23,-1
 1014 370 l 1,24,-1
 963 370 l 2,25,26
 913 370 913 370 873 340 c 1,27,28
 919 297 919 297 945 244 c 0,29,30
 970 191 970 191 970 137 c 0,31,32
 970 76 970 76 929 32 c 0,33,34
 889 -11 889 -11 831 -11 c 0,35,36
 774 -11 774 -11 733 32 c 0,37,38
 693 76 693 76 693 137 c 0,39,40
 693 187 693 187 711 234 c 0,41,42
 729 282 729 282 762 320 c 1,43,44
 741 344 741 344 712 357 c 0,45,46
 684 370 684 370 653 370 c 0,47,48
 631 370 631 370 608 361 c 256,49,50
 585 352 585 352 564 335 c 1,51,52
 613 292 613 292 640 241 c 0,53,54
 667 189 667 189 667 137 c 0,55,56
 667 76 667 76 625 32 c 0,57,58
 583 -11 583 -11 524 -11 c 256,59,60
 465 -11 465 -11 423 32 c 0,61,62
 381 76 381 76 381 137 c 0,63,64
 381 189 381 189 399 236 c 256,65,66
 417 283 417 283 450 317 c 1,67,68
 421 343 421 343 378 356 c 0,69,70
 336 370 336 370 286 370 c 0,71,72
 190 370 190 370 123 313 c 0,73,74
 55 256 55 256 55 175 c 0,75,76
 55 125 55 125 73 87 c 0,77,78
 91 50 91 50 121 39 c 1,79,80
 108 53 108 53 102 74 c 0,81,82
 95 94 95 94 95 118 c 0,83,84
 95 180 95 180 132 217 c 256,85,86
 169 254 169 254 230 254 c 0,87,88
 286 254 286 254 326 215 c 256,89,90
 366 176 366 176 366 120 c 0,91,92
 366 61 366 61 318 25 c 0,93,94
 269 -11 269 -11 189 -11 c 0,95,96
 119 -11 119 -11 69 43 c 0,97,98
 20 97 20 97 20 173 c 1,99,-1
 20 173 l 1,0,1
840 137 m 1,100,101
 840 182 840 182 825 221 c 0,102,103
 811 260 811 260 784 288 c 1,104,105
 757 261 757 261 743 222 c 0,106,107
 728 183 728 183 728 137 c 0,108,109
 728 98 728 98 745 71 c 256,110,111
 762 44 762 44 786 44 c 0,112,113
 808 44 808 44 824 71 c 256,114,115
 840 98 840 98 840 137 c 1,116,-1
 840 137 l 1,100,101
537 137 m 1,117,118
 537 180 537 180 521 219 c 0,119,120
 505 259 505 259 476 289 c 1,121,122
 447 258 447 258 432 219 c 0,123,124
 416 179 416 179 416 137 c 0,125,126
 416 98 416 98 434 71 c 0,127,128
 451 44 451 44 476 44 c 256,129,130
 501 44 501 44 519 71 c 256,131,132
 537 98 537 98 537 137 c 1,133,-1
 537 137 l 1,117,118
236 118 m 1,134,135
 236 147 236 147 220 168 c 0,136,137
 203 189 203 189 180 189 c 0,138,139
 159 189 159 189 145 168 c 0,140,141
 130 147 130 147 130 117 c 256,142,143
 130 87 130 87 145 65 c 0,144,145
 159 44 159 44 180 44 c 0,146,147
 203 44 203 44 220 66 c 0,148,149
 236 87 236 87 236 118 c 1,150,-1
 236 118 l 1,134,135
EndSplineSet
EndChar

StartChar: uni0BA4
Encoding: 279 2980 24
Width: 638
GlyphClass: 2
Flags: W
LayerCount: 2
Back
Fore
SplineSet
622 85 m 1,0,1
 622 2 622 2 551 -48 c 256,2,3
 480 -98 480 -98 362 -98 c 2,4,-1
 111 -98 l 2,5,6
 79 -98 79 -98 56 -112 c 0,7,8
 33 -127 33 -127 33 -147 c 1,9,10
 40 -141 40 -141 48 -138 c 256,11,12
 56 -135 56 -135 65 -135 c 0,13,14
 89 -135 89 -135 106 -148 c 0,15,16
 123 -160 123 -160 123 -178 c 256,17,18
 123 -196 123 -196 103 -209 c 256,19,20
 83 -222 83 -222 55 -222 c 0,21,22
 29 -222 29 -222 11 -206 c 0,23,24
 -7 -191 -7 -191 -7 -169 c 0,25,26
 -7 -125 -7 -125 29 -94 c 0,27,28
 64 -63 64 -63 115 -63 c 2,29,-1
 341 -63 l 2,30,31
 404 -63 404 -63 448 -19 c 256,32,33
 492 25 492 25 492 88 c 0,34,35
 492 128 492 128 476 157 c 0,36,37
 460 185 460 185 438 185 c 2,38,-1
 413 185 l 1,39,-1
 413 131 l 2,40,41
 413 65 413 65 354 32 c 0,42,43
 296 -2 296 -2 181 -2 c 0,44,45
 111 -2 111 -2 62 38 c 256,46,47
 13 78 13 78 13 134 c 0,48,49
 13 173 13 173 41 197 c 0,50,51
 70 220 70 220 117 220 c 2,52,-1
 133 220 l 1,53,-1
 133 400 l 1,54,-1
 522 400 l 1,55,-1
 522 370 l 1,56,-1
 413 370 l 1,57,-1
 413 220 l 1,58,-1
 484 220 l 2,59,60
 541 220 541 220 582 180 c 0,61,62
 622 141 622 141 622 85 c 1,63,-1
 622 85 l 1,0,1
283 220 m 1,64,-1
 283 370 l 1,65,-1
 168 370 l 1,66,-1
 168 220 l 1,67,-1
 283 220 l 1,68,-1
 283 220 l 1,64,-1
283 138 m 1,69,-1
 283 185 l 1,70,-1
 115 185 l 2,71,72
 87 185 87 185 68 170 c 0,73,74
 48 156 48 156 48 135 c 0,75,76
 48 89 48 89 85 61 c 0,77,78
 121 33 121 33 182 33 c 0,79,80
 224 33 224 33 253 64 c 0,81,82
 283 95 283 95 283 138 c 1,83,-1
 283 138 l 1,69,-1
EndSplineSet
EndChar

StartChar: uni0BA8
Encoding: 280 2984 25
Width: 614
GlyphClass: 2
Flags: W
LayerCount: 2
Back
Fore
SplineSet
596 103 m 1,0,1
 596 8 596 8 518 -45 c 0,2,3
 441 -98 441 -98 301 -98 c 2,4,-1
 124 -98 l 2,5,6
 93 -98 93 -98 72 -111 c 0,7,8
 50 -124 50 -124 50 -142 c 1,9,10
 55 -141 55 -141 63 -138 c 0,11,12
 70 -135 70 -135 73 -135 c 0,13,14
 97 -135 97 -135 113 -148 c 0,15,16
 130 -162 130 -162 130 -181 c 0,17,18
 130 -197 130 -197 112 -209 c 0,19,20
 93 -220 93 -220 67 -220 c 256,21,22
 41 -220 41 -220 23 -205 c 256,23,24
 5 -190 5 -190 5 -169 c 0,25,26
 5 -125 5 -125 41 -94 c 256,27,28
 77 -63 77 -63 128 -63 c 2,29,-1
 304 -63 l 2,30,31
 388 -63 388 -63 427 -22 c 0,32,33
 466 18 466 18 466 105 c 0,34,35
 466 151 466 151 444 184 c 256,36,37
 422 217 422 217 391 217 c 0,38,39
 374 217 374 217 363 206 c 0,40,41
 351 195 351 195 351 179 c 2,42,-1
 351 0 l 1,43,-1
 221 0 l 1,44,-1
 221 370 l 1,45,-1
 80 370 l 1,46,-1
 80 0 l 1,47,-1
 45 0 l 1,48,-1
 45 400 l 1,49,-1
 512 400 l 1,50,-1
 512 370 l 1,51,-1
 351 370 l 1,52,-1
 351 230 l 1,53,54
 388 257 388 257 440 257 c 0,55,56
 505 257 505 257 550 212 c 0,57,58
 596 167 596 167 596 103 c 1,59,-1
 596 103 l 1,0,1
EndSplineSet
EndChar

StartChar: uni0BA9
Encoding: 281 2985 26
Width: 926
GlyphClass: 2
Flags: W
LayerCount: 2
Back
Fore
SplineSet
922 367 m 1,0,-1
 840 367 l 1,1,-1
 840 0 l 1,2,-1
 710 0 l 1,3,-1
 710 367 l 1,4,-1
 659 367 l 2,5,6
 629 367 629 367 606 360 c 0,7,8
 584 354 584 354 573 342 c 1,9,10
 615 307 615 307 638 253 c 256,11,12
 661 199 661 199 661 137 c 0,13,14
 661 73 661 73 623 34 c 0,15,16
 586 -5 586 -5 523 -5 c 256,17,18
 460 -5 460 -5 423 34 c 0,19,20
 385 73 385 73 385 137 c 0,21,22
 385 195 385 195 403 242 c 256,23,24
 421 289 421 289 453 317 c 1,25,26
 417 346 417 346 375 362 c 0,27,28
 333 377 333 377 289 377 c 0,29,30
 183 377 183 377 120 321 c 0,31,32
 56 265 56 265 56 172 c 0,33,34
 56 121 56 121 77 83 c 256,35,36
 98 45 98 45 131 35 c 1,37,38
 115 46 115 46 105 70 c 0,39,40
 96 95 96 95 96 127 c 0,41,42
 96 185 96 185 133 219 c 0,43,44
 170 254 170 254 231 254 c 0,45,46
 293 254 293 254 330 219 c 256,47,48
 367 184 367 184 367 125 c 256,49,50
 367 66 367 66 323 31 c 0,51,52
 280 -5 280 -5 207 -5 c 0,53,54
 123 -5 123 -5 72 43 c 256,55,56
 21 91 21 91 21 170 c 0,57,58
 21 280 21 280 98 346 c 0,59,60
 174 412 174 412 302 412 c 0,61,62
 382 412 382 412 442 398 c 256,63,64
 502 384 502 384 536 358 c 1,65,66
 553 378 553 378 586 389 c 0,67,68
 618 400 618 400 660 400 c 2,69,-1
 922 400 l 1,70,-1
 922 367 l 1,71,-1
 922 367 l 1,0,-1
531 137 m 1,72,73
 531 186 531 186 516 226 c 256,74,75
 501 266 501 266 473 289 c 1,76,77
 448 270 448 270 434 230 c 256,78,79
 420 190 420 190 420 137 c 0,80,81
 420 98 420 98 436 70 c 0,82,83
 451 42 451 42 473 42 c 0,84,85
 497 42 497 42 514 70 c 256,86,87
 531 98 531 98 531 137 c 1,88,-1
 531 137 l 1,72,73
237 120 m 1,89,90
 237 153 237 153 221 176 c 0,91,92
 204 199 204 199 181 199 c 0,93,94
 160 199 160 199 146 176 c 0,95,96
 131 154 131 154 131 122 c 0,97,98
 131 89 131 89 146 65 c 0,99,100
 160 42 160 42 181 42 c 0,101,102
 204 42 204 42 221 65 c 0,103,104
 237 88 237 88 237 120 c 1,105,-1
 237 120 l 1,89,90
EndSplineSet
EndChar

StartChar: uni0BAA
Encoding: 282 2986 27
Width: 692
GlyphClass: 2
Flags: W
LayerCount: 2
Back
Fore
SplineSet
647 0 m 1,0,-1
 45 0 l 1,1,-1
 45 400 l 1,2,-1
 175 400 l 1,3,-1
 175 30 l 1,4,-1
 517 30 l 1,5,-1
 517 400 l 1,6,-1
 647 400 l 1,7,-1
 647 0 l 1,8,-1
 647 0 l 1,0,-1
EndSplineSet
EndChar

StartChar: uni0BAE
Encoding: 283 2990 28
Width: 667
GlyphClass: 2
Flags: W
LayerCount: 2
Back
Fore
SplineSet
319 272 m 1,0,1
 319 328 319 328 361 367 c 256,2,3
 403 406 403 406 462 406 c 0,4,5
 544 406 544 406 594 344 c 0,6,7
 643 281 643 281 643 178 c 0,8,9
 643 97 643 97 610 49 c 0,10,11
 577 0 577 0 522 0 c 2,12,-1
 45 0 l 1,13,-1
 45 400 l 1,14,-1
 175 400 l 1,15,-1
 175 30 l 1,16,-1
 319 30 l 1,17,-1
 319 272 l 1,18,-1
 319 272 l 1,0,1
449 275 m 1,19,-1
 449 30 l 1,20,-1
 512 30 l 2,21,22
 556 30 556 30 582 71 c 256,23,24
 608 112 608 112 608 180 c 0,25,26
 608 262 608 262 580 312 c 0,27,28
 552 361 552 361 505 361 c 0,29,30
 482 361 482 361 465 336 c 0,31,32
 449 311 449 311 449 275 c 1,33,-1
 449 275 l 1,19,-1
EndSplineSet
EndChar

StartChar: uni0BAF
Encoding: 284 2991 29
Width: 712
GlyphClass: 2
Flags: W
LayerCount: 2
Back
Fore
SplineSet
667 0 m 1,0,-1
 247 0 l 1,1,-1
 247 66 l 1,2,3
 239 33 239 33 213 12 c 256,4,5
 187 -9 187 -9 155 -9 c 0,6,7
 107 -9 107 -9 74 28 c 0,8,9
 40 66 40 66 40 119 c 2,10,-1
 40 400 l 1,11,-1
 170 400 l 1,12,-1
 170 113 l 2,13,14
 170 87 170 87 178 69 c 256,15,16
 186 51 186 51 198 51 c 0,17,18
 211 51 211 51 220 69 c 256,19,20
 229 87 229 87 229 112 c 2,21,-1
 229 400 l 1,22,-1
 359 400 l 1,23,-1
 359 30 l 1,24,-1
 537 30 l 1,25,-1
 537 400 l 1,26,-1
 667 400 l 1,27,-1
 667 0 l 1,28,-1
 667 0 l 1,0,-1
EndSplineSet
EndChar

StartChar: uni0BB0
Encoding: 285 2992 30
Width: 454
GlyphClass: 2
Flags: W
LayerCount: 2
Back
Fore
SplineSet
451 370 m 1,0,-1
 354 370 l 1,1,-1
 354 14 l 1,2,-1
 58 -165 l 1,3,-1
 42 -142 l 1,4,-1
 224 0 l 1,5,-1
 224 370 l 1,6,-1
 80 370 l 1,7,-1
 80 0 l 1,8,-1
 45 0 l 1,9,-1
 45 400 l 1,10,-1
 451 400 l 1,11,-1
 451 370 l 1,12,-1
 451 370 l 1,0,-1
EndSplineSet
EndChar

StartChar: uni0BB1
Encoding: 286 2993 31
Width: 647
GlyphClass: 2
Flags: W
LayerCount: 2
Back
Fore
SplineSet
622 172 m 1,0,1
 622 60 622 60 540 -19 c 0,2,3
 457 -98 457 -98 341 -98 c 2,4,-1
 128 -98 l 2,5,6
 96 -98 96 -98 73 -110 c 0,7,8
 50 -123 50 -123 45 -142 c 1,9,-1
 73 -135 l 1,10,11
 94 -135 94 -135 109 -148 c 0,12,13
 124 -162 124 -162 124 -181 c 0,14,15
 124 -197 124 -197 108 -209 c 0,16,17
 93 -220 93 -220 71 -220 c 0,18,19
 45 -220 45 -220 27 -205 c 256,20,21
 9 -190 9 -190 9 -169 c 0,22,23
 9 -125 9 -125 44 -94 c 0,24,25
 78 -63 78 -63 127 -63 c 2,26,-1
 337 -63 l 2,27,28
 401 -63 401 -63 447 6 c 0,29,30
 492 75 492 75 492 172 c 0,31,32
 492 256 492 256 467 315 c 256,33,34
 442 374 442 374 407 374 c 0,35,36
 378 374 378 374 358 342 c 0,37,38
 338 311 338 311 338 266 c 2,39,-1
 338 0 l 1,40,-1
 208 0 l 1,41,-1
 208 305 l 2,42,43
 208 334 208 334 188 354 c 256,44,45
 168 374 168 374 139 374 c 0,46,47
 113 374 113 374 94 353 c 0,48,49
 76 333 76 333 76 304 c 2,50,-1
 76 0 l 1,51,-1
 41 0 l 1,52,-1
 41 307 l 2,53,54
 41 349 41 349 75 379 c 256,55,56
 109 409 109 409 157 409 c 0,57,58
 207 409 207 409 246 388 c 0,59,60
 284 366 284 366 298 331 c 1,61,62
 313 366 313 366 344 388 c 0,63,64
 374 409 374 409 410 409 c 0,65,66
 519 409 519 409 571 352 c 0,67,68
 622 294 622 294 622 172 c 1,69,-1
 622 172 l 1,0,1
EndSplineSet
EndChar

StartChar: uni0BB2
Encoding: 287 2994 32
Width: 746
GlyphClass: 2
Flags: W
LayerCount: 2
Back
Fore
SplineSet
718 204 m 1,0,1
 718 101 718 101 675 49 c 0,2,3
 632 -4 632 -4 548 -4 c 0,4,5
 477 -4 477 -4 435 28 c 0,6,7
 392 60 392 60 392 114 c 2,8,-1
 392 247 l 2,9,10
 392 302 392 302 356 336 c 0,11,12
 320 369 320 369 261 369 c 0,13,14
 175 369 175 369 115 314 c 0,15,16
 54 259 54 259 54 182 c 0,17,18
 54 137 54 137 71 100 c 0,19,20
 89 64 89 64 119 44 c 1,21,22
 107 56 107 56 100 77 c 256,23,24
 93 98 93 98 93 123 c 0,25,26
 93 179 93 179 132 218 c 0,27,28
 171 258 171 258 226 258 c 0,29,30
 287 258 287 258 323 220 c 0,31,32
 360 183 360 183 360 120 c 0,33,34
 360 64 360 64 319 30 c 256,35,36
 278 -4 278 -4 210 -4 c 0,37,38
 131 -4 131 -4 75 50 c 256,39,40
 19 104 19 104 19 180 c 0,41,42
 19 273 19 273 91 338 c 0,43,44
 163 404 163 404 265 404 c 0,45,46
 382 404 382 404 452 361 c 256,47,48
 522 318 522 318 522 246 c 2,49,-1
 522 117 l 2,50,51
 522 83 522 83 542 60 c 0,52,53
 561 36 561 36 589 36 c 0,54,55
 632 36 632 36 657 82 c 0,56,57
 683 128 683 128 683 204 c 0,58,59
 683 244 683 244 660 285 c 0,60,61
 638 326 638 326 597 360 c 0,62,63
 590 366 590 366 587 373 c 0,64,65
 583 380 583 380 583 387 c 0,66,67
 583 401 583 401 595 412 c 0,68,69
 606 422 606 422 623 422 c 0,70,71
 662 422 662 422 690 358 c 256,72,73
 718 294 718 294 718 204 c 1,74,-1
 718 204 l 1,0,1
230 114 m 1,75,76
 230 149 230 149 214 173 c 0,77,78
 198 198 198 198 176 198 c 0,79,80
 156 198 156 198 142 173 c 0,81,82
 128 149 128 149 128 114 c 0,83,84
 128 80 128 80 142 55 c 0,85,86
 156 31 156 31 176 31 c 0,87,88
 198 31 198 31 214 55 c 0,89,90
 230 80 230 80 230 114 c 1,91,-1
 230 114 l 1,75,76
EndSplineSet
EndChar

StartChar: uni0BB3
Encoding: 288 2995 33
Width: 917
GlyphClass: 2
Flags: W
LayerCount: 2
Back
Fore
SplineSet
913 367 m 1,0,-1
 844 367 l 1,1,-1
 844 0 l 1,2,-1
 714 0 l 1,3,-1
 714 367 l 1,4,-1
 582 367 l 1,5,-1
 582 0 l 1,6,-1
 452 0 l 1,7,-1
 452 218 l 1,8,9
 428 285 428 285 376 326 c 256,10,11
 324 367 324 367 264 367 c 0,12,13
 177 367 177 367 116 317 c 0,14,15
 54 266 54 266 54 195 c 0,16,17
 54 138 54 138 76 96 c 0,18,19
 98 53 98 53 134 41 c 1,20,21
 121 55 121 55 114 77 c 0,22,23
 107 100 107 100 107 127 c 0,24,25
 107 187 107 187 144 224 c 0,26,27
 181 260 181 260 243 260 c 256,28,29
 305 260 305 260 342 222 c 0,30,31
 379 185 379 185 379 122 c 0,32,33
 379 66 379 66 331 33 c 0,34,35
 284 -1 284 -1 205 -1 c 0,36,37
 128 -1 128 -1 73 56 c 0,38,39
 19 113 19 113 19 193 c 0,40,41
 19 280 19 280 91 341 c 256,42,43
 163 402 163 402 264 402 c 0,44,45
 328 402 328 402 384 378 c 0,46,47
 439 353 439 353 475 309 c 1,48,-1
 475 400 l 1,49,-1
 913 400 l 1,50,-1
 913 367 l 1,51,-1
 913 367 l 1,0,-1
249 119 m 1,52,53
 249 150 249 150 233 173 c 0,54,55
 216 195 216 195 193 195 c 0,56,57
 172 195 172 195 157 172 c 0,58,59
 142 150 142 150 142 118 c 0,60,61
 142 83 142 83 157 59 c 0,62,63
 172 34 172 34 193 34 c 0,64,65
 216 34 216 34 233 59 c 0,66,67
 249 84 249 84 249 119 c 1,68,-1
 249 119 l 1,52,53
EndSplineSet
EndChar

StartChar: uni0BB4
Encoding: 289 2996 34
Width: 667
GlyphClass: 2
Flags: W
LayerCount: 2
Back
Fore
SplineSet
45 0 m 1,0,-1
 45 400 l 1,1,-1
 175 400 l 1,2,-1
 175 30 l 1,3,-1
 319 30 l 1,4,-1
 319 267 l 2,5,6
 319 327 319 327 367 369 c 0,7,8
 414 411 414 411 482 411 c 0,9,10
 549 411 549 411 596 347 c 256,11,12
 643 283 643 283 643 193 c 0,13,14
 643 105 643 105 610 53 c 0,15,16
 576 0 576 0 521 0 c 2,17,-1
 448 0 l 1,18,19
 448 -26 448 -26 466 -45 c 0,20,21
 483 -63 483 -63 508 -63 c 2,22,-1
 616 -63 l 1,23,-1
 616 -98 l 1,24,-1
 508 -98 l 2,25,26
 462 -98 462 -98 429 -123 c 0,27,28
 396 -149 396 -149 396 -185 c 0,29,30
 396 -224 396 -224 333 -252 c 256,31,32
 270 -280 270 -280 181 -280 c 0,33,34
 110 -280 110 -280 67 -251 c 256,35,36
 24 -222 24 -222 24 -173 c 0,37,38
 24 -127 24 -127 64 -95 c 0,39,40
 103 -63 103 -63 159 -63 c 0,41,42
 198 -63 198 -63 225 -80 c 256,43,44
 252 -97 252 -97 252 -121 c 0,45,46
 252 -138 252 -138 228 -151 c 0,47,48
 204 -163 204 -163 170 -163 c 0,49,50
 150 -163 150 -163 136 -152 c 256,51,52
 122 -141 122 -141 122 -126 c 0,53,54
 120 -117 120 -117 123 -109 c 0,55,56
 125 -102 125 -102 131 -98 c 1,57,58
 101 -98 101 -98 80 -120 c 0,59,60
 59 -143 59 -143 59 -174 c 0,61,62
 59 -203 59 -203 94 -224 c 0,63,64
 130 -245 130 -245 180 -245 c 0,65,66
 216 -245 216 -245 241 -220 c 256,67,68
 266 -195 266 -195 266 -160 c 0,69,70
 266 -120 266 -120 294 -91 c 0,71,72
 322 -63 322 -63 362 -63 c 1,73,74
 343 -60 343 -60 332 -43 c 0,75,76
 319 -25 319 -25 319 0 c 1,77,-1
 45 0 l 1,0,-1
449 30 m 1,78,-1
 522 30 l 2,79,80
 558 30 558 30 583 78 c 0,81,82
 608 127 608 127 608 195 c 0,83,84
 608 267 608 267 576 319 c 0,85,86
 545 370 545 370 500 370 c 0,87,88
 479 370 479 370 464 341 c 256,89,90
 449 312 449 312 449 271 c 2,91,-1
 449 30 l 1,78,-1
EndSplineSet
EndChar

StartChar: uni0BB5
Encoding: 290 2997 35
Width: 819
GlyphClass: 2
Flags: W
LayerCount: 2
Back
Fore
SplineSet
774 0 m 1,0,-1
 343 0 l 1,1,-1
 343 27 l 1,2,3
 383 46 383 46 406 92 c 0,4,5
 430 138 430 138 430 196 c 0,6,7
 430 271 430 271 375 323 c 0,8,9
 320 376 320 376 243 376 c 256,10,11
 166 376 166 376 111 319 c 256,12,13
 56 262 56 262 56 182 c 0,14,15
 56 137 56 137 73 100 c 0,16,17
 91 64 91 64 121 44 c 1,18,19
 108 59 108 59 102 79 c 0,20,21
 95 100 95 100 95 123 c 0,22,23
 95 184 95 184 132 221 c 0,24,25
 168 258 168 258 229 258 c 256,26,27
 290 258 290 258 326 221 c 0,28,29
 363 184 363 184 363 122 c 0,30,31
 363 67 363 67 318 34 c 0,32,33
 272 1 272 1 197 1 c 0,34,35
 117 1 117 1 69 50 c 0,36,37
 21 100 21 100 21 182 c 0,38,39
 21 290 21 290 94 356 c 0,40,41
 168 421 168 421 290 421 c 0,42,43
 413 421 413 421 486 360 c 0,44,45
 560 299 560 299 560 198 c 0,46,47
 560 141 560 141 543 97 c 0,48,49
 526 52 526 52 495 30 c 1,50,-1
 644 30 l 1,51,-1
 644 400 l 1,52,-1
 774 400 l 1,53,-1
 774 0 l 1,54,-1
 774 0 l 1,0,-1
233 119 m 1,55,56
 233 152 233 152 217 175 c 256,57,58
 201 198 201 198 179 198 c 0,59,60
 159 198 159 198 144 175 c 0,61,62
 130 152 130 152 130 120 c 0,63,64
 130 85 130 85 144 61 c 0,65,66
 159 36 159 36 179 36 c 0,67,68
 201 36 201 36 217 60 c 0,69,70
 233 85 233 85 233 119 c 1,71,-1
 233 119 l 1,55,56
EndSplineSet
EndChar

StartChar: uni0BB7
Encoding: 291 2999 36
Width: 1060
GlyphClass: 2
Flags: W
LayerCount: 2
Back
Fore
SplineSet
1026 0 m 1,0,-1
 837 0 l 1,1,-1
 837 -242 l 1,2,-1
 707 -242 l 1,3,-1
 707 0 l 1,4,-1
 347 0 l 1,5,-1
 347 30 l 1,6,7
 387 52 387 52 411 97 c 0,8,9
 434 141 434 141 434 196 c 0,10,11
 434 275 434 275 382 322 c 0,12,13
 330 370 330 370 244 370 c 256,14,15
 158 370 158 370 107 319 c 0,16,17
 55 267 55 267 55 182 c 0,18,19
 55 139 55 139 74 102 c 0,20,21
 92 65 92 65 125 44 c 1,22,23
 112 59 112 59 106 78 c 0,24,25
 99 97 99 97 99 118 c 0,26,27
 99 175 99 175 136 209 c 0,28,29
 172 243 172 243 233 243 c 256,30,31
 294 243 294 243 330 210 c 0,32,33
 367 177 367 177 367 122 c 256,34,35
 367 67 367 67 323 33 c 0,36,37
 279 0 279 0 206 0 c 0,38,39
 129 0 129 0 74 54 c 0,40,41
 20 108 20 108 20 185 c 0,42,43
 20 289 20 289 94 352 c 0,44,45
 169 415 169 415 292 415 c 256,46,47
 415 415 415 415 490 355 c 0,48,49
 564 295 564 295 564 195 c 0,50,51
 564 142 564 142 545 99 c 0,52,53
 525 55 525 55 491 30 c 1,54,-1
 707 30 l 1,55,-1
 707 164 l 1,56,57
 652 164 652 164 613 198 c 0,58,59
 574 233 574 233 574 281 c 0,60,61
 574 335 574 335 608 367 c 0,62,63
 643 400 643 400 700 400 c 256,64,65
 757 400 757 400 797 372 c 256,66,67
 837 344 837 344 837 304 c 2,68,-1
 837 193 l 1,69,70
 870 193 870 193 904 223 c 0,71,72
 939 253 939 253 965 304 c 1,73,-1
 1026 304 l 1,74,-1
 1026 0 l 1,75,-1
 1026 0 l 1,0,-1
707 192 m 1,76,-1
 707 302 l 2,77,78
 707 324 707 324 694 339 c 0,79,80
 682 354 682 354 664 354 c 0,81,82
 641 354 641 354 625 333 c 0,83,84
 609 311 609 311 609 281 c 0,85,86
 609 244 609 244 638 218 c 0,87,88
 666 192 666 192 707 192 c 1,89,-1
 707 192 l 1,76,-1
237 119 m 1,90,91
 237 149 237 149 221 171 c 0,92,93
 205 192 205 192 183 192 c 0,94,95
 163 192 163 192 148 171 c 0,96,97
 134 150 134 150 134 120 c 0,98,99
 134 89 134 89 148 68 c 0,100,101
 163 46 163 46 183 46 c 0,102,103
 205 46 205 46 221 67 c 0,104,105
 237 89 237 89 237 119 c 1,106,-1
 237 119 l 1,90,91
896 30 m 1,107,-1
 896 179 l 1,108,109
 886 172 886 172 870 168 c 0,110,111
 855 164 855 164 837 164 c 1,112,-1
 837 30 l 1,113,-1
 896 30 l 1,114,-1
 896 30 l 1,107,-1
EndSplineSet
EndChar

StartChar: uni0BB8
Encoding: 292 3000 37
Width: 1049
GlyphClass: 2
Flags: W
LayerCount: 2
Back
Fore
SplineSet
20 188 m 1,0,1
 20 289 20 289 88 350 c 0,2,3
 157 411 157 411 270 411 c 0,4,5
 359 411 359 411 425 382 c 0,6,7
 492 354 492 354 517 305 c 1,8,9
 530 352 530 352 571 381 c 0,10,11
 612 411 612 411 664 411 c 0,12,13
 734 411 734 411 783 366 c 0,14,15
 832 320 832 320 832 256 c 2,16,-1
 832 117 l 2,17,18
 832 85 832 85 848 62 c 256,19,20
 864 39 864 39 887 39 c 0,21,22
 932 39 932 39 960 84 c 0,23,24
 987 129 987 129 987 204 c 0,25,26
 987 249 987 249 961 288 c 0,27,28
 941 319 941 319 900 360 c 0,29,30
 896 364 896 364 894 370 c 0,31,32
 892 375 892 375 892 382 c 0,33,34
 892 399 892 399 902 410 c 0,35,36
 913 422 913 422 927 422 c 0,37,38
 966 422 966 422 994 358 c 256,39,40
 1022 294 1022 294 1022 204 c 0,41,42
 1022 106 1022 106 977 48 c 0,43,44
 932 -11 932 -11 857 -11 c 0,45,46
 787 -11 787 -11 744 23 c 0,47,48
 702 57 702 57 702 114 c 2,49,-1
 702 257 l 2,50,51
 702 306 702 306 682 341 c 256,52,53
 662 376 662 376 634 376 c 0,54,55
 603 376 603 376 580 345 c 0,56,57
 558 313 558 313 558 269 c 2,58,-1
 558 0 l 1,59,-1
 428 0 l 1,60,-1
 428 235 l 2,61,62
 428 293 428 293 381 335 c 0,63,64
 335 376 335 376 269 376 c 0,65,66
 172 376 172 376 113 325 c 0,67,68
 55 274 55 274 55 190 c 0,69,70
 55 135 55 135 76 94 c 0,71,72
 96 53 96 53 130 41 c 1,73,74
 116 57 116 57 109 78 c 256,75,76
 102 99 102 99 102 124 c 0,77,78
 102 183 102 183 140 219 c 256,79,80
 178 255 178 255 241 255 c 256,81,82
 304 255 304 255 342 219 c 0,83,84
 380 182 380 182 380 122 c 0,85,86
 380 67 380 67 333 28 c 0,87,88
 287 -11 287 -11 221 -11 c 0,89,90
 138 -11 138 -11 79 47 c 0,91,92
 20 106 20 106 20 188 c 1,93,-1
 20 188 l 1,0,1
250 119 m 1,94,95
 250 150 250 150 233 173 c 0,96,97
 215 195 215 195 191 195 c 0,98,99
 169 195 169 195 153 174 c 0,100,101
 137 152 137 152 137 122 c 0,102,103
 137 90 137 90 153 67 c 256,104,105
 169 44 169 44 191 44 c 0,106,107
 215 44 215 44 233 66 c 0,108,109
 250 88 250 88 250 119 c 1,110,-1
 250 119 l 1,94,95
EndSplineSet
EndChar

StartChar: uni0BB9
Encoding: 293 3001 38
Width: 1230
GlyphClass: 2
Flags: W
LayerCount: 2
Back
Fore
SplineSet
1203 172 m 1,0,1
 1203 33 1203 33 1131 -33 c 0,2,3
 1059 -98 1059 -98 906 -98 c 2,4,-1
 139 -98 l 2,5,6
 104 -98 104 -98 80 -111 c 0,7,8
 55 -125 55 -125 55 -144 c 1,9,-1
 88 -135 l 1,10,11
 105 -135 105 -135 118 -148 c 0,12,13
 130 -162 130 -162 130 -181 c 0,14,15
 130 -197 130 -197 116 -209 c 0,16,17
 102 -220 102 -220 82 -220 c 0,18,19
 56 -220 56 -220 38 -204 c 0,20,21
 20 -187 20 -187 20 -164 c 0,22,23
 20 -122 20 -122 55 -93 c 0,24,25
 89 -63 89 -63 138 -63 c 2,26,-1
 906 -63 l 2,27,28
 975 -63 975 -63 1024 5 c 256,29,30
 1073 73 1073 73 1073 170 c 0,31,32
 1073 261 1073 261 1050 315 c 0,33,34
 1026 370 1026 370 987 370 c 0,35,36
 962 370 962 370 944 348 c 0,37,38
 926 325 926 325 926 294 c 2,39,-1
 926 0 l 1,40,-1
 796 0 l 1,41,-1
 796 295 l 2,42,43
 796 326 796 326 779 348 c 0,44,45
 761 370 761 370 737 370 c 0,46,47
 715 370 715 370 700 348 c 0,48,49
 684 325 684 325 684 294 c 2,50,-1
 684 0 l 1,51,-1
 343 0 l 1,52,-1
 343 30 l 1,53,54
 383 52 383 52 407 96 c 0,55,56
 430 139 430 139 430 191 c 0,57,58
 430 272 430 272 379 321 c 0,59,60
 327 370 327 370 242 370 c 256,61,62
 157 370 157 370 106 317 c 0,63,64
 55 265 55 265 55 177 c 0,65,66
 55 135 55 135 73 99 c 0,67,68
 90 64 90 64 121 44 c 1,69,70
 109 56 109 56 102 77 c 0,71,72
 95 97 95 97 95 122 c 0,73,74
 95 179 95 179 132 214 c 0,75,76
 168 248 168 248 229 248 c 256,77,78
 290 248 290 248 326 214 c 0,79,80
 363 179 363 179 363 122 c 0,81,82
 363 67 363 67 320 33 c 0,83,84
 278 0 278 0 207 0 c 0,85,86
 130 0 130 0 75 53 c 0,87,88
 20 105 20 105 20 180 c 0,89,90
 20 289 20 289 94 354 c 0,91,92
 167 420 167 420 290 420 c 256,93,94
 413 420 413 420 486 357 c 0,95,96
 560 294 560 294 560 190 c 0,97,98
 560 136 560 136 543 94 c 0,99,100
 527 52 527 52 497 30 c 1,101,-1
 649 30 l 1,102,-1
 649 292 l 2,103,104
 649 341 649 341 681 371 c 0,105,106
 713 400 713 400 766 400 c 0,107,108
 809 400 809 400 842 381 c 256,109,110
 875 362 875 362 886 331 c 1,111,112
 897 362 897 362 931 381 c 256,113,114
 965 400 965 400 1010 400 c 0,115,116
 1106 400 1106 400 1154 342 c 0,117,118
 1203 285 1203 285 1203 172 c 1,119,-1
 1203 172 l 1,0,1
233 122 m 1,120,121
 233 149 233 149 217 169 c 0,122,123
 201 188 201 188 179 188 c 0,124,125
 159 188 159 188 144 169 c 0,126,127
 130 149 130 149 130 122 c 0,128,129
 130 91 130 91 144 68 c 0,130,131
 159 46 159 46 179 46 c 0,132,133
 201 46 201 46 217 68 c 0,134,135
 233 91 233 91 233 122 c 1,136,-1
 233 122 l 1,120,121
EndSplineSet
EndChar

StartChar: uni0BBE
Encoding: 294 3006 39
Width: 454
GlyphClass: 2
Flags: W
LayerCount: 2
Back
Fore
SplineSet
451 370 m 1,0,-1
 354 370 l 1,1,-1
 354 0 l 1,2,-1
 224 0 l 1,3,-1
 224 370 l 1,4,-1
 80 370 l 1,5,-1
 80 0 l 1,6,-1
 45 0 l 1,7,-1
 45 400 l 1,8,-1
 451 400 l 1,9,-1
 451 370 l 1,10,-1
 451 370 l 1,0,-1
EndSplineSet
EndChar

StartChar: uni0BBF
Encoding: 295 3007 40
Width: 390
GlyphClass: 2
Flags: W
LayerCount: 2
Back
Fore
SplineSet
81 400 m 1,0,1
 45 460 45 460 45 505 c 0,2,3
 45 569 45 569 89 615 c 0,4,5
 133 660 133 660 195 660 c 256,6,7
 257 660 257 660 301 608 c 0,8,9
 345 557 345 557 345 484 c 2,10,-1
 345 0 l 1,11,-1
 310 0 l 1,12,-1
 310 482 l 2,13,14
 310 527 310 527 273 559 c 0,15,16
 237 591 237 591 185 591 c 0,17,18
 142 591 142 591 111 560 c 256,19,20
 80 529 80 529 80 486 c 0,21,22
 80 464 80 464 90 442 c 0,23,24
 101 419 101 419 120 400 c 1,25,-1
 81 400 l 1,26,-1
 81 400 l 1,0,1
EndSplineSet
EndChar

StartChar: uni0BC0
Encoding: 296 3008 41
Width: 495
GlyphClass: 2
Flags: W
LayerCount: 2
Back
Fore
SplineSet
320 535 m 1,0,1
 320 560 320 560 307 577 c 0,2,3
 293 595 293 595 274 595 c 256,4,5
 255 595 255 595 241 578 c 0,6,7
 228 560 228 560 228 536 c 0,8,9
 228 511 228 511 241 494 c 0,10,11
 255 476 255 476 274 476 c 256,12,13
 293 476 293 476 307 493 c 0,14,15
 320 511 320 511 320 535 c 1,16,-1
 320 535 l 1,0,1
45 489 m 1,17,18
 45 557 45 557 104 606 c 0,19,20
 162 654 162 654 245 654 c 0,21,22
 338 654 338 654 394 621 c 0,23,24
 450 589 450 589 450 535 c 0,25,26
 450 483 450 483 415 452 c 256,27,28
 380 421 380 421 321 421 c 0,29,30
 263 421 263 421 228 452 c 256,31,32
 193 483 193 483 193 535 c 0,33,34
 193 557 193 557 201 577 c 256,35,36
 209 597 209 597 223 610 c 1,37,38
 164 610 164 610 122 576 c 0,39,40
 80 541 80 541 80 493 c 0,41,42
 80 469 80 469 92 445 c 0,43,44
 105 420 105 420 127 400 c 1,45,-1
 82 400 l 1,46,47
 64 426 64 426 54 449 c 0,48,49
 45 471 45 471 45 489 c 1,50,-1
 45 489 l 1,17,18
EndSplineSet
EndChar

StartChar: uni0BC1
Encoding: 297 3009 42
Width: 356
GlyphClass: 4
Flags: W
LayerCount: 2
Back
Fore
SplineSet
-87 370 m 1,0,-1
 -87 400 l 1,1,-1
 340 400 l 1,2,-1
 340 320 l 2,3,4
 340 273 340 273 300 239 c 0,5,6
 260 206 260 206 203 206 c 0,7,8
 147 206 147 206 107 239 c 0,9,10
 67 273 67 273 67 320 c 2,11,-1
 67 370 l 1,12,-1
 -87 370 l 1,13,-1
 -87 370 l 1,0,-1
210 321 m 1,14,-1
 210 370 l 1,15,-1
 102 370 l 1,16,-1
 102 320 l 2,17,18
 102 293 102 293 118 275 c 0,19,20
 134 256 134 256 156 256 c 256,21,22
 178 256 178 256 194 275 c 256,23,24
 210 294 210 294 210 321 c 1,25,-1
 210 321 l 1,14,-1
EndSplineSet
Substitution2: "Single Substitution lookup 7 subtable" uni0BC1.abvs
EndChar

StartChar: uni0BC2
Encoding: 298 3010 43
Width: 621
GlyphClass: 4
Flags: W
LayerCount: 2
Back
Fore
SplineSet
598 289 m 1,0,1
 598 165 598 165 516 102 c 256,2,3
 434 39 434 39 274 39 c 0,4,5
 175 39 175 39 115 98 c 256,6,7
 55 157 55 157 55 255 c 1,8,-1
 84 255 l 1,9,10
 84 173 84 173 136 123 c 0,11,12
 187 74 187 74 273 74 c 0,13,14
 361 74 361 74 415 132 c 0,15,16
 468 191 468 191 468 288 c 0,17,18
 468 388 468 388 426 449 c 0,19,20
 385 509 385 509 316 509 c 0,21,22
 256 509 256 509 213 477 c 256,23,24
 170 445 170 445 170 400 c 1,25,-1
 410 400 l 1,26,-1
 410 320 l 2,27,28
 410 272 410 272 370 239 c 0,29,30
 331 205 331 205 275 205 c 256,31,32
 219 205 219 205 180 239 c 0,33,34
 140 274 140 274 140 322 c 2,35,-1
 140 370 l 1,36,-1
 -87 370 l 1,37,-1
 -87 400 l 1,38,-1
 143 400 l 1,39,40
 143 460 143 460 195 502 c 0,41,42
 246 544 246 544 319 544 c 0,43,44
 457 544 457 544 528 480 c 0,45,46
 598 415 598 415 598 289 c 1,47,-1
 598 289 l 1,0,1
280 321 m 1,48,-1
 280 370 l 1,49,-1
 175 370 l 1,50,-1
 175 320 l 2,51,52
 175 293 175 293 190 274 c 256,53,54
 205 255 205 255 227 255 c 256,55,56
 249 255 249 255 264 274 c 0,57,58
 280 294 280 294 280 321 c 1,59,-1
 280 321 l 1,48,-1
EndSplineSet
Substitution2: "Single Substitution lookup 7 subtable" uni0BC2.abvs
EndChar

StartChar: uni0BC6
Encoding: 299 3014 44
Width: 703
GlyphClass: 2
Flags: W
LayerCount: 2
Back
Fore
SplineSet
658 0 m 1,0,-1
 623 0 l 1,1,-1
 623 349 l 2,2,3
 623 453 623 453 540 526 c 0,4,5
 458 599 458 599 341 599 c 0,6,7
 213 599 213 599 136 520 c 0,8,9
 59 442 59 442 59 311 c 0,10,11
 59 187 59 187 125 112 c 0,12,13
 190 37 190 37 299 37 c 0,14,15
 322 37 322 37 334 41 c 1,16,17
 296 59 296 59 273 93 c 0,18,19
 250 128 250 128 250 168 c 0,20,21
 250 225 250 225 296 266 c 0,22,23
 341 306 341 306 406 306 c 0,24,25
 477 306 477 306 520 266 c 0,26,27
 563 227 563 227 563 161 c 0,28,29
 563 87 563 87 491 42 c 256,30,31
 419 -3 419 -3 300 -3 c 0,32,33
 175 -3 175 -3 99 83 c 0,34,35
 24 169 24 169 24 312 c 0,36,37
 24 476 24 476 110 574 c 0,38,39
 196 673 196 673 338 673 c 0,40,41
 483 673 483 673 571 585 c 0,42,43
 658 496 658 496 658 349 c 2,44,-1
 658 0 l 1,45,-1
 658 0 l 1,0,-1
433 159 m 1,46,47
 433 198 433 198 412 226 c 256,48,49
 391 254 391 254 361 254 c 0,50,51
 330 254 330 254 307 228 c 0,52,53
 285 201 285 201 285 164 c 0,54,55
 285 125 285 125 307 93 c 256,56,57
 329 61 329 61 365 46 c 1,58,59
 396 57 396 57 414 88 c 0,60,61
 433 119 433 119 433 159 c 1,62,-1
 433 159 l 1,46,47
EndSplineSet
EndChar

StartChar: uni0BC7
Encoding: 300 3015 45
Width: 649
GlyphClass: 2
Flags: W
LayerCount: 2
Back
Fore
SplineSet
633 170 m 1,0,1
 633 92 633 92 552 46 c 0,2,3
 471 -1 471 -1 337 -1 c 0,4,5
 206 -1 206 -1 114 96 c 0,6,7
 21 193 21 193 21 330 c 0,8,9
 21 468 21 468 115 565 c 0,10,11
 209 663 209 663 342 663 c 0,12,13
 474 663 474 663 554 615 c 0,14,15
 633 567 633 567 633 487 c 0,16,17
 633 433 633 433 596 401 c 0,18,19
 558 369 558 369 496 369 c 256,20,21
 434 369 434 369 397 401 c 0,22,23
 360 432 360 432 360 485 c 0,24,25
 360 522 360 522 381 552 c 256,26,27
 402 582 402 582 436 594 c 1,28,29
 399 612 399 612 335 612 c 0,30,31
 219 612 219 612 138 530 c 0,32,33
 56 447 56 447 56 331 c 0,34,35
 56 213 56 213 137 129 c 0,36,37
 218 46 218 46 332 46 c 0,38,39
 369 46 369 46 395 51 c 0,40,41
 421 55 421 55 434 64 c 1,42,43
 402 70 402 70 381 102 c 0,44,45
 360 133 360 133 360 175 c 0,46,47
 360 231 360 231 397 264 c 0,48,49
 434 298 434 298 496 298 c 256,50,51
 558 298 558 298 596 263 c 0,52,53
 633 228 633 228 633 170 c 1,54,-1
 633 170 l 1,0,1
503 482 m 1,55,56
 503 512 503 512 487 533 c 256,57,58
 471 554 471 554 449 554 c 256,59,60
 427 554 427 554 411 533 c 256,61,62
 395 512 395 512 395 482 c 0,63,64
 395 454 395 454 411 434 c 256,65,66
 427 414 427 414 449 414 c 256,67,68
 471 414 471 414 487 434 c 256,69,70
 503 454 503 454 503 482 c 1,71,-1
 503 482 l 1,55,56
503 174 m 1,72,73
 503 205 503 205 487 226 c 0,74,75
 471 248 471 248 449 248 c 256,76,77
 427 248 427 248 411 226 c 0,78,79
 395 205 395 205 395 174 c 256,80,81
 395 143 395 143 411 122 c 0,82,83
 427 100 427 100 449 100 c 256,84,85
 471 100 471 100 487 122 c 0,86,87
 503 143 503 143 503 174 c 1,88,-1
 503 174 l 1,72,73
EndSplineSet
EndChar

StartChar: uni0BC8
Encoding: 301 3016 46
Width: 916
GlyphClass: 2
Flags: W
LayerCount: 2
Back
Fore
SplineSet
895 203 m 1,0,1
 895 121 895 121 844 61 c 256,2,3
 793 1 793 1 718 -7 c 1,4,-1
 709 25 l 1,5,6
 765 102 765 102 765 202 c 0,7,8
 765 274 765 274 734 326 c 0,9,10
 703 377 703 377 659 377 c 0,11,12
 629 377 629 377 604 370 c 0,13,14
 579 364 579 364 563 351 c 1,15,16
 610 310 610 310 635 257 c 0,17,18
 661 204 661 204 661 147 c 0,19,20
 661 79 661 79 622 38 c 0,21,22
 584 -3 584 -3 520 -3 c 256,23,24
 456 -3 456 -3 418 38 c 256,25,26
 380 79 380 79 380 147 c 0,27,28
 380 191 380 191 399 237 c 256,29,30
 418 283 418 283 454 326 c 1,31,32
 425 351 425 351 381 364 c 0,33,34
 338 377 338 377 286 377 c 0,35,36
 190 377 190 377 122 317 c 256,37,38
 54 257 54 257 54 172 c 0,39,40
 54 121 54 121 75 83 c 256,41,42
 96 45 96 45 129 35 c 1,43,44
 113 46 113 46 103 69 c 0,45,46
 94 92 94 92 94 122 c 0,47,48
 94 182 94 182 131 218 c 256,49,50
 168 254 168 254 229 254 c 0,51,52
 291 254 291 254 328 220 c 256,53,54
 365 186 365 186 365 130 c 0,55,56
 365 67 365 67 316 30 c 0,57,58
 267 -8 267 -8 185 -8 c 0,59,60
 116 -8 116 -8 68 44 c 0,61,62
 19 96 19 96 19 170 c 0,63,64
 19 270 19 270 103 341 c 256,65,66
 187 412 187 412 305 412 c 0,67,68
 385 412 385 412 442 401 c 0,69,70
 498 390 498 390 526 369 c 1,71,72
 547 390 547 390 581 401 c 0,73,74
 616 412 616 412 660 412 c 0,75,76
 767 412 767 412 831 355 c 256,77,78
 895 298 895 298 895 203 c 1,79,-1
 895 203 l 1,0,1
531 147 m 1,80,81
 531 189 531 189 515 227 c 256,82,83
 499 265 499 265 470 292 c 1,84,85
 443 263 443 263 429 225 c 0,86,87
 415 188 415 188 415 147 c 0,88,89
 415 99 415 99 430 71 c 0,90,91
 445 42 445 42 470 42 c 0,92,93
 498 42 498 42 514 71 c 0,94,95
 531 99 531 99 531 147 c 1,96,-1
 531 147 l 1,80,81
235 120 m 1,97,98
 235 153 235 153 219 176 c 0,99,100
 202 199 202 199 179 199 c 0,101,102
 158 199 158 199 144 176 c 0,103,104
 129 153 129 153 129 120 c 0,105,106
 129 84 129 84 144 58 c 0,107,108
 158 32 158 32 179 32 c 0,109,110
 202 32 202 32 219 58 c 0,111,112
 235 84 235 84 235 120 c 1,113,-1
 235 120 l 1,97,98
EndSplineSet
EndChar

StartChar: uni0BCD
Encoding: 305 3021 50
Width: 320
GlyphClass: 2
Flags: W
LayerCount: 2
Back
Fore
SplineSet
240 543 m 1,0,1
 240 514 240 514 216 493 c 0,2,3
 193 472 193 472 159 472 c 0,4,5
 126 472 126 472 103 493 c 256,6,7
 80 514 80 514 80 543 c 256,8,9
 80 572 80 572 103 592 c 0,10,11
 126 613 126 613 159 613 c 0,12,13
 193 613 193 613 216 592 c 0,14,15
 240 572 240 572 240 543 c 1,16,-1
 240 543 l 1,0,1
EndSplineSet
EndChar

StartChar: uni0BE6
Encoding: 307 3046 52
Width: 515
GlyphClass: 2
Flags: W
LayerCount: 2
Back
Fore
SplineSet
465 204 m 1,0,1
 465 118 465 118 404 57 c 256,2,3
 343 -4 343 -4 257 -4 c 256,4,5
 171 -4 171 -4 111 57 c 0,6,7
 50 118 50 118 50 204 c 0,8,9
 50 291 50 291 111 352 c 0,10,11
 171 413 171 413 257 413 c 256,12,13
 343 413 343 413 404 352 c 256,14,15
 465 291 465 291 465 204 c 1,16,-1
 465 204 l 1,0,1
335 204 m 1,17,18
 335 276 335 276 312 327 c 256,19,20
 289 378 289 378 257 378 c 256,21,22
 225 378 225 378 203 327 c 0,23,24
 180 276 180 276 180 204 c 256,25,26
 180 132 180 132 203 82 c 0,27,28
 225 31 225 31 257 31 c 256,29,30
 289 31 289 31 312 82 c 0,31,32
 335 132 335 132 335 204 c 1,33,-1
 335 204 l 1,17,18
EndSplineSet
EndChar

StartChar: uni0BE7
Encoding: 308 3047 53
Width: 707
GlyphClass: 2
Flags: W
LayerCount: 2
Back
Fore
SplineSet
50 134 m 1,0,1
 50 173 50 173 80 197 c 0,2,3
 110 220 110 220 160 220 c 2,4,-1
 175 220 l 1,5,-1
 175 400 l 1,6,-1
 559 400 l 1,7,-1
 559 370 l 1,8,-1
 450 370 l 1,9,-1
 450 220 l 1,10,-1
 532 220 l 2,11,12
 589 220 589 220 623 191 c 256,13,14
 657 162 657 162 657 114 c 0,15,16
 657 53 657 53 609 26 c 0,17,18
 561 0 561 0 451 0 c 1,19,-1
 451 30 l 1,20,21
 492 30 492 30 509 49 c 0,22,23
 527 68 527 68 527 113 c 0,24,25
 527 149 527 149 514 167 c 0,26,27
 502 185 502 185 477 185 c 2,28,-1
 450 185 l 1,29,-1
 450 131 l 2,30,31
 450 65 450 65 388 32 c 0,32,33
 326 -2 326 -2 204 -2 c 0,34,35
 140 -2 140 -2 95 38 c 256,36,37
 50 78 50 78 50 134 c 1,38,-1
 50 134 l 1,0,1
320 220 m 1,39,-1
 320 370 l 1,40,-1
 210 370 l 1,41,-1
 210 220 l 1,42,-1
 320 220 l 1,43,-1
 320 220 l 1,39,-1
320 138 m 1,44,-1
 320 185 l 1,45,-1
 152 185 l 2,46,47
 122 185 122 185 103 171 c 0,48,49
 85 158 85 158 85 135 c 0,50,51
 85 89 85 89 118 61 c 256,52,53
 151 33 151 33 205 33 c 0,54,55
 253 33 253 33 286 64 c 0,56,57
 320 95 320 95 320 138 c 1,58,-1
 320 138 l 1,44,-1
EndSplineSet
EndChar

StartChar: uni0BE8
Encoding: 309 3048 54
Width: 617
GlyphClass: 2
Flags: W
LayerCount: 2
Back
Fore
SplineSet
567 0 m 1,0,-1
 157 0 l 2,1,2
 113 0 113 0 81 19 c 0,3,4
 50 37 50 37 50 64 c 256,5,6
 50 91 50 91 77 111 c 0,7,8
 104 130 104 130 143 130 c 2,9,-1
 302 130 l 2,10,11
 342 130 342 130 371 166 c 0,12,13
 399 202 399 202 399 253 c 0,14,15
 399 302 399 302 363 337 c 0,16,17
 326 372 326 372 275 372 c 2,18,-1
 244 372 l 1,19,20
 283 365 283 365 308 340 c 256,21,22
 333 315 333 315 333 283 c 0,23,24
 333 235 333 235 297 206 c 256,25,26
 261 177 261 177 202 177 c 256,27,28
 143 177 143 177 107 205 c 256,29,30
 71 233 71 233 71 280 c 0,31,32
 71 342 71 342 125 380 c 0,33,34
 180 417 180 417 270 417 c 0,35,36
 377 417 377 417 453 369 c 0,37,38
 529 320 529 320 529 252 c 0,39,40
 529 181 529 181 468 138 c 256,41,42
 407 95 407 95 306 95 c 2,43,-1
 230 95 l 2,44,45
 209 95 209 95 194 86 c 0,46,47
 179 76 179 76 179 63 c 0,48,49
 179 49 179 49 194 40 c 0,50,51
 208 30 208 30 229 30 c 2,52,-1
 567 30 l 1,53,-1
 567 0 l 1,54,-1
 567 0 l 1,0,-1
203 283 m 1,55,56
 203 311 203 311 188 331 c 256,57,58
 173 351 173 351 152 351 c 0,59,60
 133 351 133 351 119 330 c 0,61,62
 106 308 106 308 106 278 c 0,63,64
 106 254 106 254 119 236 c 0,65,66
 133 219 133 219 152 219 c 0,67,68
 173 219 173 219 188 238 c 0,69,70
 203 256 203 256 203 283 c 1,71,-1
 203 283 l 1,55,56
EndSplineSet
EndChar

StartChar: uni0BE9
Encoding: 310 3049 55
Width: 690
GlyphClass: 2
Flags: W
LayerCount: 2
Back
Fore
SplineSet
640 0 m 1,0,-1
 223 0 l 1,1,-1
 223 30 l 1,2,-1
 389 30 l 1,3,4
 417 45 417 45 433 77 c 256,5,6
 449 109 449 109 449 149 c 0,7,8
 449 185 449 185 431 210 c 256,9,10
 413 235 413 235 388 235 c 0,11,12
 374 235 374 235 363 221 c 0,13,14
 353 207 353 207 353 187 c 2,15,-1
 353 110 l 1,16,-1
 223 110 l 1,17,-1
 223 370 l 1,18,-1
 85 370 l 1,19,-1
 85 0 l 1,20,-1
 50 0 l 1,21,-1
 50 400 l 1,22,-1
 514 400 l 1,23,-1
 514 370 l 1,24,-1
 353 370 l 1,25,-1
 353 257 l 1,26,27
 387 280 387 280 442 280 c 0,28,29
 504 280 504 280 542 243 c 0,30,31
 579 207 579 207 579 146 c 0,32,33
 579 110 579 110 553 78 c 256,34,35
 527 46 527 46 485 30 c 1,36,-1
 640 30 l 1,37,-1
 640 0 l 1,38,-1
 640 0 l 1,0,-1
EndSplineSet
EndChar

StartChar: uni0BEA
Encoding: 311 3050 56
Width: 700
GlyphClass: 2
Flags: W
LayerCount: 2
Back
Fore
SplineSet
650 185 m 1,0,-1
 450 185 l 1,1,-1
 450 131 l 2,2,3
 450 65 450 65 393 32 c 0,4,5
 336 -2 336 -2 224 -2 c 0,6,7
 145 -2 145 -2 98 35 c 0,8,9
 50 72 50 72 50 134 c 0,10,11
 50 173 50 173 80 197 c 0,12,13
 110 220 110 220 160 220 c 2,14,-1
 165 220 l 1,15,-1
 165 400 l 1,16,-1
 550 400 l 1,17,-1
 550 370 l 1,18,-1
 450 370 l 1,19,-1
 450 220 l 1,20,-1
 520 220 l 1,21,-1
 520 264 l 1,22,-1
 650 264 l 1,23,-1
 650 185 l 1,24,-1
 650 185 l 1,0,-1
320 220 m 1,25,-1
 320 370 l 1,26,-1
 200 370 l 1,27,-1
 200 220 l 1,28,-1
 320 220 l 1,29,-1
 320 220 l 1,25,-1
320 138 m 1,30,-1
 320 185 l 1,31,-1
 153 185 l 2,32,33
 122 185 122 185 104 171 c 0,34,35
 85 158 85 158 85 135 c 0,36,37
 85 89 85 89 123 61 c 256,38,39
 161 33 161 33 225 33 c 0,40,41
 268 33 268 33 294 62 c 0,42,43
 320 90 320 90 320 138 c 1,44,-1
 320 138 l 1,30,-1
EndSplineSet
EndChar

StartChar: uni0BEB
Encoding: 312 3051 57
Width: 853
GlyphClass: 2
Flags: W
LayerCount: 2
Back
Fore
SplineSet
50 200 m 1,0,1
 50 368 50 368 169 487 c 0,2,3
 287 606 287 606 455 606 c 0,4,5
 571 606 571 606 657 551 c 0,6,7
 742 496 742 496 757 411 c 1,8,-1
 726 411 l 1,9,10
 708 482 708 482 633 526 c 0,11,12
 557 571 557 571 455 571 c 0,13,14
 341 571 341 571 261 462 c 0,15,16
 180 354 180 354 180 200 c 0,17,18
 180 38 180 38 250 -59 c 0,19,20
 320 -157 320 -157 437 -157 c 0,21,22
 535 -157 535 -157 604 -93 c 0,23,24
 673 -30 673 -30 673 60 c 0,25,26
 673 113 673 113 652 151 c 0,27,28
 632 188 632 188 603 188 c 0,29,30
 591 188 591 188 582 176 c 0,31,32
 574 165 574 165 574 148 c 2,33,-1
 574 0 l 1,34,-1
 444 0 l 1,35,-1
 444 370 l 1,36,-1
 303 370 l 1,37,-1
 303 0 l 1,38,-1
 268 0 l 1,39,-1
 268 400 l 1,40,-1
 673 400 l 1,41,-1
 673 370 l 1,42,-1
 574 370 l 1,43,-1
 574 214 l 1,44,45
 611 238 611 238 655 238 c 0,46,47
 716 238 716 238 760 185 c 0,48,49
 803 133 803 133 803 58 c 0,50,51
 803 -46 803 -46 696 -119 c 0,52,53
 588 -192 588 -192 436 -192 c 0,54,55
 261 -192 261 -192 155 -85 c 0,56,57
 50 22 50 22 50 200 c 1,58,-1
 50 200 l 1,0,1
EndSplineSet
EndChar

StartChar: uni0BEC
Encoding: 313 3052 58
Width: 916
GlyphClass: 2
Flags: W
LayerCount: 2
Back
Fore
SplineSet
50 134 m 1,0,1
 50 173 50 173 77 197 c 0,2,3
 105 220 105 220 150 220 c 2,4,-1
 165 220 l 1,5,-1
 165 400 l 1,6,-1
 596 400 l 1,7,-1
 596 370 l 1,8,-1
 450 370 l 1,9,-1
 450 220 l 1,10,-1
 866 220 l 1,11,-1
 866 185 l 1,12,-1
 800 185 l 1,13,-1
 800 0 l 1,14,-1
 670 0 l 1,15,-1
 670 185 l 1,16,-1
 616 185 l 1,17,-1
 616 0 l 1,18,-1
 486 0 l 1,19,-1
 486 185 l 1,20,-1
 450 185 l 1,21,-1
 450 131 l 2,22,23
 450 65 450 65 392 32 c 0,24,25
 333 -2 333 -2 219 -2 c 0,26,27
 142 -2 142 -2 96 35 c 256,28,29
 50 72 50 72 50 134 c 1,30,-1
 50 134 l 1,0,1
320 220 m 1,31,-1
 320 370 l 1,32,-1
 200 370 l 1,33,-1
 200 220 l 1,34,-1
 320 220 l 1,35,-1
 320 220 l 1,31,-1
320 138 m 1,36,-1
 320 185 l 1,37,-1
 153 185 l 2,38,39
 122 185 122 185 104 171 c 0,40,41
 85 158 85 158 85 135 c 0,42,43
 85 89 85 89 122 61 c 256,44,45
 159 33 159 33 220 33 c 0,46,47
 265 33 265 33 293 62 c 0,48,49
 320 90 320 90 320 138 c 1,50,-1
 320 138 l 1,36,-1
EndSplineSet
EndChar

StartChar: uni0BED
Encoding: 314 3053 59
Width: 714
GlyphClass: 2
Flags: W
LayerCount: 2
Back
Fore
SplineSet
458 0 m 1,0,-1
 458 370 l 1,1,-1
 278 370 l 2,2,3
 198 370 198 370 142 314 c 0,4,5
 85 259 85 259 85 180 c 0,6,7
 85 132 85 132 103 96 c 0,8,9
 120 60 120 60 149 49 c 1,10,11
 135 66 135 66 128 85 c 0,12,13
 121 103 121 103 121 120 c 0,14,15
 121 178 121 178 166 219 c 0,16,17
 210 260 210 260 273 260 c 256,18,19
 336 260 336 260 380 220 c 0,20,21
 425 180 425 180 425 123 c 0,22,23
 425 68 425 68 377 29 c 0,24,25
 330 -10 330 -10 262 -10 c 0,26,27
 174 -10 174 -10 112 47 c 0,28,29
 50 103 50 103 50 183 c 0,30,31
 50 273 50 273 117 336 c 0,32,33
 184 400 184 400 278 400 c 2,34,-1
 664 400 l 1,35,-1
 664 370 l 1,36,-1
 588 370 l 1,37,-1
 588 0 l 1,38,-1
 458 0 l 1,39,-1
 458 0 l 1,0,-1
295 119 m 1,40,41
 295 153 295 153 274 176 c 0,42,43
 254 200 254 200 225 200 c 256,44,45
 196 200 196 200 176 176 c 0,46,47
 156 151 156 151 156 117 c 0,48,49
 156 84 156 84 176 60 c 0,50,51
 196 37 196 37 225 37 c 256,52,53
 254 37 254 37 274 61 c 0,54,55
 295 85 295 85 295 119 c 1,56,-1
 295 119 l 1,40,41
EndSplineSet
EndChar

StartChar: uni0BEE
Encoding: 315 3054 60
Width: 1003
GlyphClass: 2
Flags: W
LayerCount: 2
Back
Fore
SplineSet
50 27 m 1,0,1
 50 50 50 50 69 67 c 0,2,3
 87 83 87 83 114 83 c 2,4,-1
 614 83 l 1,5,6
 649 149 649 149 649 215 c 0,7,8
 649 282 649 282 612 330 c 0,9,10
 575 377 575 377 522 377 c 1,11,12
 554 358 554 358 573 329 c 0,13,14
 592 299 592 299 592 267 c 0,15,16
 592 208 592 208 550 173 c 256,17,18
 508 138 508 138 438 138 c 0,19,20
 369 138 369 138 327 175 c 256,21,22
 285 212 285 212 285 273 c 0,23,24
 285 336 285 336 347 374 c 0,25,26
 410 412 410 412 513 412 c 0,27,28
 634 412 634 412 706 358 c 0,29,30
 779 304 779 304 779 214 c 0,31,32
 779 136 779 136 752 83 c 1,33,-1
 823 83 l 1,34,-1
 823 400 l 1,35,-1
 953 400 l 1,36,-1
 953 -134 l 1,37,-1
 823 -134 l 1,38,-1
 823 48 l 1,39,-1
 734 48 l 1,40,41
 689 -30 689 -30 583 -75 c 256,42,43
 477 -120 477 -120 339 -120 c 0,44,45
 219 -120 219 -120 135 -77 c 0,46,47
 50 -34 50 -34 50 27 c 1,48,-1
 50 27 l 1,0,1
492 270 m 1,49,50
 492 306 492 306 466 332 c 256,51,52
 440 358 440 358 403 358 c 0,53,54
 369 358 369 358 344 332 c 0,55,56
 320 306 320 306 320 270 c 0,57,58
 320 236 320 236 344 212 c 0,59,60
 369 188 369 188 403 188 c 0,61,62
 440 188 440 188 466 212 c 256,63,64
 492 236 492 236 492 270 c 1,65,-1
 492 270 l 1,49,50
591 48 m 1,66,-1
 111 48 l 2,67,68
 100 48 100 48 93 42 c 0,69,70
 85 36 85 36 85 28 c 0,71,72
 85 -19 85 -19 153 -52 c 0,73,74
 220 -85 220 -85 316 -85 c 0,75,76
 404 -85 404 -85 477 -50 c 0,77,78
 551 -14 551 -14 591 48 c 1,79,-1
 591 48 l 1,66,-1
EndSplineSet
EndChar

StartChar: uni0BEF
Encoding: 316 3055 61
Width: 929
GlyphClass: 2
Flags: W
LayerCount: 2
Back
Fore
SplineSet
50 134 m 1,0,1
 50 170 50 170 79 195 c 0,2,3
 109 220 109 220 150 220 c 2,4,-1
 165 220 l 1,5,-1
 165 400 l 1,6,-1
 550 400 l 1,7,-1
 550 370 l 1,8,-1
 440 370 l 1,9,-1
 440 220 l 1,10,-1
 553 220 l 1,11,12
 607 258 607 258 685 258 c 0,13,14
 773 258 773 258 826 217 c 256,15,16
 879 176 879 176 879 108 c 0,17,18
 879 72 879 72 865 43 c 256,19,20
 851 14 851 14 826 0 c 1,21,-1
 713 0 l 1,22,-1
 713 30 l 1,23,24
 730 40 730 40 739 62 c 0,25,26
 749 84 749 84 749 112 c 0,27,28
 749 154 749 154 725 183 c 0,29,30
 700 213 700 213 666 213 c 0,31,32
 655 213 655 213 633 208 c 256,33,34
 611 203 611 203 622 203 c 0,35,36
 654 196 654 196 674 167 c 256,37,38
 694 138 694 138 694 101 c 0,39,40
 694 52 694 52 665 22 c 256,41,42
 636 -8 636 -8 587 -8 c 256,43,44
 538 -8 538 -8 509 21 c 0,45,46
 480 51 480 51 480 100 c 0,47,48
 480 127 480 127 489 149 c 256,49,50
 498 171 498 171 514 185 c 1,51,-1
 440 185 l 1,52,-1
 440 131 l 2,53,54
 440 73 440 73 375 33 c 0,55,56
 309 -8 309 -8 217 -8 c 0,57,58
 148 -8 148 -8 99 34 c 0,59,60
 50 75 50 75 50 134 c 1,61,-1
 50 134 l 1,0,1
310 220 m 1,62,-1
 310 370 l 1,63,-1
 200 370 l 1,64,-1
 200 220 l 1,65,-1
 310 220 l 1,66,-1
 310 220 l 1,62,-1
310 134 m 1,67,-1
 310 185 l 1,68,-1
 142 185 l 2,69,70
 118 185 118 185 102 170 c 0,71,72
 85 156 85 156 85 135 c 0,73,74
 85 90 85 90 121 59 c 0,75,76
 158 27 158 27 209 27 c 0,77,78
 251 27 251 27 280 58 c 0,79,80
 310 90 310 90 310 134 c 1,81,-1
 310 134 l 1,67,-1
609 102 m 1,82,83
 609 134 609 134 596 156 c 0,84,85
 583 179 583 179 564 179 c 0,86,87
 544 179 544 179 529 157 c 0,88,89
 515 134 515 134 515 103 c 256,90,91
 515 72 515 72 528 49 c 0,92,93
 541 27 541 27 559 27 c 0,94,95
 580 27 580 27 594 49 c 0,96,97
 609 71 609 71 609 102 c 1,98,-1
 609 102 l 1,82,83
EndSplineSet
EndChar

StartChar: uni0BF0
Encoding: 317 3056 62
Width: 600
GlyphClass: 2
Flags: W
LayerCount: 2
Back
Fore
SplineSet
576 230 m 1,0,1
 576 123 576 123 521 59 c 0,2,3
 467 -5 467 -5 376 -5 c 0,4,5
 336 -5 336 -5 303 14 c 256,6,7
 270 33 270 33 253 66 c 1,8,9
 242 34 242 34 211 15 c 0,10,11
 179 -5 179 -5 139 -5 c 0,12,13
 98 -5 98 -5 70 25 c 0,14,15
 41 55 41 55 41 98 c 2,16,-1
 41 400 l 1,17,-1
 76 400 l 1,18,-1
 76 98 l 2,19,20
 76 70 76 70 90 50 c 256,21,22
 104 30 104 30 123 30 c 0,23,24
 145 30 145 30 160 50 c 256,25,26
 175 70 175 70 175 98 c 2,27,-1
 175 400 l 1,28,-1
 305 400 l 1,29,-1
 305 97 l 2,30,31
 305 69 305 69 320 50 c 0,32,33
 335 30 335 30 356 30 c 0,34,35
 393 30 393 30 420 89 c 0,36,37
 446 148 446 148 446 231 c 0,38,39
 446 323 446 323 406 388 c 256,40,41
 366 453 366 453 310 453 c 2,42,-1
 41 453 l 1,43,-1
 41 488 l 1,44,-1
 320 488 l 2,45,46
 426 488 426 488 501 412 c 0,47,48
 576 337 576 337 576 230 c 1,49,-1
 576 230 l 1,0,1
EndSplineSet
EndChar

StartChar: uni0BF1
Encoding: 318 3057 63
Width: 628
GlyphClass: 2
Flags: W
LayerCount: 2
Back
Fore
SplineSet
40 0 m 1,0,-1
 40 309 l 2,1,2
 40 347 40 347 75 373 c 0,3,4
 111 400 111 400 161 400 c 256,5,6
 211 400 211 400 247 382 c 256,7,8
 283 364 283 364 292 335 c 1,9,10
 302 364 302 364 329 382 c 0,11,12
 355 400 355 400 388 400 c 2,13,-1
 625 400 l 1,14,-1
 625 370 l 1,15,-1
 566 370 l 1,16,-1
 566 0 l 1,17,-1
 436 0 l 1,18,-1
 436 370 l 1,19,-1
 398 370 l 2,20,21
 372 370 372 370 354 350 c 256,22,23
 336 330 336 330 336 301 c 2,24,-1
 336 0 l 1,25,-1
 206 0 l 1,26,-1
 206 305 l 2,27,28
 206 330 206 330 187 347 c 0,29,30
 167 365 167 365 140 365 c 256,31,32
 113 365 113 365 94 349 c 0,33,34
 75 332 75 332 75 309 c 2,35,-1
 75 0 l 1,36,-1
 40 0 l 1,37,-1
 40 0 l 1,0,-1
EndSplineSet
EndChar

StartChar: uni0BF2
Encoding: 319 3058 64
Width: 788
GlyphClass: 2
Flags: W
LayerCount: 2
Back
Fore
SplineSet
13 122 m 1,0,1
 13 161 13 161 41 188 c 256,2,3
 69 215 69 215 108 215 c 2,4,-1
 126 215 l 1,5,-1
 126 400 l 1,6,-1
 520 400 l 1,7,-1
 520 370 l 1,8,-1
 385 370 l 1,9,-1
 385 215 l 1,10,-1
 682 215 l 1,11,-1
 682 180 l 1,12,-1
 575 180 l 1,13,-1
 575 107 l 1,14,15
 618 129 618 129 665 129 c 256,16,17
 712 129 712 129 746 97 c 0,18,19
 779 65 779 65 779 20 c 0,20,21
 779 -51 779 -51 697 -94 c 0,22,23
 614 -137 614 -137 477 -137 c 2,24,-1
 173 -137 l 2,25,26
 140 -137 140 -137 117 -144 c 0,27,28
 94 -152 94 -152 89 -164 c 1,29,30
 115 -154 115 -154 138 -164 c 256,31,32
 161 -174 161 -174 161 -195 c 0,33,34
 161 -210 161 -210 140 -220 c 0,35,36
 119 -231 119 -231 90 -231 c 0,37,38
 71 -231 71 -231 57 -215 c 256,39,40
 43 -199 43 -199 43 -177 c 0,41,42
 43 -146 43 -146 81 -124 c 256,43,44
 119 -102 119 -102 173 -102 c 2,45,-1
 476 -102 l 2,46,47
 548 -102 548 -102 598 -69 c 0,48,49
 649 -36 649 -36 649 10 c 0,50,51
 649 39 649 39 636 59 c 0,52,53
 622 79 622 79 603 79 c 0,54,55
 591 79 591 79 583 69 c 0,56,57
 575 58 575 58 575 44 c 2,58,-1
 575 0 l 1,59,-1
 445 0 l 1,60,-1
 445 180 l 1,61,-1
 385 180 l 1,62,-1
 385 134 l 2,63,64
 385 76 385 76 322 36 c 0,65,66
 258 -5 258 -5 169 -5 c 0,67,68
 104 -5 104 -5 59 32 c 0,69,70
 13 69 13 69 13 122 c 1,71,-1
 13 122 l 1,0,1
255 215 m 1,72,-1
 255 370 l 1,73,-1
 161 370 l 1,74,-1
 161 215 l 1,75,-1
 255 215 l 1,76,-1
 255 215 l 1,72,-1
255 132 m 1,77,-1
 255 180 l 1,78,-1
 109 180 l 2,79,80
 84 180 84 180 66 164 c 0,81,82
 48 147 48 147 48 124 c 0,83,84
 48 92 48 92 73 66 c 0,85,86
 97 40 97 40 136 31 c 0,87,88
 182 21 182 21 218 52 c 0,89,90
 255 83 255 83 255 132 c 1,91,-1
 255 132 l 1,77,-1
EndSplineSet
EndChar

StartChar: uni0BF3
Encoding: 320 3059 65
Width: 740
GlyphClass: 2
Flags: W
LayerCount: 2
Back
Fore
SplineSet
20 182 m 1,0,1
 20 281 20 281 101 351 c 256,2,3
 182 421 182 421 297 421 c 256,4,5
 412 421 412 421 493 356 c 0,6,7
 574 290 574 290 574 198 c 0,8,9
 574 145 574 145 554 100 c 0,10,11
 534 56 534 56 499 30 c 1,12,-1
 737 30 l 1,13,-1
 737 0 l 1,14,-1
 357 0 l 1,15,-1
 357 27 l 1,16,17
 397 46 397 46 420 92 c 0,18,19
 444 138 444 138 444 196 c 0,20,21
 444 271 444 271 387 323 c 0,22,23
 330 376 330 376 249 376 c 0,24,25
 169 376 169 376 112 319 c 256,26,27
 55 262 55 262 55 182 c 0,28,29
 55 137 55 137 72 100 c 0,30,31
 90 64 90 64 120 44 c 1,32,33
 107 59 107 59 101 79 c 0,34,35
 94 100 94 100 94 123 c 0,36,37
 94 180 94 180 131 214 c 0,38,39
 167 248 167 248 228 248 c 256,40,41
 289 248 289 248 325 214 c 0,42,43
 362 179 362 179 362 122 c 256,44,45
 362 65 362 65 317 30 c 0,46,47
 271 -4 271 -4 196 -4 c 0,48,49
 116 -4 116 -4 68 47 c 256,50,51
 20 98 20 98 20 182 c 1,52,-1
 20 182 l 1,0,1
232 119 m 1,53,54
 232 150 232 150 217 171 c 0,55,56
 202 193 202 193 180 193 c 0,57,58
 159 193 159 193 144 172 c 0,59,60
 129 150 129 150 129 120 c 0,61,62
 129 89 129 89 143 68 c 0,63,64
 158 46 158 46 178 46 c 0,65,66
 200 46 200 46 216 67 c 0,67,68
 232 89 232 89 232 119 c 1,69,-1
 232 119 l 1,53,54
EndSplineSet
EndChar

StartChar: uni0BF4
Encoding: 321 3060 66
Width: 667
GlyphClass: 2
Flags: W
LayerCount: 2
Back
Fore
SplineSet
391 467 m 1,0,1
 391 510 391 510 433 541 c 0,2,3
 476 571 476 571 536 571 c 1,4,5
 561 596 561 596 599 609 c 256,6,7
 637 622 637 622 682 622 c 0,8,9
 739 622 739 622 782 596 c 1,10,11
 827 622 827 622 871 622 c 0,12,13
 896 622 896 622 917 614 c 256,14,15
 938 606 938 606 951 591 c 1,16,-1
 936 573 l 1,17,18
 911 587 911 587 869 587 c 0,19,20
 859 587 859 587 839 577 c 1,21,22
 857 568 857 568 868 555 c 0,23,24
 879 541 879 541 879 527 c 0,25,26
 879 501 879 501 853 483 c 0,27,28
 826 465 826 465 789 465 c 0,29,30
 753 465 753 465 727 485 c 0,31,32
 702 504 702 504 702 532 c 0,33,34
 702 545 702 545 711 558 c 0,35,36
 720 570 720 570 735 578 c 1,37,38
 726 585 726 585 712 588 c 0,39,40
 698 592 698 592 679 592 c 0,41,42
 652 592 652 592 632 586 c 256,43,44
 612 580 612 580 602 569 c 1,45,46
 633 569 633 569 655 549 c 256,47,48
 677 529 677 529 677 500 c 0,49,50
 677 473 677 473 649 455 c 0,51,52
 621 436 621 436 581 436 c 0,53,54
 542 436 542 436 514 454 c 256,55,56
 486 472 486 472 486 498 c 0,57,58
 486 512 486 512 491 523 c 0,59,60
 497 534 497 534 506 541 c 1,61,62
 473 541 473 541 449 519 c 0,63,64
 426 497 426 497 426 466 c 0,65,66
 426 449 426 449 434 432 c 0,67,68
 441 415 441 415 455 401 c 1,69,-1
 483 401 l 2,70,71
 555 401 555 401 599 340 c 0,72,73
 642 280 642 280 642 179 c 0,74,75
 642 98 642 98 609 49 c 0,76,77
 577 0 577 0 523 0 c 2,78,-1
 45 0 l 1,79,-1
 45 400 l 1,80,-1
 175 400 l 1,81,-1
 175 30 l 1,82,-1
 319 30 l 1,83,-1
 319 271 l 2,84,85
 319 315 319 315 347 350 c 0,86,87
 375 386 375 386 420 400 c 1,88,89
 406 417 406 417 398 435 c 0,90,91
 391 452 391 452 391 467 c 1,92,-1
 391 467 l 1,0,1
596 500 m 1,93,94
 596 515 596 515 584 525 c 0,95,96
 573 536 573 536 556 536 c 1,97,98
 541 532 541 532 531 522 c 0,99,100
 521 513 521 513 521 501 c 256,101,102
 521 489 521 489 531 480 c 0,103,104
 542 471 542 471 556 471 c 0,105,106
 573 471 573 471 584 479 c 0,107,108
 596 488 596 488 596 500 c 1,109,-1
 596 500 l 1,93,94
809 527 m 1,110,111
 809 542 809 542 803 552 c 0,112,113
 796 563 796 563 787 563 c 256,114,115
 778 563 778 563 772 552 c 0,116,117
 766 542 766 542 766 527 c 0,118,119
 766 516 766 516 772 508 c 256,120,121
 778 500 778 500 787 500 c 256,122,123
 796 500 796 500 803 508 c 0,124,125
 809 516 809 516 809 527 c 1,126,-1
 809 527 l 1,110,111
426 275 m 1,127,-1
 426 30 l 1,128,-1
 512 30 l 2,129,130
 555 30 555 30 581 71 c 256,131,132
 607 112 607 112 607 180 c 0,133,134
 607 267 607 267 575 319 c 256,135,136
 543 371 543 371 490 371 c 0,137,138
 463 371 463 371 445 343 c 0,139,140
 426 315 426 315 426 275 c 1,141,-1
 426 275 l 1,127,-1
EndSplineSet
EndChar

StartChar: uni0BF5
Encoding: 322 3061 67
Width: 1410
GlyphClass: 2
Flags: W
LayerCount: 2
Back
Fore
SplineSet
116 182 m 1,0,1
 116 276 116 276 184 343 c 256,2,3
 252 410 252 410 349 410 c 0,4,5
 456 410 456 410 531 351 c 0,6,7
 607 292 607 292 607 209 c 0,8,9
 607 153 607 153 584 106 c 256,10,11
 561 59 561 59 520 31 c 1,12,-1
 693 31 l 1,13,-1
 693 400 l 1,14,-1
 1100 400 l 1,15,-1
 1100 370 l 1,16,-1
 997 370 l 1,17,-1
 997 205 l 1,18,19
 1008 216 1008 216 1025 221 c 0,20,21
 1043 227 1043 227 1066 227 c 0,22,23
 1126 227 1126 227 1168 185 c 0,24,25
 1210 142 1210 142 1210 82 c 0,26,27
 1210 -66 1210 -66 1056 -156 c 0,28,29
 902 -245 902 -245 646 -245 c 0,30,31
 366 -245 366 -245 197 -118 c 256,32,33
 28 9 28 9 28 220 c 0,34,35
 28 411 28 411 216 527 c 0,36,37
 404 642 404 642 716 642 c 0,38,39
 908 642 908 642 1044 576 c 0,40,41
 1180 511 1180 511 1180 418 c 2,42,-1
 1180 333 l 2,43,44
 1180 319 1180 319 1190 308 c 0,45,46
 1199 298 1199 298 1213 298 c 2,47,-1
 1248 298 l 2,48,49
 1256 298 1256 298 1261 309 c 0,50,51
 1267 320 1267 320 1267 335 c 2,52,-1
 1267 400 l 1,53,-1
 1397 400 l 1,54,-1
 1397 335 l 2,55,56
 1397 305 1397 305 1373 284 c 0,57,58
 1348 263 1348 263 1314 263 c 2,59,-1
 1214 263 l 2,60,61
 1185 263 1185 263 1165 283 c 256,62,63
 1145 303 1145 303 1145 331 c 2,64,-1
 1145 418 l 2,65,66
 1145 504 1145 504 1028 555 c 0,67,68
 912 607 912 607 718 607 c 0,69,70
 421 607 421 607 242 501 c 256,71,72
 63 395 63 395 63 219 c 0,73,74
 63 27 63 27 222 -89 c 256,75,76
 381 -205 381 -205 645 -205 c 0,77,78
 842 -205 842 -205 961 -126 c 0,79,80
 1080 -48 1080 -48 1080 83 c 0,81,82
 1080 122 1080 122 1064 149 c 0,83,84
 1048 177 1048 177 1026 177 c 0,85,86
 1014 177 1014 177 1005 169 c 0,87,88
 997 162 997 162 997 151 c 2,89,-1
 997 0 l 1,90,-1
 867 0 l 1,91,-1
 867 370 l 1,92,-1
 728 370 l 1,93,-1
 728 0 l 1,94,-1
 421 0 l 1,95,-1
 421 30 l 1,96,97
 447 49 447 49 462 92 c 256,98,99
 477 135 477 135 477 192 c 0,100,101
 477 266 477 266 428 318 c 0,102,103
 380 370 380 370 311 370 c 0,104,105
 245 370 245 370 198 316 c 0,106,107
 151 261 151 261 151 184 c 0,108,109
 151 134 151 134 169 95 c 0,110,111
 187 57 187 57 218 42 c 1,112,113
 204 57 204 57 197 77 c 0,114,115
 189 97 189 97 189 120 c 0,116,117
 189 168 189 168 226 202 c 256,118,119
 263 236 263 236 315 236 c 256,120,121
 367 236 367 236 404 201 c 256,122,123
 441 166 441 166 441 116 c 0,124,125
 441 64 441 64 400 27 c 0,126,127
 360 -10 360 -10 302 -10 c 0,128,129
 225 -10 225 -10 170 46 c 0,130,131
 116 102 116 102 116 182 c 1,132,-1
 116 182 l 1,0,1
311 114 m 1,133,134
 311 144 311 144 298 165 c 0,135,136
 284 186 284 186 265 186 c 0,137,138
 248 186 248 186 236 166 c 0,139,140
 224 147 224 147 224 119 c 256,141,142
 224 91 224 91 236 72 c 0,143,144
 248 52 248 52 265 52 c 0,145,146
 284 52 284 52 298 70 c 0,147,148
 311 88 311 88 311 114 c 1,149,-1
 311 114 l 1,133,134
EndSplineSet
EndChar

StartChar: uni0BF6
Encoding: 323 3062 68
Width: 828
GlyphClass: 2
Flags: W
LayerCount: 2
Back
Fore
SplineSet
394 -98 m 1,0,-1
 129 -98 l 2,1,2
 109 -98 109 -98 94 -104 c 0,3,4
 80 -110 80 -110 80 -118 c 0,5,6
 71 -139 71 -139 123 -158 c 256,7,8
 175 -177 175 -177 242 -177 c 0,9,10
 299 -177 299 -177 342 -155 c 0,11,12
 384 -133 384 -133 394 -98 c 1,13,-1
 394 -98 l 1,0,-1
45 0 m 1,14,-1
 45 400 l 1,15,-1
 175 400 l 1,16,-1
 175 32 l 1,17,-1
 394 32 l 1,18,-1
 394 400 l 1,19,-1
 524 400 l 1,20,-1
 524 -63 l 1,21,-1
 653 -63 l 1,22,-1
 653 400 l 1,23,-1
 783 400 l 1,24,-1
 783 -98 l 1,25,-1
 485 -98 l 1,26,27
 485 -145 485 -145 414 -179 c 0,28,29
 343 -212 343 -212 242 -212 c 0,30,31
 160 -212 160 -212 103 -185 c 0,32,33
 45 -158 45 -158 45 -120 c 0,34,35
 45 -96 45 -96 70 -80 c 0,36,37
 95 -63 95 -63 130 -63 c 2,38,-1
 394 -63 l 1,39,-1
 394 0 l 1,40,-1
 45 0 l 1,41,-1
 45 0 l 1,14,-1
EndSplineSet
EndChar

StartChar: uni0BF7
Encoding: 324 3063 69
Width: 1159
GlyphClass: 2
Flags: W
LayerCount: 2
Back
Fore
SplineSet
19 184 m 1,0,1
 19 273 19 273 99 337 c 0,2,3
 178 400 178 400 291 400 c 2,4,-1
 705 400 l 1,5,-1
 705 370 l 1,6,-1
 620 370 l 1,7,-1
 620 218 l 1,8,-1
 730 218 l 2,9,10
 763 218 763 218 787 200 c 0,11,12
 810 183 810 183 810 158 c 1,13,14
 824 186 824 186 856 202 c 0,15,16
 887 218 887 218 927 218 c 0,17,18
 985 218 985 218 1026 187 c 0,19,20
 1067 155 1067 155 1067 111 c 0,21,22
 1067 83 1067 83 1055 60 c 256,23,24
 1043 37 1043 37 1023 25 c 1,25,-1
 1156 25 l 1,26,-1
 1156 0 l 1,27,-1
 870 0 l 1,28,-1
 870 29 l 1,29,30
 899 36 899 36 918 59 c 0,31,32
 937 83 937 83 937 113 c 0,33,34
 937 136 937 136 919 152 c 0,35,36
 900 168 900 168 874 168 c 0,37,38
 850 168 850 168 832 147 c 0,39,40
 815 127 815 127 815 98 c 2,41,-1
 815 0 l 1,42,-1
 685 0 l 1,43,-1
 685 183 l 1,44,-1
 620 183 l 1,45,-1
 620 0 l 1,46,-1
 490 0 l 1,47,-1
 490 370 l 1,48,-1
 292 370 l 2,49,50
 193 370 193 370 124 316 c 0,51,52
 54 262 54 262 54 185 c 0,53,54
 54 139 54 139 71 103 c 0,55,56
 88 66 88 66 118 50 c 1,57,58
 106 63 106 63 100 84 c 0,59,60
 94 104 94 104 94 129 c 0,61,62
 94 190 94 190 135 226 c 0,63,64
 175 263 175 263 243 263 c 256,65,66
 311 263 311 263 352 227 c 0,67,68
 393 190 393 190 393 130 c 0,69,70
 393 66 393 66 341 28 c 0,71,72
 290 -10 290 -10 204 -10 c 0,73,74
 127 -10 127 -10 73 47 c 256,75,76
 19 104 19 104 19 184 c 1,77,-1
 19 184 l 1,0,1
263 119 m 1,78,79
 263 154 263 154 242 178 c 0,80,81
 222 203 222 203 193 203 c 0,82,83
 166 203 166 203 148 178 c 0,84,85
 129 153 129 153 129 117 c 0,86,87
 129 79 129 79 148 52 c 0,88,89
 166 25 166 25 193 25 c 0,90,91
 222 25 222 25 242 53 c 0,92,93
 263 80 263 80 263 119 c 1,94,-1
 263 119 l 1,78,79
EndSplineSet
EndChar

StartChar: uni0BF8
Encoding: 325 3064 70
Width: 1285
GlyphClass: 2
Flags: W
LayerCount: 2
Back
Fore
SplineSet
26 274 m 1,0,1
 26 407 26 407 112 501 c 256,2,3
 198 595 198 595 320 595 c 0,4,5
 429 595 429 595 512 517 c 256,6,7
 595 439 595 439 612 321 c 1,8,9
 620 324 620 324 653 324 c 0,10,11
 737 324 737 324 797 274 c 0,12,13
 856 224 856 224 856 154 c 0,14,15
 856 115 856 115 844 84 c 0,16,17
 831 53 831 53 809 37 c 1,18,-1
 989 37 l 1,19,20
 940 63 940 63 911 115 c 0,21,22
 882 166 882 166 882 228 c 0,23,24
 882 298 882 298 925 348 c 0,25,26
 969 397 969 397 1030 397 c 0,27,28
 1088 397 1088 397 1129 363 c 0,29,30
 1170 328 1170 328 1170 280 c 2,31,-1
 1170 37 l 1,32,-1
 1281 37 l 1,33,-1
 1281 0 l 1,34,-1
 1170 0 l 1,35,-1
 1170 -209 l 1,36,-1
 1040 -209 l 1,37,-1
 1040 0 l 1,38,-1
 660 0 l 1,39,-1
 660 38 l 1,40,41
 690 51 690 51 708 85 c 0,42,43
 726 118 726 118 726 161 c 0,44,45
 726 214 726 214 703 252 c 0,46,47
 681 289 681 289 649 289 c 0,48,49
 627 289 627 289 618 286 c 1,50,51
 635 227 635 227 635 128 c 0,52,53
 635 75 635 75 602 37 c 0,54,55
 569 0 569 0 522 0 c 0,56,57
 473 0 473 0 439 37 c 0,58,59
 404 74 404 74 404 127 c 0,60,61
 404 185 404 185 429 231 c 0,62,63
 455 278 455 278 498 300 c 1,64,65
 480 412 480 412 423 486 c 0,66,67
 367 560 367 560 298 560 c 0,68,69
 200 560 200 560 130 477 c 0,70,71
 61 394 61 394 61 276 c 0,72,73
 61 202 61 202 77 146 c 0,74,75
 92 91 92 91 121 63 c 1,76,77
 107 92 107 92 107 124 c 0,78,79
 107 180 107 180 144 220 c 0,80,81
 182 260 182 260 235 260 c 256,82,83
 288 260 288 260 326 220 c 0,84,85
 363 181 363 181 363 125 c 256,86,87
 363 69 363 69 322 30 c 0,88,89
 280 -10 280 -10 222 -10 c 0,90,91
 141 -10 141 -10 83 73 c 0,92,93
 26 156 26 156 26 274 c 1,94,-1
 26 274 l 1,0,1
233 118 m 1,95,96
 233 154 233 154 219 180 c 0,97,98
 205 205 205 205 185 205 c 0,99,100
 167 205 167 205 155 181 c 0,101,102
 142 158 142 158 142 124 c 0,103,104
 142 88 142 88 155 62 c 0,105,106
 167 37 167 37 185 37 c 0,107,108
 205 37 205 37 219 61 c 0,109,110
 233 84 233 84 233 118 c 1,111,-1
 233 118 l 1,95,96
515 130 m 1,112,113
 515 194 515 194 503 256 c 1,114,115
 473 237 473 237 456 204 c 256,116,117
 439 171 439 171 439 131 c 0,118,119
 439 98 439 98 452 75 c 0,120,121
 464 52 464 52 482 52 c 0,122,123
 496 52 496 52 505 75 c 0,124,125
 515 98 515 98 515 130 c 1,126,-1
 515 130 l 1,112,113
1040 41 m 1,127,-1
 1040 286 l 2,128,129
 1040 311 1040 311 1027 329 c 0,130,131
 1013 347 1013 347 994 347 c 0,132,133
 962 347 962 347 940 310 c 0,134,135
 917 273 917 273 917 221 c 0,136,137
 917 159 917 159 951 110 c 0,138,139
 985 60 985 60 1040 41 c 1,140,-1
 1040 41 l 1,127,-1
EndSplineSet
EndChar

StartChar: uni0BF9
Encoding: 326 3065 71
Width: 1050
GlyphClass: 2
Flags: W
LayerCount: 2
Back
Fore
SplineSet
30 200 m 1,0,1
 30 368 30 368 144 487 c 256,2,3
 258 606 258 606 420 606 c 0,4,5
 532 606 532 606 617 559 c 256,6,7
 702 512 702 512 728 436 c 1,8,9
 740 469 740 469 770 490 c 0,10,11
 801 510 801 510 838 510 c 0,12,13
 894 510 894 510 934 478 c 256,14,15
 974 446 974 446 974 400 c 1,16,-1
 1047 400 l 1,17,-1
 1047 374 l 1,18,-1
 888 374 l 1,19,20
 888 416 888 416 869 445 c 0,21,22
 850 475 850 475 823 475 c 0,23,24
 800 475 800 475 781 449 c 256,25,26
 762 423 762 423 756 384 c 1,27,-1
 708 384 l 1,28,29
 695 465 695 465 613 518 c 0,30,31
 532 571 532 571 420 571 c 0,32,33
 312 571 312 571 236 462 c 0,34,35
 160 354 160 354 160 200 c 0,36,37
 160 38 160 38 230 -59 c 0,38,39
 300 -157 300 -157 417 -157 c 0,40,41
 515 -157 515 -157 584 -93 c 0,42,43
 653 -30 653 -30 653 60 c 0,44,45
 653 113 653 113 634 151 c 0,46,47
 615 188 615 188 588 188 c 0,48,49
 574 188 574 188 564 176 c 0,50,51
 554 165 554 165 554 148 c 2,52,-1
 554 0 l 1,53,-1
 424 0 l 1,54,-1
 424 370 l 1,55,-1
 283 370 l 1,56,-1
 283 0 l 1,57,-1
 248 0 l 1,58,-1
 248 400 l 1,59,-1
 653 400 l 1,60,-1
 653 370 l 1,61,-1
 554 370 l 1,62,-1
 554 214 l 1,63,64
 569 228 569 228 590 235 c 0,65,66
 611 243 611 243 635 243 c 0,67,68
 702 243 702 243 743 192 c 0,69,70
 783 142 783 142 783 58 c 0,71,72
 783 -55 783 -55 683 -124 c 0,73,74
 583 -192 583 -192 416 -192 c 0,75,76
 241 -192 241 -192 135 -85 c 0,77,78
 30 22 30 22 30 200 c 1,79,-1
 30 200 l 1,0,1
EndSplineSet
EndChar

StartChar: uni0BFA
Encoding: 327 3066 72
Width: 1057
GlyphClass: 2
Flags: W
LayerCount: 2
Back
Fore
SplineSet
45 0 m 1,0,-1
 45 400 l 1,1,-1
 282 400 l 1,2,3
 266 413 266 413 258 433 c 0,4,5
 249 453 249 453 249 476 c 0,6,7
 249 530 249 530 304 568 c 0,8,9
 360 606 360 606 438 606 c 0,10,11
 546 606 546 606 629 548 c 0,12,13
 712 491 712 491 735 400 c 1,14,15
 839 400 839 400 912 344 c 256,16,17
 985 288 985 288 985 208 c 0,18,19
 985 149 985 149 936 100 c 0,20,21
 886 50 886 50 808 31 c 1,22,-1
 1053 31 l 1,23,-1
 1053 0 l 1,24,-1
 662 0 l 1,25,-1
 662 29 l 1,26,27
 742 29 742 29 798 82 c 0,28,29
 855 136 855 136 855 211 c 0,30,31
 855 277 855 277 821 323 c 0,32,33
 788 370 788 370 740 370 c 1,34,35
 750 330 750 330 750 287 c 0,36,37
 750 235 750 235 718 203 c 0,38,39
 687 172 687 172 634 172 c 0,40,41
 584 172 584 172 553 202 c 0,42,43
 523 232 523 232 523 282 c 0,44,45
 523 331 523 331 576 365 c 0,46,47
 628 400 628 400 703 400 c 1,48,49
 679 470 679 470 612 514 c 0,50,51
 546 557 546 557 462 557 c 0,52,53
 395 557 395 557 347 528 c 0,54,55
 300 499 300 499 300 458 c 0,56,57
 300 438 300 438 305 423 c 0,58,59
 311 408 311 408 320 400 c 1,60,-1
 511 400 l 1,61,-1
 511 370 l 1,62,-1
 348 370 l 1,63,-1
 348 251 l 1,64,65
 355 256 355 256 368 259 c 0,66,67
 380 262 380 262 397 262 c 0,68,69
 449 262 449 262 486 226 c 256,70,71
 523 190 523 190 523 139 c 0,72,73
 523 81 523 81 483 41 c 0,74,75
 443 0 443 0 386 0 c 2,76,-1
 218 0 l 1,77,-1
 218 31 l 1,78,-1
 340 31 l 2,79,80
 376 31 376 31 402 63 c 0,81,82
 428 94 428 94 428 139 c 0,83,84
 428 175 428 175 415 201 c 0,85,86
 401 227 401 227 382 227 c 0,87,88
 368 227 368 227 358 215 c 0,89,90
 348 202 348 202 348 185 c 2,91,-1
 348 106 l 1,92,-1
 218 106 l 1,93,-1
 218 370 l 1,94,-1
 80 370 l 1,95,-1
 80 0 l 1,96,-1
 45 0 l 1,97,-1
 45 0 l 1,0,-1
715 290 m 1,98,99
 715 335 715 335 707 370 c 1,100,101
 685 370 685 370 669 346 c 256,102,103
 653 322 653 322 653 288 c 0,104,105
 653 268 653 268 663 254 c 256,106,107
 673 240 673 240 687 240 c 0,108,109
 699 240 699 240 707 255 c 0,110,111
 715 269 715 269 715 290 c 1,112,-1
 715 290 l 1,98,99
EndSplineSet
EndChar

StartChar: uni0964
Encoding: 328 2404 73
Width: 265
GlyphClass: 2
Flags: W
LayerCount: 2
Back
Fore
SplineSet
220 0 m 1,0,-1
 90 0 l 1,1,-1
 90 400 l 1,2,-1
 220 400 l 1,3,-1
 220 0 l 1,4,-1
 220 0 l 1,0,-1
EndSplineSet
EndChar

StartChar: uni0965
Encoding: 329 2405 74
Width: 485
GlyphClass: 2
Flags: W
LayerCount: 2
Back
Fore
SplineSet
440 0 m 1,0,-1
 310 0 l 1,1,-1
 310 400 l 1,2,-1
 440 400 l 1,3,-1
 440 0 l 1,4,-1
 440 0 l 1,0,-1
220 0 m 1,5,-1
 90 0 l 1,6,-1
 90 400 l 1,7,-1
 220 400 l 1,8,-1
 220 0 l 1,9,-1
 220 0 l 1,5,-1
EndSplineSet
EndChar

StartChar: uni0BB6
Encoding: 330 2998 75
Width: 761
GlyphClass: 2
Flags: W
LayerCount: 2
Back
Fore
SplineSet
38 130 m 1,0,-1
 38 400 l 1,1,-1
 73 400 l 1,2,-1
 73 130 l 2,3,4
 73 102 73 102 93 82 c 256,5,6
 113 62 113 62 142 62 c 0,7,8
 173 62 173 62 195 82 c 256,9,10
 217 102 217 102 217 130 c 2,11,-1
 217 400 l 1,12,-1
 724 400 l 1,13,-1
 724 131 l 2,14,15
 724 77 724 77 674 38 c 0,16,17
 624 0 624 0 554 0 c 0,18,19
 496 0 496 0 456 38 c 0,20,21
 415 77 415 77 415 131 c 2,22,-1
 415 370 l 1,23,-1
 347 370 l 1,24,-1
 347 133 l 2,25,26
 347 78 347 78 297 39 c 256,27,28
 247 0 247 0 177 0 c 0,29,30
 119 0 119 0 79 38 c 0,31,32
 38 76 38 76 38 130 c 1,33,-1
 38 130 l 1,0,-1
450 370 m 1,34,-1
 450 131 l 2,35,36
 450 102 450 102 470 82 c 256,37,38
 490 62 490 62 519 62 c 0,39,40
 550 62 550 62 572 82 c 256,41,42
 594 102 594 102 594 131 c 2,43,-1
 594 370 l 1,44,-1
 450 370 l 1,45,-1
 450 370 l 1,34,-1
EndSplineSet
EndChar

StartChar: uni0BD0
Encoding: 331 3024 76
Width: 768
GlyphClass: 2
Flags: W
LayerCount: 2
Back
Fore
SplineSet
18 156 m 1,0,1
 18 262 18 262 109 326 c 0,2,3
 201 390 201 390 353 390 c 0,4,5
 534 390 534 390 642 326 c 0,6,7
 751 261 751 261 751 154 c 0,8,9
 751 88 751 88 699 48 c 256,10,11
 647 8 647 8 560 8 c 0,12,13
 514 8 514 8 482 37 c 0,14,15
 449 67 449 67 449 108 c 0,16,17
 449 121 449 121 454 131 c 1,18,19
 436 118 436 118 425 94 c 0,20,21
 415 70 415 70 415 40 c 0,22,23
 415 -5 415 -5 466 -37 c 0,24,25
 518 -69 518 -69 590 -69 c 2,26,-1
 699 -69 l 1,27,-1
 699 -104 l 1,28,-1
 594 -104 l 2,29,30
 565 -104 565 -104 544 -125 c 256,31,32
 523 -146 523 -146 523 -176 c 0,33,34
 523 -224 523 -224 447 -253 c 0,35,36
 372 -282 372 -282 246 -282 c 0,37,38
 140 -282 140 -282 76 -240 c 0,39,40
 12 -199 12 -199 12 -130 c 0,41,42
 12 -95 12 -95 34 -70 c 0,43,44
 57 -45 57 -45 88 -45 c 0,45,46
 113 -45 113 -45 131 -63 c 0,47,48
 149 -80 149 -80 149 -105 c 2,49,-1
 149 -148 l 1,50,-1
 224 -148 l 1,51,-1
 224 -111 l 2,52,53
 224 -87 224 -87 245 -71 c 0,54,55
 267 -54 267 -54 297 -54 c 0,56,57
 332 -54 332 -54 356 -77 c 0,58,59
 381 -100 381 -100 381 -133 c 2,60,-1
 381 -183 l 1,61,-1
 114 -183 l 1,62,-1
 114 -105 l 2,63,64
 114 -95 114 -95 106 -87 c 0,65,66
 99 -80 99 -80 88 -80 c 0,67,68
 71 -80 71 -80 59 -94 c 0,69,70
 47 -109 47 -109 47 -129 c 0,71,72
 47 -183 47 -183 102 -215 c 0,73,74
 156 -247 156 -247 247 -247 c 0,75,76
 313 -247 313 -247 353 -224 c 0,77,78
 393 -202 393 -202 393 -164 c 0,79,80
 393 -129 393 -129 415 -105 c 0,81,82
 436 -80 436 -80 467 -80 c 1,83,84
 429 -70 429 -70 404 -36 c 0,85,86
 380 -2 380 -2 380 43 c 0,87,88
 380 97 380 97 415 135 c 0,89,90
 451 173 451 173 501 173 c 1,91,92
 493 164 493 164 488 147 c 0,93,94
 484 130 484 130 484 109 c 0,95,96
 484 82 484 82 503 62 c 0,97,98
 523 43 523 43 550 43 c 0,99,100
 579 43 579 43 600 75 c 256,101,102
 621 107 621 107 621 153 c 0,103,104
 621 237 621 237 541 296 c 0,105,106
 460 355 460 355 347 355 c 0,107,108
 225 355 225 355 139 297 c 0,109,110
 53 238 53 238 53 156 c 0,111,112
 53 112 53 112 74 76 c 0,113,114
 95 41 95 41 130 28 c 1,115,116
 118 39 118 39 111 59 c 256,117,118
 104 79 104 79 104 105 c 0,119,120
 104 154 104 154 138 188 c 0,121,122
 172 223 172 223 220 223 c 256,123,124
 268 223 268 223 302 189 c 0,125,126
 336 154 336 154 336 106 c 256,127,128
 336 58 336 58 298 24 c 256,129,130
 260 -10 260 -10 206 -10 c 0,131,132
 128 -10 128 -10 73 39 c 0,133,134
 18 87 18 87 18 156 c 1,135,-1
 18 156 l 1,0,1
246 96 m 1,136,137
 246 128 246 128 230 150 c 0,138,139
 213 173 213 173 190 173 c 0,140,141
 169 173 169 173 154 150 c 0,142,143
 139 128 139 128 139 96 c 0,144,145
 139 67 139 67 154 46 c 256,146,147
 169 25 169 25 190 25 c 0,148,149
 213 25 213 25 230 46 c 0,150,151
 246 67 246 67 246 96 c 1,152,-1
 246 96 l 1,136,137
366 -13 m 1,153,154
 366 -26 366 -26 356 -36 c 0,155,156
 347 -45 347 -45 333 -45 c 0,157,158
 320 -45 320 -45 310 -36 c 0,159,160
 301 -26 301 -26 301 -13 c 0,161,162
 301 1 301 1 310 10 c 0,163,164
 320 20 320 20 333 20 c 0,165,166
 347 20 347 20 356 10 c 0,167,168
 366 1 366 1 366 -13 c 1,169,-1
 366 -13 l 1,153,154
346 -134 m 1,170,171
 346 -115 346 -115 337 -102 c 256,172,173
 328 -89 328 -89 315 -89 c 0,174,175
 305 -89 305 -89 297 -95 c 0,176,177
 290 -101 290 -101 290 -109 c 2,178,-1
 290 -148 l 1,179,-1
 346 -148 l 1,180,-1
 346 -134 l 1,181,-1
 346 -134 l 1,170,171
EndSplineSet
EndChar

StartChar: uni20B9
Encoding: 332 8377 77
Width: 651
GlyphClass: 2
Flags: W
LayerCount: 2
Back
Fore
SplineSet
45 438 m 1,0,-1
 45 480 l 1,1,-1
 606 480 l 1,2,-1
 606 438 l 1,3,-1
 400 438 l 1,4,5
 427 422 427 422 444 397 c 0,6,7
 461 373 461 373 463 346 c 1,8,-1
 606 346 l 1,9,-1
 606 302 l 1,10,-1
 463 302 l 1,11,12
 455 250 455 250 381 216 c 256,13,14
 307 182 307 182 203 182 c 1,15,16
 238 116 238 116 293 77 c 0,17,18
 347 39 347 39 406 39 c 0,19,20
 444 39 444 39 481 61 c 1,21,-1
 498 34 l 1,22,23
 435 -7 435 -7 367 -7 c 0,24,25
 262 -7 262 -7 175 48 c 0,26,27
 89 103 89 103 50 195 c 1,28,-1
 50 209 l 1,29,30
 156 209 156 209 230 235 c 256,31,32
 304 261 304 261 313 302 c 1,33,-1
 45 302 l 1,34,-1
 45 346 l 1,35,-1
 316 346 l 1,36,37
 313 385 313 385 286 412 c 0,38,39
 259 438 259 438 223 438 c 2,40,-1
 45 438 l 1,41,-1
 45 438 l 1,0,-1
EndSplineSet
EndChar

StartChar: uni0B95_uni0BBF
Encoding: 333 -1 78
Width: 726
GlyphClass: 2
Flags: W
LayerCount: 2
Back
Fore
SplineSet
141 400 m 1,0,-1
 525 400 l 1,1,-1
 525 370 l 1,2,-1
 403 370 l 1,3,-1
 403 220 l 1,4,-1
 483 220 l 2,5,6
 540 220 540 220 574 191 c 256,7,8
 608 162 608 162 608 114 c 0,9,10
 608 53 608 53 560 26 c 0,11,12
 513 0 513 0 403 0 c 1,13,-1
 403 30 l 1,14,15
 445 30 445 30 461 48 c 0,16,17
 478 67 478 67 478 113 c 0,18,19
 478 149 478 149 464 167 c 256,20,21
 450 185 450 185 423 185 c 2,22,-1
 403 185 l 1,23,-1
 403 131 l 2,24,25
 403 65 403 65 344 32 c 0,26,27
 285 -2 285 -2 170 -2 c 0,28,29
 106 -2 106 -2 61 38 c 256,30,31
 16 78 16 78 16 134 c 0,32,33
 16 171 16 171 44 193 c 256,34,35
 72 215 72 215 119 215 c 1,36,37
 84 253 84 253 65 298 c 0,38,39
 46 342 46 342 46 388 c 0,40,41
 46 528 46 528 133 612 c 0,42,43
 219 696 219 696 363 696 c 256,44,45
 507 696 507 696 594 607 c 0,46,47
 681 517 681 517 681 369 c 2,48,-1
 681 0 l 1,49,-1
 646 0 l 1,50,-1
 646 370 l 2,51,52
 646 463 646 463 563 528 c 0,53,54
 480 594 480 594 363 594 c 256,55,56
 246 594 246 594 164 531 c 0,57,58
 81 467 81 467 81 378 c 0,59,60
 81 343 81 343 96 306 c 0,61,62
 112 269 112 269 141 234 c 1,63,-1
 141 400 l 1,64,-1
 141 400 l 1,0,-1
286 220 m 1,65,-1
 286 370 l 1,66,-1
 176 370 l 1,67,-1
 176 220 l 1,68,-1
 286 220 l 1,69,-1
 286 220 l 1,65,-1
286 138 m 1,70,-1
 286 185 l 1,71,-1
 119 185 l 2,72,73
 88 185 88 185 70 171 c 0,74,75
 51 158 51 158 51 135 c 0,76,77
 51 89 51 89 84 61 c 256,78,79
 117 33 117 33 171 33 c 0,80,81
 219 33 219 33 252 64 c 0,82,83
 286 95 286 95 286 138 c 1,84,-1
 286 138 l 1,70,-1
EndSplineSet
Ligature2: "'abvs' Above Base Substitutions in Tamil lookup 2 subtable" uni0B95 uni0BBF
EndChar

StartChar: uni0B99_uni0BBF
Encoding: 334 -1 79
Width: 894
GlyphClass: 2
Flags: W
LayerCount: 2
Back
Fore
SplineSet
745 0 m 1,0,-1
 218 0 l 1,1,-1
 218 30 l 1,2,-1
 384 30 l 1,3,4
 412 45 412 45 428 78 c 256,5,6
 444 111 444 111 444 152 c 0,7,8
 444 188 444 188 426 214 c 256,9,10
 408 240 408 240 383 240 c 0,11,12
 369 240 369 240 358 227 c 0,13,14
 348 215 348 215 348 197 c 2,15,-1
 348 110 l 1,16,-1
 218 110 l 1,17,-1
 218 370 l 1,18,-1
 80 370 l 1,19,-1
 80 0 l 1,20,-1
 45 0 l 1,21,-1
 45 400 l 1,22,-1
 454 400 l 1,23,-1
 454 370 l 1,24,-1
 348 370 l 1,25,-1
 348 257 l 1,26,27
 362 270 362 270 386 278 c 0,28,29
 411 285 411 285 442 285 c 0,30,31
 502 285 502 285 538 247 c 0,32,33
 574 210 574 210 574 147 c 0,34,35
 574 109 574 109 551 77 c 256,36,37
 528 45 528 45 490 30 c 1,38,-1
 615 30 l 1,39,-1
 615 308 l 1,40,41
 563 317 563 317 530 364 c 0,42,43
 496 412 496 412 496 475 c 0,44,45
 496 575 496 575 544 636 c 0,46,47
 591 696 591 696 670 696 c 0,48,49
 751 696 751 696 800 629 c 256,50,51
 849 562 849 562 849 451 c 2,52,-1
 849 0 l 1,53,-1
 814 0 l 1,54,-1
 814 449 l 2,55,56
 814 515 814 515 775 554 c 0,57,58
 735 594 735 594 670 594 c 0,59,60
 607 594 607 594 569 559 c 0,61,62
 531 525 531 525 531 467 c 0,63,64
 531 419 531 419 557 379 c 0,65,66
 584 339 584 339 615 339 c 1,67,-1
 615 400 l 1,68,-1
 745 400 l 1,69,-1
 745 0 l 1,70,-1
 745 0 l 1,0,-1
EndSplineSet
Ligature2: "'abvs' Above Base Substitutions in Tamil lookup 2 subtable" uni0B99 uni0BBF
EndChar

StartChar: uni0B9A_uni0BBF
Encoding: 335 -1 80
Width: 651
GlyphClass: 2
Flags: W
LayerCount: 2
Back
Fore
SplineSet
522 185 m 1,0,-1
 422 185 l 1,1,-1
 422 137 l 2,2,3
 422 68 422 68 365 33 c 256,4,5
 308 -2 308 -2 196 -2 c 0,6,7
 117 -2 117 -2 70 36 c 0,8,9
 22 74 22 74 22 137 c 0,10,11
 22 172 22 172 48 194 c 0,12,13
 74 215 74 215 117 215 c 1,14,15
 77 243 77 243 55 289 c 0,16,17
 32 335 32 335 32 389 c 0,18,19
 32 528 32 528 110 612 c 0,20,21
 187 696 187 696 316 696 c 0,22,23
 460 696 460 696 533 613 c 0,24,25
 606 531 606 531 606 369 c 2,26,-1
 606 0 l 1,27,-1
 571 0 l 1,28,-1
 571 370 l 2,29,30
 571 472 571 472 501 533 c 0,31,32
 432 594 432 594 316 594 c 0,33,34
 203 594 203 594 135 536 c 0,35,36
 67 477 67 477 67 380 c 0,37,38
 67 336 67 336 86 299 c 0,39,40
 104 261 104 261 137 240 c 1,41,-1
 137 400 l 1,42,-1
 522 400 l 1,43,-1
 522 370 l 1,44,-1
 422 370 l 1,45,-1
 422 220 l 1,46,-1
 522 220 l 1,47,-1
 522 185 l 1,48,-1
 522 185 l 1,0,-1
292 220 m 1,49,-1
 292 370 l 1,50,-1
 172 370 l 1,51,-1
 172 220 l 1,52,-1
 292 220 l 1,53,-1
 292 220 l 1,49,-1
292 137 m 1,54,-1
 292 185 l 1,55,-1
 125 185 l 2,56,57
 94 185 94 185 76 172 c 0,58,59
 57 159 57 159 57 137 c 0,60,61
 57 90 57 90 95 61 c 0,62,63
 133 33 133 33 197 33 c 0,64,65
 240 33 240 33 266 61 c 0,66,67
 292 90 292 90 292 137 c 1,68,-1
 292 137 l 1,54,-1
EndSplineSet
Ligature2: "'abvs' Above Base Substitutions in Tamil lookup 2 subtable" uni0B9A uni0BBF
EndChar

StartChar: uni0B9C_uni0BBF
Encoding: 336 -1 81
Width: 897
GlyphClass: 2
Flags: W
LayerCount: 2
Back
Fore
SplineSet
852 0 m 1,0,-1
 817 0 l 1,1,-1
 817 477 l 2,2,3
 817 525 817 525 777 560 c 0,4,5
 737 594 737 594 681 594 c 0,6,7
 631 594 631 594 595 561 c 0,8,9
 560 528 560 528 560 482 c 0,10,11
 560 444 560 444 574 408 c 1,12,13
 648 405 648 405 700 353 c 0,14,15
 751 301 751 301 751 228 c 0,16,17
 751 140 751 140 686 95 c 256,18,19
 621 50 621 50 493 50 c 2,20,-1
 237 50 l 2,21,22
 187 50 187 50 152 17 c 0,23,24
 117 -17 117 -17 117 -64 c 0,25,26
 117 -113 117 -113 143 -148 c 0,27,28
 170 -183 170 -183 207 -183 c 0,29,30
 237 -183 237 -183 277 -158 c 0,31,32
 317 -134 317 -134 361 -88 c 0,33,34
 406 -42 406 -42 458 -16 c 0,35,36
 510 9 510 9 560 9 c 0,37,38
 647 9 647 9 699 -25 c 0,39,40
 751 -58 751 -58 751 -114 c 0,41,42
 751 -166 751 -166 698 -197 c 0,43,44
 646 -228 646 -228 558 -228 c 0,45,46
 519 -228 519 -228 486 -216 c 256,47,48
 453 -204 453 -204 431 -181 c 1,49,-1
 446 -157 l 1,50,51
 467 -174 467 -174 496 -184 c 0,52,53
 525 -193 525 -193 558 -193 c 0,54,55
 584 -193 584 -193 603 -170 c 0,56,57
 621 -146 621 -146 621 -113 c 0,58,59
 621 -77 621 -77 600 -51 c 0,60,61
 579 -26 579 -26 549 -26 c 0,62,63
 479 -26 479 -26 376 -122 c 256,64,65
 273 -218 273 -218 203 -218 c 0,66,67
 115 -218 115 -218 61 -176 c 0,68,69
 8 -134 8 -134 8 -64 c 0,70,71
 8 -2 8 -2 68 41 c 0,72,73
 128 85 128 85 212 85 c 2,74,-1
 494 85 l 2,75,76
 547 85 547 85 584 128 c 256,77,78
 621 171 621 171 621 231 c 0,79,80
 621 290 621 290 600 331 c 0,81,82
 578 373 578 373 548 373 c 0,83,84
 519 373 519 373 498 343 c 256,85,86
 477 313 477 313 477 271 c 2,87,-1
 477 138 l 1,88,-1
 347 138 l 1,89,-1
 347 259 l 2,90,91
 347 306 347 306 301 340 c 0,92,93
 255 373 255 373 190 373 c 0,94,95
 133 373 133 373 92 339 c 0,96,97
 52 305 52 305 52 257 c 0,98,99
 52 216 52 216 72 186 c 0,100,101
 92 157 92 157 121 154 c 1,102,103
 104 160 104 160 93 180 c 0,104,105
 82 201 82 201 82 229 c 0,106,107
 82 275 82 275 111 302 c 0,108,109
 140 330 140 330 189 330 c 256,110,111
 238 330 238 330 267 301 c 0,112,113
 296 273 296 273 296 225 c 0,114,115
 296 181 296 181 261 154 c 256,116,117
 226 127 226 127 168 127 c 0,118,119
 99 127 99 127 58 163 c 256,120,121
 17 199 17 199 17 258 c 0,122,123
 17 320 17 320 73 364 c 256,124,125
 129 408 129 408 209 408 c 0,126,127
 275 408 275 408 328 385 c 0,128,129
 380 361 380 361 407 320 c 1,130,131
 421 356 421 356 457 379 c 0,132,133
 494 403 494 403 542 407 c 1,134,135
 525 459 525 459 525 487 c 0,136,137
 525 582 525 582 569 639 c 256,138,139
 613 696 613 696 686 696 c 0,140,141
 761 696 761 696 807 637 c 0,142,143
 852 577 852 577 852 479 c 2,144,-1
 852 0 l 1,145,-1
 852 0 l 1,0,-1
210 225 m 1,146,147
 210 254 210 254 196 274 c 0,148,149
 181 295 181 295 161 295 c 0,150,151
 143 295 143 295 130 276 c 0,152,153
 117 256 117 256 117 229 c 0,154,155
 117 201 117 201 130 182 c 0,156,157
 143 162 143 162 161 162 c 0,158,159
 181 162 181 162 196 180 c 0,160,161
 210 199 210 199 210 225 c 1,162,-1
 210 225 l 1,146,147
EndSplineSet
Ligature2: "'abvs' Above Base Substitutions in Tamil lookup 2 subtable" uni0B9C uni0BBF
EndChar

StartChar: uni0B9E_uni0BBF
Encoding: 337 -1 82
Width: 1131
GlyphClass: 2
Flags: W
LayerCount: 2
Back
Fore
SplineSet
998 88 m 1,0,1
 998 -77 998 -77 856 -168 c 0,2,3
 713 -259 713 -259 456 -259 c 0,4,5
 269 -259 269 -259 146 -150 c 0,6,7
 24 -41 24 -41 24 126 c 0,8,9
 24 195 24 195 56 265 c 0,10,11
 89 335 89 335 149 395 c 1,12,-1
 169 373 l 1,13,14
 116 318 116 318 88 254 c 0,15,16
 59 190 59 190 59 125 c 0,17,18
 59 -26 59 -26 172 -125 c 0,19,20
 284 -224 284 -224 456 -224 c 0,21,22
 651 -224 651 -224 760 -142 c 0,23,24
 868 -59 868 -59 868 89 c 0,25,26
 868 136 868 136 842 169 c 256,27,28
 816 202 816 202 779 202 c 0,29,30
 763 202 763 202 752 188 c 256,31,32
 741 174 741 174 741 155 c 2,33,-1
 741 0 l 1,34,-1
 611 0 l 1,35,-1
 611 370 l 1,36,-1
 442 370 l 2,37,38
 344 370 344 370 274 316 c 0,39,40
 205 262 205 262 205 185 c 0,41,42
 205 138 205 138 221 102 c 0,43,44
 238 66 238 66 266 50 c 1,45,46
 255 62 255 62 250 80 c 0,47,48
 244 98 244 98 244 120 c 0,49,50
 244 184 244 184 285 223 c 256,51,52
 326 262 326 262 394 262 c 256,53,54
 462 262 462 262 503 226 c 256,55,56
 544 190 544 190 544 130 c 256,57,58
 544 70 544 70 496 33 c 0,59,60
 449 -3 449 -3 370 -3 c 0,61,62
 279 -3 279 -3 225 48 c 0,63,64
 170 99 170 99 170 184 c 0,65,66
 170 278 170 278 248 339 c 0,67,68
 325 400 325 400 444 400 c 2,69,-1
 628 400 l 1,70,71
 603 443 603 443 603 481 c 0,72,73
 603 570 603 570 668 633 c 0,74,75
 732 696 732 696 824 696 c 0,76,77
 959 696 959 696 1023 623 c 0,78,79
 1086 550 1086 550 1086 394 c 2,80,-1
 1086 0 l 1,81,-1
 1051 0 l 1,82,-1
 1051 397 l 2,83,84
 1051 495 1051 495 993 544 c 0,85,86
 935 594 935 594 822 594 c 0,87,88
 746 594 746 594 692 559 c 256,89,90
 638 524 638 524 638 474 c 0,91,92
 638 449 638 449 643 430 c 0,93,94
 649 410 649 410 659 400 c 1,95,-1
 837 400 l 1,96,-1
 837 370 l 1,97,-1
 741 370 l 1,98,-1
 741 228 l 1,99,100
 778 252 778 252 824 252 c 0,101,102
 903 252 903 252 950 207 c 0,103,104
 998 162 998 162 998 88 c 1,105,-1
 998 88 l 1,0,1
414 119 m 1,106,107
 414 154 414 154 393 178 c 0,108,109
 373 203 373 203 344 203 c 0,110,111
 317 203 317 203 298 178 c 256,112,113
 279 153 279 153 279 117 c 0,114,115
 279 82 279 82 298 57 c 256,116,117
 317 32 317 32 344 32 c 0,118,119
 373 32 373 32 393 57 c 0,120,121
 414 83 414 83 414 119 c 1,122,-1
 414 119 l 1,106,107
EndSplineSet
Ligature2: "'abvs' Above Base Substitutions in Tamil lookup 2 subtable" uni0B9E uni0BBF
EndChar

StartChar: uni0B9F_uni0BBF
Encoding: 338 -1 83
Width: 777
GlyphClass: 2
Flags: W
LayerCount: 2
Back
Fore
SplineSet
774 0 m 1,0,-1
 591 0 l 1,1,-1
 591 -231 l 1,2,-1
 461 -231 l 1,3,-1
 461 0 l 1,4,-1
 45 0 l 1,5,-1
 45 400 l 1,6,-1
 175 400 l 1,7,-1
 175 30 l 1,8,-1
 416 30 l 1,9,10
 364 53 364 53 333 103 c 256,11,12
 302 153 302 153 302 213 c 0,13,14
 302 302 302 302 339 351 c 0,15,16
 377 400 377 400 444 400 c 0,17,18
 505 400 505 400 548 364 c 0,19,20
 591 329 591 329 591 278 c 2,21,-1
 591 30 l 1,22,-1
 774 30 l 1,23,-1
 774 0 l 1,24,-1
 774 0 l 1,0,-1
461 32 m 1,25,-1
 461 282 l 2,26,27
 461 313 461 313 450 331 c 0,28,29
 438 350 438 350 419 350 c 0,30,31
 385 350 385 350 361 310 c 0,32,33
 337 271 337 271 337 215 c 0,34,35
 337 156 337 156 371 106 c 256,36,37
 405 56 405 56 461 32 c 1,38,-1
 461 32 l 1,25,-1
EndSplineSet
Ligature2: "'abvs' Above Base Substitutions in Tamil lookup 2 subtable" uni0B9F uni0BBF
EndChar

StartChar: uni0BA3_uni0BBF
Encoding: 339 -1 84
Width: 1356
GlyphClass: 2
Flags: W
LayerCount: 2
Back
Fore
SplineSet
1012 490 m 1,0,1
 1012 583 1012 583 1053 640 c 0,2,3
 1094 696 1094 696 1162 696 c 0,4,5
 1236 696 1236 696 1273 628 c 0,6,7
 1311 561 1311 561 1311 428 c 2,8,-1
 1311 0 l 1,9,-1
 1276 0 l 1,10,-1
 1276 432 l 2,11,12
 1276 512 1276 512 1247 553 c 256,13,14
 1218 594 1218 594 1162 594 c 0,15,16
 1110 594 1110 594 1078 565 c 0,17,18
 1047 535 1047 535 1047 486 c 0,19,20
 1047 436 1047 436 1071 400 c 1,21,-1
 1226 400 l 1,22,-1
 1226 370 l 1,23,-1
 1144 370 l 1,24,-1
 1144 0 l 1,25,-1
 1014 0 l 1,26,-1
 1014 370 l 1,27,-1
 963 370 l 2,28,29
 908 370 908 370 868 340 c 1,30,31
 917 295 917 295 943 242 c 0,32,33
 970 189 970 189 970 137 c 0,34,35
 970 76 970 76 929 32 c 0,36,37
 889 -11 889 -11 831 -11 c 0,38,39
 774 -11 774 -11 733 32 c 0,40,41
 693 76 693 76 693 137 c 0,42,43
 693 182 693 182 712 228 c 256,44,45
 731 274 731 274 767 315 c 1,46,47
 743 341 743 341 714 356 c 0,48,49
 684 370 684 370 653 370 c 0,50,51
 631 370 631 370 608 361 c 256,52,53
 585 352 585 352 564 335 c 1,54,55
 613 292 613 292 640 241 c 0,56,57
 667 189 667 189 667 137 c 0,58,59
 667 76 667 76 625 32 c 0,60,61
 583 -11 583 -11 524 -11 c 256,62,63
 465 -11 465 -11 423 32 c 0,64,65
 381 76 381 76 381 137 c 0,66,67
 381 187 381 187 399 232 c 0,68,69
 417 278 417 278 450 312 c 1,70,71
 418 340 418 340 375 355 c 0,72,73
 333 370 333 370 286 370 c 0,74,75
 190 370 190 370 123 313 c 0,76,77
 55 256 55 256 55 175 c 0,78,79
 55 125 55 125 73 87 c 0,80,81
 91 50 91 50 121 39 c 1,82,83
 108 53 108 53 102 74 c 0,84,85
 95 94 95 94 95 118 c 0,86,87
 95 180 95 180 132 217 c 256,88,89
 169 254 169 254 230 254 c 0,90,91
 286 254 286 254 326 215 c 256,92,93
 366 176 366 176 366 120 c 0,94,95
 366 61 366 61 318 25 c 0,96,97
 269 -11 269 -11 189 -11 c 0,98,99
 119 -11 119 -11 69 43 c 0,100,101
 20 97 20 97 20 173 c 0,102,103
 20 278 20 278 98 342 c 0,104,105
 176 405 176 405 306 405 c 0,106,107
 387 405 387 405 444 393 c 0,108,109
 501 382 501 382 528 360 c 1,110,111
 555 382 555 382 589 393 c 0,112,113
 623 405 623 405 660 405 c 0,114,115
 714 405 714 405 759 393 c 0,116,117
 803 380 803 380 833 357 c 1,118,119
 892 400 892 400 960 400 c 2,120,-1
 1036 400 l 1,121,122
 1012 443 1012 443 1012 490 c 1,123,-1
 1012 490 l 1,0,1
840 137 m 1,124,125
 840 182 840 182 825 221 c 0,126,127
 811 260 811 260 784 288 c 1,128,129
 757 261 757 261 743 222 c 0,130,131
 728 183 728 183 728 137 c 0,132,133
 728 98 728 98 745 71 c 256,134,135
 762 44 762 44 786 44 c 0,136,137
 808 44 808 44 824 71 c 256,138,139
 840 98 840 98 840 137 c 1,140,-1
 840 137 l 1,124,125
537 137 m 1,141,142
 537 180 537 180 521 219 c 0,143,144
 505 259 505 259 476 289 c 1,145,146
 447 258 447 258 432 219 c 0,147,148
 416 179 416 179 416 137 c 0,149,150
 416 98 416 98 434 71 c 0,151,152
 451 44 451 44 476 44 c 256,153,154
 501 44 501 44 519 71 c 256,155,156
 537 98 537 98 537 137 c 1,157,-1
 537 137 l 1,141,142
236 118 m 1,158,159
 236 147 236 147 220 168 c 0,160,161
 203 189 203 189 180 189 c 0,162,163
 159 189 159 189 145 168 c 0,164,165
 130 147 130 147 130 117 c 256,166,167
 130 87 130 87 145 65 c 0,168,169
 159 44 159 44 180 44 c 0,170,171
 203 44 203 44 220 66 c 0,172,173
 236 87 236 87 236 118 c 1,174,-1
 236 118 l 1,158,159
EndSplineSet
Ligature2: "'abvs' Above Base Substitutions in Tamil lookup 2 subtable" uni0BA3 uni0BBF
EndChar

StartChar: uni0BA4_uni0BBF
Encoding: 340 -1 85
Width: 756
GlyphClass: 2
Flags: W
LayerCount: 2
Back
Fore
SplineSet
620 90 m 1,0,1
 620 -7 620 -7 557 -52 c 0,2,3
 494 -98 494 -98 360 -98 c 2,4,-1
 114 -98 l 2,5,6
 80 -98 80 -98 55 -112 c 0,7,8
 31 -127 31 -127 31 -147 c 1,9,10
 57 -135 57 -135 64 -135 c 0,11,12
 90 -135 90 -135 108 -148 c 0,13,14
 126 -160 126 -160 126 -178 c 256,15,16
 126 -196 126 -196 106 -209 c 256,17,18
 86 -222 86 -222 58 -222 c 0,19,20
 32 -222 32 -222 14 -206 c 0,21,22
 -4 -191 -4 -191 -4 -169 c 0,23,24
 -4 -125 -4 -125 32 -94 c 256,25,26
 68 -63 68 -63 119 -63 c 2,27,-1
 344 -63 l 2,28,29
 404 -63 404 -63 447 -19 c 256,30,31
 490 25 490 25 490 88 c 0,32,33
 490 128 490 128 474 157 c 0,34,35
 458 185 458 185 436 185 c 2,36,-1
 416 185 l 1,37,-1
 416 137 l 2,38,39
 416 68 416 68 358 33 c 0,40,41
 299 -2 299 -2 185 -2 c 0,42,43
 115 -2 115 -2 65 39 c 0,44,45
 16 79 16 79 16 137 c 0,46,47
 16 172 16 172 43 194 c 0,48,49
 70 215 70 215 114 215 c 1,50,51
 82 244 82 244 64 289 c 0,52,53
 46 335 46 335 46 388 c 0,54,55
 46 528 46 528 135 612 c 256,56,57
 224 696 224 696 371 696 c 0,58,59
 532 696 532 696 622 610 c 0,60,61
 711 524 711 524 711 369 c 2,62,-1
 711 0 l 1,63,-1
 676 0 l 1,64,-1
 676 375 l 2,65,66
 676 461 676 461 583 527 c 0,67,68
 491 594 491 594 371 594 c 0,69,70
 239 594 239 594 160 535 c 256,71,72
 81 476 81 476 81 378 c 0,73,74
 81 328 81 328 95 289 c 0,75,76
 110 249 110 249 136 229 c 1,77,-1
 136 400 l 1,78,-1
 526 400 l 1,79,-1
 526 370 l 1,80,-1
 416 370 l 1,81,-1
 416 220 l 1,82,-1
 487 220 l 2,83,84
 542 220 542 220 581 182 c 256,85,86
 620 144 620 144 620 90 c 1,87,-1
 620 90 l 1,0,1
286 220 m 1,88,-1
 286 370 l 1,89,-1
 171 370 l 1,90,-1
 171 220 l 1,91,-1
 286 220 l 1,92,-1
 286 220 l 1,88,-1
286 137 m 1,93,-1
 286 185 l 1,94,-1
 119 185 l 2,95,96
 91 185 91 185 71 171 c 256,97,98
 51 157 51 157 51 137 c 0,99,100
 51 90 51 90 88 61 c 0,101,102
 125 33 125 33 186 33 c 0,103,104
 227 33 227 33 257 63 c 0,105,106
 286 94 286 94 286 137 c 1,107,-1
 286 137 l 1,93,-1
EndSplineSet
Ligature2: "'abvs' Above Base Substitutions in Tamil lookup 2 subtable" uni0BA4 uni0BBF
EndChar

StartChar: uni0BA8_uni0BBF
Encoding: 341 -1 86
Width: 719
GlyphClass: 2
Flags: W
LayerCount: 2
Back
Fore
SplineSet
596 103 m 1,0,1
 596 8 596 8 518 -45 c 256,2,3
 440 -98 440 -98 300 -98 c 2,4,-1
 123 -98 l 2,5,6
 93 -98 93 -98 71 -111 c 0,7,8
 50 -124 50 -124 50 -142 c 1,9,10
 54 -142 54 -142 62 -138 c 0,11,12
 69 -135 69 -135 73 -135 c 0,13,14
 99 -135 99 -135 117 -148 c 0,15,16
 135 -162 135 -162 135 -181 c 0,17,18
 135 -197 135 -197 115 -209 c 0,19,20
 95 -220 95 -220 67 -220 c 0,21,22
 41 -220 41 -220 23 -205 c 256,23,24
 5 -190 5 -190 5 -169 c 0,25,26
 5 -125 5 -125 41 -94 c 256,27,28
 77 -63 77 -63 128 -63 c 2,29,-1
 304 -63 l 2,30,31
 388 -63 388 -63 427 -22 c 0,32,33
 466 18 466 18 466 105 c 0,34,35
 466 151 466 151 444 184 c 256,36,37
 422 217 422 217 391 217 c 0,38,39
 372 217 372 217 359 206 c 256,40,41
 346 195 346 195 346 179 c 2,42,-1
 346 0 l 1,43,-1
 216 0 l 1,44,-1
 216 370 l 1,45,-1
 80 370 l 1,46,-1
 80 0 l 1,47,-1
 45 0 l 1,48,-1
 45 400 l 1,49,-1
 261 400 l 1,50,51
 241 431 241 431 241 480 c 0,52,53
 241 578 241 578 300 637 c 256,54,55
 359 696 359 696 457 696 c 0,56,57
 569 696 569 696 621 624 c 0,58,59
 674 553 674 553 674 400 c 2,60,-1
 674 0 l 1,61,-1
 639 0 l 1,62,-1
 639 400 l 2,63,64
 639 500 639 500 595 547 c 256,65,66
 551 594 551 594 457 594 c 0,67,68
 382 594 382 594 329 560 c 256,69,70
 276 526 276 526 276 478 c 0,71,72
 276 431 276 431 298 400 c 1,73,-1
 512 400 l 1,74,-1
 512 370 l 1,75,-1
 346 370 l 1,76,-1
 346 230 l 1,77,78
 383 257 383 257 439 257 c 0,79,80
 504 257 504 257 550 212 c 256,81,82
 596 167 596 167 596 103 c 1,83,-1
 596 103 l 1,0,1
EndSplineSet
Ligature2: "'abvs' Above Base Substitutions in Tamil lookup 2 subtable" uni0BA8 uni0BBF
EndChar

StartChar: uni0BA9_uni0BBF
Encoding: 342 -1 87
Width: 1064
GlyphClass: 2
Flags: W
LayerCount: 2
Back
Fore
SplineSet
1019 0 m 1,0,-1
 984 0 l 1,1,-1
 984 477 l 2,2,3
 984 525 984 525 951 560 c 0,4,5
 918 594 918 594 871 594 c 0,6,7
 820 594 820 594 785 561 c 0,8,9
 749 528 749 528 749 482 c 256,10,11
 749 436 749 436 768 400 c 1,12,-1
 922 400 l 1,13,-1
 922 367 l 1,14,-1
 840 367 l 1,15,-1
 840 0 l 1,16,-1
 710 0 l 1,17,-1
 710 367 l 1,18,-1
 659 367 l 2,19,20
 631 367 631 367 610 360 c 0,21,22
 589 354 589 354 578 342 c 1,23,24
 617 309 617 309 639 255 c 256,25,26
 661 201 661 201 661 137 c 256,27,28
 661 73 661 73 623 34 c 0,29,30
 586 -5 586 -5 523 -5 c 256,31,32
 460 -5 460 -5 423 34 c 0,33,34
 385 73 385 73 385 137 c 0,35,36
 385 195 385 195 403 242 c 256,37,38
 421 289 421 289 453 317 c 1,39,40
 417 346 417 346 375 362 c 0,41,42
 333 377 333 377 289 377 c 0,43,44
 183 377 183 377 120 321 c 0,45,46
 56 265 56 265 56 172 c 0,47,48
 56 121 56 121 77 83 c 256,49,50
 98 45 98 45 131 35 c 1,51,52
 115 46 115 46 105 70 c 0,53,54
 96 95 96 95 96 127 c 0,55,56
 96 185 96 185 133 219 c 0,57,58
 170 254 170 254 231 254 c 0,59,60
 293 254 293 254 330 219 c 256,61,62
 367 184 367 184 367 125 c 0,63,64
 367 64 367 64 326 27 c 256,65,66
 285 -10 285 -10 217 -10 c 0,67,68
 128 -10 128 -10 75 39 c 0,69,70
 21 88 21 88 21 170 c 0,71,72
 21 280 21 280 98 346 c 0,73,74
 174 412 174 412 302 412 c 0,75,76
 382 412 382 412 442 398 c 256,77,78
 502 384 502 384 536 358 c 1,79,80
 553 378 553 378 586 389 c 0,81,82
 618 400 618 400 660 400 c 2,83,-1
 737 400 l 1,84,85
 714 447 714 447 714 501 c 0,86,87
 714 589 714 589 755 643 c 0,88,89
 796 696 796 696 864 696 c 0,90,91
 934 696 934 696 977 636 c 0,92,93
 1019 575 1019 575 1019 475 c 2,94,-1
 1019 0 l 1,95,-1
 1019 0 l 1,0,-1
531 137 m 1,96,97
 531 186 531 186 516 226 c 256,98,99
 501 266 501 266 473 289 c 1,100,101
 448 270 448 270 434 230 c 256,102,103
 420 190 420 190 420 137 c 0,104,105
 420 98 420 98 436 70 c 0,106,107
 451 42 451 42 473 42 c 0,108,109
 497 42 497 42 514 70 c 256,110,111
 531 98 531 98 531 137 c 1,112,-1
 531 137 l 1,96,97
237 120 m 1,113,114
 237 153 237 153 221 176 c 0,115,116
 204 199 204 199 181 199 c 0,117,118
 160 199 160 199 146 176 c 0,119,120
 131 154 131 154 131 122 c 0,121,122
 131 89 131 89 146 65 c 0,123,124
 160 42 160 42 181 42 c 0,125,126
 204 42 204 42 221 65 c 0,127,128
 237 88 237 88 237 120 c 1,129,-1
 237 120 l 1,113,114
EndSplineSet
Ligature2: "'abvs' Above Base Substitutions in Tamil lookup 2 subtable" uni0BA9 uni0BBF
EndChar

StartChar: uni0BAA_uni0BBF
Encoding: 343 -1 88
Width: 804
GlyphClass: 2
Flags: W
LayerCount: 2
Back
Fore
SplineSet
759 0 m 1,0,-1
 724 0 l 1,1,-1
 724 434 l 2,2,3
 724 500 724 500 680 547 c 256,4,5
 636 594 636 594 574 594 c 0,6,7
 514 594 514 594 472 554 c 0,8,9
 430 515 430 515 430 459 c 0,10,11
 430 409 430 409 455 374 c 256,12,13
 480 339 480 339 516 339 c 1,14,-1
 516 400 l 1,15,-1
 646 400 l 1,16,-1
 646 0 l 1,17,-1
 45 0 l 1,18,-1
 45 400 l 1,19,-1
 175 400 l 1,20,-1
 175 30 l 1,21,-1
 516 30 l 1,22,-1
 516 308 l 1,23,24
 466 308 466 308 430 354 c 0,25,26
 395 401 395 401 395 466 c 0,27,28
 395 570 395 570 444 633 c 256,29,30
 493 696 493 696 574 696 c 0,31,32
 666 696 666 696 712 630 c 0,33,34
 759 564 759 564 759 435 c 2,35,-1
 759 0 l 1,36,-1
 759 0 l 1,0,-1
EndSplineSet
Ligature2: "'abvs' Above Base Substitutions in Tamil lookup 2 subtable" uni0BAA uni0BBF
EndChar

StartChar: uni0BAE_uni0BBF
Encoding: 344 -1 89
Width: 846
GlyphClass: 2
Flags: W
LayerCount: 2
Back
Fore
SplineSet
439 500 m 1,0,1
 439 589 439 589 488 642 c 0,2,3
 538 696 538 696 620 696 c 0,4,5
 710 696 710 696 755 628 c 0,6,7
 801 561 801 561 801 428 c 2,8,-1
 801 0 l 1,9,-1
 766 0 l 1,10,-1
 766 427 l 2,11,12
 766 510 766 510 729 552 c 256,13,14
 692 594 692 594 619 594 c 0,15,16
 553 594 553 594 514 565 c 0,17,18
 474 535 474 535 474 486 c 0,19,20
 474 440 474 440 497 405 c 1,21,22
 559 398 559 398 601 333 c 256,23,24
 643 268 643 268 643 178 c 0,25,26
 643 97 643 97 610 49 c 0,27,28
 577 0 577 0 522 0 c 2,29,-1
 45 0 l 1,30,-1
 45 400 l 1,31,-1
 175 400 l 1,32,-1
 175 30 l 1,33,-1
 319 30 l 1,34,-1
 319 272 l 2,35,36
 319 325 319 325 363 364 c 256,37,38
 407 403 407 403 470 406 c 1,39,40
 439 462 439 462 439 500 c 1,41,-1
 439 500 l 1,0,1
449 275 m 1,42,-1
 449 30 l 1,43,-1
 512 30 l 2,44,45
 556 30 556 30 582 71 c 256,46,47
 608 112 608 112 608 180 c 0,48,49
 608 262 608 262 581 312 c 0,50,51
 554 361 554 361 510 361 c 0,52,53
 485 361 485 361 467 336 c 256,54,55
 449 311 449 311 449 275 c 1,56,-1
 449 275 l 1,42,-1
EndSplineSet
Ligature2: "'abvs' Above Base Substitutions in Tamil lookup 2 subtable" uni0BAE uni0BBF
EndChar

StartChar: uni0BAF_uni0BBF
Encoding: 345 -1 90
Width: 825
GlyphClass: 2
Flags: W
LayerCount: 2
Back
Fore
SplineSet
780 0 m 1,0,-1
 745 0 l 1,1,-1
 745 434 l 2,2,3
 745 500 745 500 702 547 c 0,4,5
 658 594 658 594 597 594 c 0,6,7
 538 594 538 594 496 554 c 0,8,9
 454 515 454 515 454 459 c 0,10,11
 454 410 454 410 478 375 c 0,12,13
 503 340 503 340 537 340 c 1,14,-1
 537 400 l 1,15,-1
 667 400 l 1,16,-1
 667 0 l 1,17,-1
 247 0 l 1,18,-1
 247 66 l 1,19,20
 241 33 241 33 217 12 c 0,21,22
 192 -10 192 -10 160 -10 c 0,23,24
 110 -10 110 -10 75 28 c 256,25,26
 40 66 40 66 40 119 c 2,27,-1
 40 400 l 1,28,-1
 170 400 l 1,29,-1
 170 113 l 2,30,31
 170 87 170 87 178 69 c 256,32,33
 186 51 186 51 198 51 c 0,34,35
 211 51 211 51 220 69 c 256,36,37
 229 87 229 87 229 112 c 2,38,-1
 229 400 l 1,39,-1
 359 400 l 1,40,-1
 359 30 l 1,41,-1
 537 30 l 1,42,-1
 537 308 l 1,43,44
 488 308 488 308 454 361 c 0,45,46
 419 415 419 415 419 490 c 0,47,48
 419 583 419 583 468 640 c 0,49,50
 516 696 516 696 597 696 c 0,51,52
 680 696 680 696 730 625 c 0,53,54
 780 553 780 553 780 435 c 2,55,-1
 780 0 l 1,56,-1
 780 0 l 1,0,-1
EndSplineSet
Ligature2: "'abvs' Above Base Substitutions in Tamil lookup 2 subtable" uni0BAF uni0BBF
EndChar

StartChar: uni0BB0_uni0BBF
Encoding: 346 -1 91
Width: 567
GlyphClass: 2
Flags: W
LayerCount: 2
Back
Fore
SplineSet
354 14 m 1,0,-1
 57 -165 l 1,1,-1
 38 -142 l 1,2,-1
 224 0 l 1,3,-1
 224 370 l 1,4,-1
 80 370 l 1,5,-1
 80 0 l 1,6,-1
 45 0 l 1,7,-1
 45 400 l 1,8,-1
 233 400 l 1,9,10
 212 434 212 434 212 485 c 0,11,12
 212 572 212 572 257 634 c 0,13,14
 301 696 301 696 364 696 c 0,15,16
 436 696 436 696 479 633 c 0,17,18
 522 569 522 569 522 464 c 2,19,-1
 522 0 l 1,20,-1
 487 0 l 1,21,-1
 487 462 l 2,22,23
 487 517 487 517 452 555 c 0,24,25
 417 594 417 594 367 594 c 256,26,27
 317 594 317 594 282 561 c 256,28,29
 247 528 247 528 247 481 c 0,30,31
 247 455 247 455 253 435 c 0,32,33
 258 414 258 414 269 400 c 1,34,-1
 451 400 l 1,35,-1
 451 370 l 1,36,-1
 354 370 l 1,37,-1
 354 14 l 1,38,-1
 354 14 l 1,0,-1
EndSplineSet
Ligature2: "'abvs' Above Base Substitutions in Tamil lookup 2 subtable" uni0BB0 uni0BBF
EndChar

StartChar: uni0BB1_uni0BBF
Encoding: 347 -1 92
Width: 774
GlyphClass: 2
Flags: W
LayerCount: 2
Back
Fore
SplineSet
729 0 m 1,0,-1
 694 0 l 1,1,-1
 694 477 l 2,2,3
 694 525 694 525 652 560 c 0,4,5
 611 594 611 594 552 594 c 0,6,7
 492 594 492 594 449 561 c 256,8,9
 406 528 406 528 406 482 c 256,10,11
 406 436 406 436 420 409 c 1,12,13
 520 409 520 409 571 349 c 256,14,15
 622 289 622 289 622 172 c 0,16,17
 622 60 622 60 540 -19 c 0,18,19
 457 -98 457 -98 341 -98 c 2,20,-1
 128 -98 l 2,21,22
 96 -98 96 -98 73 -110 c 0,23,24
 50 -123 50 -123 45 -142 c 1,25,-1
 73 -135 l 1,26,27
 94 -135 94 -135 109 -148 c 0,28,29
 124 -162 124 -162 124 -181 c 0,30,31
 124 -197 124 -197 108 -209 c 0,32,33
 93 -220 93 -220 71 -220 c 0,34,35
 45 -220 45 -220 27 -205 c 256,36,37
 9 -190 9 -190 9 -169 c 0,38,39
 9 -125 9 -125 44 -94 c 0,40,41
 78 -63 78 -63 127 -63 c 2,42,-1
 337 -63 l 2,43,44
 401 -63 401 -63 447 6 c 0,45,46
 492 75 492 75 492 172 c 0,47,48
 492 256 492 256 467 315 c 256,49,50
 442 374 442 374 407 374 c 0,51,52
 378 374 378 374 358 342 c 0,53,54
 338 311 338 311 338 266 c 2,55,-1
 338 0 l 1,56,-1
 208 0 l 1,57,-1
 208 305 l 2,58,59
 208 334 208 334 188 354 c 256,60,61
 168 374 168 374 139 374 c 0,62,63
 113 374 113 374 94 353 c 0,64,65
 76 333 76 333 76 304 c 2,66,-1
 76 0 l 1,67,-1
 41 0 l 1,68,-1
 41 307 l 2,69,70
 41 349 41 349 75 379 c 256,71,72
 109 409 109 409 157 409 c 0,73,74
 207 409 207 409 246 388 c 0,75,76
 284 366 284 366 298 331 c 1,77,78
 312 363 312 363 335 383 c 0,79,80
 359 404 359 404 387 408 c 1,81,82
 371 438 371 438 371 482 c 0,83,84
 371 579 371 579 419 638 c 0,85,86
 467 696 467 696 547 696 c 0,87,88
 630 696 630 696 679 637 c 0,89,90
 729 577 729 577 729 479 c 2,91,-1
 729 0 l 1,92,-1
 729 0 l 1,0,-1
EndSplineSet
Ligature2: "'abvs' Above Base Substitutions in Tamil lookup 2 subtable" uni0BB1 uni0BBF
EndChar

StartChar: uni0BB2_uni0BBF
Encoding: 348 -1 93
Width: 883
GlyphClass: 2
Flags: W
LayerCount: 2
Back
Fore
SplineSet
838 0 m 1,0,-1
 803 0 l 1,1,-1
 803 444 l 2,2,3
 803 506 803 506 759 550 c 256,4,5
 715 594 715 594 653 594 c 0,6,7
 590 594 590 594 546 557 c 0,8,9
 501 520 501 520 501 467 c 0,10,11
 501 416 501 416 535 379 c 0,12,13
 568 343 568 343 616 343 c 1,14,-1
 596 360 l 2,15,16
 590 366 590 366 586 374 c 0,17,18
 583 383 583 383 583 392 c 0,19,20
 583 404 583 404 594 413 c 0,21,22
 606 422 606 422 622 422 c 0,23,24
 662 422 662 422 690 358 c 256,25,26
 718 294 718 294 718 204 c 0,27,28
 718 104 718 104 676 52 c 0,29,30
 634 1 634 1 552 1 c 0,31,32
 479 1 479 1 436 32 c 0,33,34
 392 63 392 63 392 114 c 2,35,-1
 392 247 l 2,36,37
 392 302 392 302 356 336 c 0,38,39
 320 369 320 369 261 369 c 0,40,41
 175 369 175 369 115 314 c 0,42,43
 54 259 54 259 54 182 c 0,44,45
 54 137 54 137 71 100 c 0,46,47
 89 64 89 64 119 44 c 1,48,49
 106 57 106 57 99 77 c 0,50,51
 92 98 92 98 92 123 c 0,52,53
 92 179 92 179 131 218 c 0,54,55
 170 258 170 258 226 258 c 0,56,57
 287 258 287 258 323 220 c 0,58,59
 360 183 360 183 360 120 c 0,60,61
 360 66 360 66 313 34 c 0,62,63
 267 1 267 1 189 1 c 0,64,65
 119 1 119 1 69 53 c 0,66,67
 19 106 19 106 19 180 c 0,68,69
 19 271 19 271 91 336 c 0,70,71
 163 400 163 400 264 400 c 0,72,73
 381 400 381 400 451 358 c 256,74,75
 521 316 521 316 521 246 c 2,76,-1
 521 117 l 2,77,78
 521 83 521 83 541 60 c 0,79,80
 561 36 561 36 589 36 c 0,81,82
 632 36 632 36 657 82 c 0,83,84
 683 128 683 128 683 204 c 0,85,86
 683 260 683 260 644 312 c 1,87,88
 632 308 632 308 623 308 c 0,89,90
 558 308 558 308 512 356 c 256,91,92
 466 404 466 404 466 472 c 0,93,94
 466 574 466 574 516 635 c 0,95,96
 565 696 565 696 648 696 c 0,97,98
 727 696 727 696 782 622 c 0,99,100
 838 549 838 549 838 445 c 2,101,-1
 838 0 l 1,102,-1
 838 0 l 1,0,-1
230 119 m 1,103,104
 230 152 230 152 214 175 c 256,105,106
 198 198 198 198 176 198 c 0,107,108
 156 198 156 198 141 173 c 0,109,110
 127 149 127 149 127 114 c 0,111,112
 127 82 127 82 141 59 c 0,113,114
 156 36 156 36 176 36 c 0,115,116
 198 36 198 36 214 60 c 0,117,118
 230 85 230 85 230 119 c 1,119,-1
 230 119 l 1,103,104
EndSplineSet
Ligature2: "'abvs' Above Base Substitutions in Tamil lookup 2 subtable" uni0BB2 uni0BBF
EndChar

StartChar: uni0BB3_uni0BBF
Encoding: 349 -1 94
Width: 1064
GlyphClass: 2
Flags: W
LayerCount: 2
Back
Fore
SplineSet
1019 0 m 1,0,-1
 984 0 l 1,1,-1
 984 482 l 2,2,3
 984 528 984 528 950 561 c 0,4,5
 917 594 917 594 869 594 c 0,6,7
 826 594 826 594 795 561 c 0,8,9
 764 529 764 529 764 483 c 0,10,11
 764 445 764 445 785 400 c 1,12,-1
 933 400 l 1,13,-1
 933 367 l 1,14,-1
 844 367 l 1,15,-1
 844 0 l 1,16,-1
 714 0 l 1,17,-1
 714 367 l 1,18,-1
 582 367 l 1,19,-1
 582 0 l 1,20,-1
 452 0 l 1,21,-1
 452 218 l 1,22,23
 428 285 428 285 376 326 c 256,24,25
 324 367 324 367 264 367 c 0,26,27
 177 367 177 367 116 317 c 0,28,29
 54 266 54 266 54 195 c 0,30,31
 54 138 54 138 76 96 c 0,32,33
 98 53 98 53 134 41 c 1,34,35
 121 55 121 55 114 77 c 0,36,37
 107 100 107 100 107 127 c 0,38,39
 107 187 107 187 144 224 c 0,40,41
 181 260 181 260 243 260 c 256,42,43
 305 260 305 260 342 222 c 0,44,45
 379 185 379 185 379 122 c 0,46,47
 379 66 379 66 331 33 c 0,48,49
 284 -1 284 -1 205 -1 c 0,50,51
 128 -1 128 -1 73 56 c 0,52,53
 19 113 19 113 19 193 c 0,54,55
 19 280 19 280 91 341 c 256,56,57
 163 402 163 402 264 402 c 0,58,59
 328 402 328 402 384 378 c 0,60,61
 439 353 439 353 475 309 c 1,62,-1
 475 400 l 1,63,-1
 750 400 l 1,64,65
 729 449 729 449 729 497 c 0,66,67
 729 587 729 587 767 642 c 0,68,69
 805 696 805 696 868 696 c 0,70,71
 937 696 937 696 978 637 c 0,72,73
 1019 577 1019 577 1019 479 c 2,74,-1
 1019 0 l 1,75,-1
 1019 0 l 1,0,-1
249 119 m 1,76,77
 249 150 249 150 233 173 c 0,78,79
 216 195 216 195 193 195 c 0,80,81
 172 195 172 195 157 172 c 0,82,83
 142 150 142 150 142 118 c 0,84,85
 142 83 142 83 157 59 c 0,86,87
 172 34 172 34 193 34 c 0,88,89
 216 34 216 34 233 59 c 0,90,91
 249 84 249 84 249 119 c 1,92,-1
 249 119 l 1,76,77
EndSplineSet
Ligature2: "'abvs' Above Base Substitutions in Tamil lookup 2 subtable" uni0BB3 uni0BBF
EndChar

StartChar: uni0BB4_uni0BBF
Encoding: 350 -1 95
Width: 830
GlyphClass: 2
Flags: W
LayerCount: 2
Back
Fore
SplineSet
785 0 m 1,0,-1
 750 0 l 1,1,-1
 750 462 l 2,2,3
 750 517 750 517 709 555 c 0,4,5
 667 594 667 594 609 594 c 0,6,7
 553 594 553 594 513 561 c 256,8,9
 473 528 473 528 473 482 c 0,10,11
 473 455 473 455 476 436 c 0,12,13
 479 418 479 418 484 410 c 1,14,15
 550 410 550 410 596 346 c 0,16,17
 643 283 643 283 643 193 c 0,18,19
 643 105 643 105 610 53 c 0,20,21
 576 0 576 0 521 0 c 2,22,-1
 448 0 l 1,23,24
 448 -26 448 -26 466 -45 c 0,25,26
 483 -63 483 -63 508 -63 c 2,27,-1
 606 -63 l 1,28,-1
 606 -98 l 1,29,-1
 498 -98 l 2,30,31
 456 -98 456 -98 427 -123 c 0,32,33
 397 -149 397 -149 397 -185 c 0,34,35
 397 -224 397 -224 334 -252 c 0,36,37
 270 -280 270 -280 181 -280 c 0,38,39
 110 -280 110 -280 67 -251 c 256,40,41
 24 -222 24 -222 24 -173 c 0,42,43
 24 -127 24 -127 64 -95 c 0,44,45
 103 -63 103 -63 159 -63 c 0,46,47
 198 -63 198 -63 225 -80 c 256,48,49
 252 -97 252 -97 252 -121 c 0,50,51
 252 -138 252 -138 228 -151 c 0,52,53
 204 -163 204 -163 170 -163 c 0,54,55
 150 -163 150 -163 136 -152 c 256,56,57
 122 -141 122 -141 122 -126 c 0,58,59
 120 -117 120 -117 123 -109 c 0,60,61
 125 -102 125 -102 131 -98 c 1,62,63
 101 -98 101 -98 80 -120 c 0,64,65
 59 -143 59 -143 59 -174 c 0,66,67
 59 -203 59 -203 94 -224 c 0,68,69
 130 -245 130 -245 180 -245 c 0,70,71
 216 -245 216 -245 242 -220 c 0,72,73
 267 -195 267 -195 267 -160 c 0,74,75
 267 -120 267 -120 295 -91 c 0,76,77
 322 -63 322 -63 362 -63 c 1,78,79
 343 -60 343 -60 332 -43 c 0,80,81
 319 -25 319 -25 319 0 c 1,82,-1
 45 0 l 1,83,-1
 45 400 l 1,84,-1
 175 400 l 1,85,-1
 175 30 l 1,86,-1
 319 30 l 1,87,-1
 319 267 l 2,88,89
 319 321 319 321 357 362 c 0,90,91
 396 403 396 403 453 410 c 1,92,93
 438 451 438 451 438 480 c 0,94,95
 438 569 438 569 488 633 c 0,96,97
 538 696 538 696 609 696 c 0,98,99
 682 696 682 696 733 628 c 0,100,101
 785 560 785 560 785 464 c 2,102,-1
 785 0 l 1,0,-1
448 30 m 1,103,-1
 522 30 l 2,104,105
 558 30 558 30 583 78 c 0,106,107
 608 127 608 127 608 195 c 0,108,109
 608 267 608 267 576 319 c 0,110,111
 545 370 545 370 500 370 c 0,112,113
 478 370 478 370 463 341 c 256,114,115
 448 312 448 312 448 271 c 2,116,-1
 448 30 l 1,103,-1
EndSplineSet
Ligature2: "'abvs' Above Base Substitutions in Tamil lookup 2 subtable" uni0BB4 uni0BBF
EndChar

StartChar: uni0BB5_uni0BBF
Encoding: 351 -1 96
Width: 936
GlyphClass: 2
Flags: W
LayerCount: 2
Back
Fore
SplineSet
891 0 m 1,0,-1
 856 0 l 1,1,-1
 856 452 l 2,2,3
 856 511 856 511 812 552 c 0,4,5
 769 594 769 594 707 594 c 0,6,7
 648 594 648 594 606 559 c 0,8,9
 564 523 564 523 564 473 c 0,10,11
 564 420 564 420 587 383 c 0,12,13
 610 345 610 345 644 342 c 1,14,-1
 644 400 l 1,15,-1
 774 400 l 1,16,-1
 774 0 l 1,17,-1
 343 0 l 1,18,-1
 343 27 l 1,19,20
 383 46 383 46 406 92 c 0,21,22
 430 138 430 138 430 196 c 0,23,24
 430 271 430 271 375 323 c 0,25,26
 320 376 320 376 243 376 c 256,27,28
 166 376 166 376 111 319 c 256,29,30
 56 262 56 262 56 182 c 0,31,32
 56 137 56 137 73 100 c 0,33,34
 91 64 91 64 121 44 c 1,35,36
 108 59 108 59 102 79 c 0,37,38
 95 100 95 100 95 123 c 0,39,40
 95 184 95 184 132 221 c 0,41,42
 168 258 168 258 229 258 c 256,43,44
 290 258 290 258 326 221 c 0,45,46
 363 184 363 184 363 122 c 0,47,48
 363 67 363 67 318 34 c 0,49,50
 272 1 272 1 197 1 c 0,51,52
 117 1 117 1 69 50 c 0,53,54
 21 100 21 100 21 182 c 0,55,56
 21 290 21 290 94 356 c 0,57,58
 168 421 168 421 290 421 c 0,59,60
 413 421 413 421 486 360 c 0,61,62
 560 299 560 299 560 198 c 0,63,64
 560 141 560 141 543 97 c 0,65,66
 526 52 526 52 495 30 c 1,67,-1
 644 30 l 1,68,-1
 644 309 l 1,69,70
 595 313 595 313 562 360 c 0,71,72
 529 406 529 406 529 470 c 0,73,74
 529 573 529 573 578 634 c 0,75,76
 628 696 628 696 710 696 c 0,77,78
 785 696 785 696 838 622 c 0,79,80
 891 549 891 549 891 445 c 2,81,-1
 891 0 l 1,82,-1
 891 0 l 1,0,-1
233 119 m 1,83,84
 233 152 233 152 217 175 c 256,85,86
 201 198 201 198 179 198 c 0,87,88
 159 198 159 198 144 175 c 0,89,90
 130 152 130 152 130 120 c 0,91,92
 130 85 130 85 144 61 c 0,93,94
 159 36 159 36 179 36 c 0,95,96
 201 36 201 36 217 60 c 0,97,98
 233 85 233 85 233 119 c 1,99,-1
 233 119 l 1,83,84
EndSplineSet
Ligature2: "'abvs' Above Base Substitutions in Tamil lookup 2 subtable" uni0BB5 uni0BBF
EndChar

StartChar: uni0BB7_uni0BBF
Encoding: 352 -1 97
Width: 1171
GlyphClass: 2
Flags: W
LayerCount: 2
Back
Fore
SplineSet
1126 0 m 1,0,-1
 1091 0 l 1,1,-1
 1091 462 l 2,2,3
 1091 517 1091 517 1033 555 c 0,4,5
 974 594 974 594 892 594 c 0,6,7
 813 594 813 594 758 560 c 0,8,9
 702 526 702 526 702 478 c 0,10,11
 702 436 702 436 718 398 c 1,12,13
 769 394 769 394 803 367 c 0,14,15
 837 339 837 339 837 304 c 2,16,-1
 837 193 l 1,17,18
 870 193 870 193 904 223 c 0,19,20
 939 253 939 253 965 304 c 1,21,-1
 1026 304 l 1,22,-1
 1026 0 l 1,23,-1
 837 0 l 1,24,-1
 837 -242 l 1,25,-1
 707 -242 l 1,26,-1
 707 0 l 1,27,-1
 347 0 l 1,28,-1
 347 27 l 1,29,30
 387 49 387 49 411 95 c 0,31,32
 434 140 434 140 434 196 c 0,33,34
 434 268 434 268 378 318 c 0,35,36
 323 369 323 369 244 369 c 0,37,38
 158 369 158 369 107 318 c 0,39,40
 55 267 55 267 55 182 c 0,41,42
 55 139 55 139 74 102 c 0,43,44
 92 65 92 65 125 44 c 1,45,46
 112 59 112 59 106 78 c 0,47,48
 99 97 99 97 99 118 c 0,49,50
 99 175 99 175 136 209 c 0,51,52
 172 243 172 243 233 243 c 256,53,54
 294 243 294 243 330 210 c 0,55,56
 367 177 367 177 367 122 c 0,57,58
 367 63 367 63 323 27 c 256,59,60
 279 -9 279 -9 206 -9 c 0,61,62
 129 -9 129 -9 74 48 c 0,63,64
 20 105 20 105 20 185 c 0,65,66
 20 289 20 289 94 351 c 0,67,68
 169 414 169 414 292 414 c 256,69,70
 415 414 415 414 490 354 c 0,71,72
 564 294 564 294 564 195 c 0,73,74
 564 142 564 142 545 99 c 0,75,76
 525 55 525 55 491 30 c 1,77,-1
 707 30 l 1,78,-1
 707 164 l 1,79,80
 652 164 652 164 613 198 c 0,81,82
 574 233 574 233 574 281 c 0,83,84
 574 327 574 327 606 360 c 0,85,86
 638 394 638 394 685 398 c 1,87,88
 667 437 667 437 667 480 c 0,89,90
 667 578 667 578 728 637 c 0,91,92
 790 696 790 696 892 696 c 0,93,94
 998 696 998 696 1062 633 c 0,95,96
 1126 569 1126 569 1126 464 c 2,97,-1
 1126 0 l 1,98,-1
 1126 0 l 1,0,-1
707 192 m 1,99,-1
 707 302 l 2,100,101
 707 324 707 324 694 339 c 0,102,103
 682 354 682 354 664 354 c 0,104,105
 641 354 641 354 625 333 c 0,106,107
 609 311 609 311 609 281 c 0,108,109
 609 244 609 244 638 218 c 0,110,111
 666 192 666 192 707 192 c 1,112,-1
 707 192 l 1,99,-1
237 119 m 1,113,114
 237 150 237 150 221 171 c 0,115,116
 205 193 205 193 183 193 c 0,117,118
 163 193 163 193 148 172 c 0,119,120
 134 150 134 150 134 120 c 0,121,122
 134 89 134 89 148 68 c 0,123,124
 163 46 163 46 183 46 c 0,125,126
 205 46 205 46 221 67 c 0,127,128
 237 89 237 89 237 119 c 1,129,-1
 237 119 l 1,113,114
896 30 m 1,130,-1
 896 179 l 1,131,132
 886 172 886 172 870 168 c 0,133,134
 855 164 855 164 837 164 c 1,135,-1
 837 30 l 1,136,-1
 896 30 l 1,137,-1
 896 30 l 1,130,-1
EndSplineSet
Ligature2: "'abvs' Above Base Substitutions in Tamil lookup 2 subtable" uni0BB7 uni0BBF
EndChar

StartChar: uni0BB8_uni0BBF
Encoding: 353 -1 98
Width: 1176
GlyphClass: 2
Flags: W
LayerCount: 2
Back
Fore
SplineSet
1131 0 m 1,0,-1
 1096 0 l 1,1,-1
 1096 459 l 2,2,3
 1096 515 1096 515 1055 554 c 0,4,5
 1014 594 1014 594 956 594 c 256,6,7
 898 594 898 594 857 563 c 0,8,9
 816 531 816 531 816 487 c 0,10,11
 816 421 816 421 849 376 c 0,12,13
 883 331 883 331 926 338 c 1,14,-1
 901 360 l 2,15,16
 897 364 897 364 895 370 c 0,17,18
 893 375 893 375 893 382 c 0,19,20
 893 399 893 399 903 410 c 0,21,22
 914 422 914 422 928 422 c 0,23,24
 967 422 967 422 995 358 c 256,25,26
 1023 294 1023 294 1023 204 c 0,27,28
 1023 106 1023 106 978 48 c 0,29,30
 933 -11 933 -11 858 -11 c 0,31,32
 788 -11 788 -11 745 23 c 0,33,34
 703 57 703 57 703 114 c 2,35,-1
 703 257 l 2,36,37
 703 306 703 306 683 341 c 256,38,39
 663 376 663 376 635 376 c 0,40,41
 604 376 604 376 581 345 c 0,42,43
 559 313 559 313 559 269 c 2,44,-1
 559 0 l 1,45,-1
 429 0 l 1,46,-1
 429 235 l 2,47,48
 429 293 429 293 382 335 c 0,49,50
 336 376 336 376 270 376 c 0,51,52
 173 376 173 376 114 325 c 0,53,54
 56 274 56 274 56 190 c 0,55,56
 56 135 56 135 77 94 c 0,57,58
 97 53 97 53 131 41 c 1,59,60
 117 57 117 57 110 78 c 256,61,62
 103 99 103 99 103 124 c 0,63,64
 103 183 103 183 141 219 c 256,65,66
 179 255 179 255 242 255 c 256,67,68
 305 255 305 255 343 219 c 0,69,70
 381 182 381 182 381 122 c 0,71,72
 381 67 381 67 334 28 c 0,73,74
 288 -11 288 -11 222 -11 c 0,75,76
 131 -11 131 -11 76 43 c 0,77,78
 21 98 21 98 21 188 c 0,79,80
 21 289 21 289 89 350 c 0,81,82
 158 411 158 411 271 411 c 0,83,84
 360 411 360 411 426 382 c 0,85,86
 493 354 493 354 518 305 c 1,87,88
 531 352 531 352 572 381 c 0,89,90
 613 411 613 411 665 411 c 0,91,92
 735 411 735 411 784 366 c 0,93,94
 833 320 833 320 833 256 c 2,95,-1
 833 117 l 2,96,97
 833 87 833 87 851 65 c 0,98,99
 868 44 868 44 893 44 c 0,100,101
 936 44 936 44 962 88 c 0,102,103
 988 131 988 131 988 204 c 0,104,105
 988 236 988 236 979 264 c 0,106,107
 970 291 970 291 954 311 c 1,108,109
 939 306 939 306 914 306 c 0,110,111
 859 306 859 306 820 359 c 256,112,113
 781 412 781 412 781 487 c 0,114,115
 781 582 781 582 828 639 c 256,116,117
 875 696 875 696 953 696 c 0,118,119
 1034 696 1034 696 1082 630 c 0,120,121
 1131 565 1131 565 1131 456 c 2,122,-1
 1131 0 l 1,123,-1
 1131 0 l 1,0,-1
251 119 m 1,124,125
 251 150 251 150 234 173 c 0,126,127
 216 195 216 195 192 195 c 0,128,129
 170 195 170 195 154 174 c 0,130,131
 138 152 138 152 138 122 c 0,132,133
 138 90 138 90 154 67 c 256,134,135
 170 44 170 44 192 44 c 0,136,137
 216 44 216 44 234 66 c 0,138,139
 251 88 251 88 251 119 c 1,140,-1
 251 119 l 1,124,125
EndSplineSet
Ligature2: "'abvs' Above Base Substitutions in Tamil lookup 2 subtable" uni0BB8 uni0BBF
EndChar

StartChar: uni0BB9_uni0BBF
Encoding: 354 -1 99
Width: 1349
GlyphClass: 2
Flags: W
LayerCount: 2
Back
Fore
SplineSet
1304 0 m 1,0,-1
 1269 0 l 1,1,-1
 1269 467 l 2,2,3
 1269 520 1269 520 1230 557 c 256,4,5
 1191 594 1191 594 1135 594 c 0,6,7
 1080 594 1080 594 1041 561 c 256,8,9
 1002 528 1002 528 1002 482 c 0,10,11
 1002 433 1002 433 1024 400 c 1,12,13
 1113 395 1113 395 1158 338 c 0,14,15
 1203 280 1203 280 1203 172 c 0,16,17
 1203 33 1203 33 1131 -33 c 0,18,19
 1059 -98 1059 -98 906 -98 c 2,20,-1
 139 -98 l 2,21,22
 104 -98 104 -98 80 -111 c 0,23,24
 55 -125 55 -125 55 -144 c 1,25,-1
 88 -135 l 1,26,27
 105 -135 105 -135 118 -148 c 0,28,29
 130 -162 130 -162 130 -181 c 0,30,31
 130 -197 130 -197 116 -209 c 0,32,33
 102 -220 102 -220 82 -220 c 0,34,35
 56 -220 56 -220 38 -204 c 0,36,37
 20 -187 20 -187 20 -164 c 0,38,39
 20 -122 20 -122 55 -93 c 0,40,41
 89 -63 89 -63 138 -63 c 2,42,-1
 906 -63 l 2,43,44
 975 -63 975 -63 1024 5 c 256,45,46
 1073 73 1073 73 1073 170 c 0,47,48
 1073 261 1073 261 1050 315 c 0,49,50
 1026 370 1026 370 987 370 c 0,51,52
 962 370 962 370 944 348 c 0,53,54
 926 325 926 325 926 294 c 2,55,-1
 926 0 l 1,56,-1
 796 0 l 1,57,-1
 796 295 l 2,58,59
 796 326 796 326 779 348 c 0,60,61
 761 370 761 370 737 370 c 0,62,63
 715 370 715 370 700 348 c 0,64,65
 684 325 684 325 684 294 c 2,66,-1
 684 0 l 1,67,-1
 343 0 l 1,68,-1
 343 30 l 1,69,70
 383 52 383 52 407 96 c 0,71,72
 430 139 430 139 430 191 c 0,73,74
 430 272 430 272 379 321 c 0,75,76
 327 370 327 370 242 370 c 256,77,78
 157 370 157 370 106 319 c 0,79,80
 55 267 55 267 55 182 c 0,81,82
 55 137 55 137 73 101 c 0,83,84
 90 64 90 64 121 44 c 1,85,86
 109 56 109 56 102 77 c 0,87,88
 95 97 95 97 95 122 c 0,89,90
 95 179 95 179 132 214 c 0,91,92
 168 248 168 248 229 248 c 256,93,94
 290 248 290 248 326 214 c 0,95,96
 363 179 363 179 363 122 c 0,97,98
 363 67 363 67 320 33 c 0,99,100
 278 0 278 0 207 0 c 0,101,102
 130 0 130 0 75 53 c 0,103,104
 20 105 20 105 20 180 c 0,105,106
 20 288 20 288 94 354 c 0,107,108
 167 419 167 419 290 419 c 256,109,110
 413 419 413 419 486 356 c 0,111,112
 560 294 560 294 560 190 c 0,113,114
 560 136 560 136 543 94 c 0,115,116
 527 52 527 52 497 30 c 1,117,-1
 649 30 l 1,118,-1
 649 292 l 2,119,120
 649 341 649 341 681 371 c 0,121,122
 713 400 713 400 766 400 c 0,123,124
 809 400 809 400 842 381 c 256,125,126
 875 362 875 362 886 331 c 1,127,128
 895 357 895 357 922 376 c 0,129,130
 949 394 949 394 986 400 c 1,131,132
 967 433 967 433 967 507 c 0,133,134
 967 593 967 593 1013 644 c 0,135,136
 1059 696 1059 696 1135 696 c 0,137,138
 1212 696 1212 696 1258 634 c 256,139,140
 1304 572 1304 572 1304 469 c 2,141,-1
 1304 0 l 1,142,-1
 1304 0 l 1,0,-1
233 122 m 1,143,144
 233 149 233 149 217 169 c 0,145,146
 201 188 201 188 179 188 c 0,147,148
 159 188 159 188 144 169 c 0,149,150
 130 149 130 149 130 122 c 0,151,152
 130 91 130 91 144 68 c 0,153,154
 159 46 159 46 179 46 c 0,155,156
 201 46 201 46 217 68 c 0,157,158
 233 91 233 91 233 122 c 1,159,-1
 233 122 l 1,143,144
EndSplineSet
Ligature2: "'abvs' Above Base Substitutions in Tamil lookup 2 subtable" uni0BB9 uni0BBF
EndChar

StartChar: uni0B95_uni0BC0
Encoding: 355 -1 100
Width: 627
GlyphClass: 2
Flags: W
LayerCount: 2
Back
Fore
SplineSet
453 535 m 1,0,1
 453 564 453 564 439 584 c 256,2,3
 425 604 425 604 406 604 c 0,4,5
 389 604 389 604 377 584 c 256,6,7
 365 564 365 564 365 535 c 0,8,9
 365 511 365 511 377 494 c 256,10,11
 389 477 389 477 406 477 c 0,12,13
 425 477 425 477 439 494 c 256,14,15
 453 511 453 511 453 535 c 1,16,-1
 453 535 l 1,0,1
16 134 m 1,17,18
 16 171 16 171 45 193 c 256,19,20
 74 215 74 215 123 215 c 1,21,22
 87 243 87 243 66 287 c 0,23,24
 46 331 46 331 46 382 c 0,25,26
 46 508 46 508 136 590 c 0,27,28
 225 672 225 672 362 672 c 0,29,30
 467 672 467 672 525 637 c 0,31,32
 583 603 583 603 583 540 c 0,33,34
 583 486 583 486 544 454 c 256,35,36
 505 422 505 422 441 422 c 0,37,38
 391 422 391 422 360 453 c 0,39,40
 330 484 330 484 330 535 c 0,41,42
 330 558 330 558 336 576 c 0,43,44
 341 594 341 594 352 604 c 1,45,46
 223 604 223 604 152 545 c 0,47,48
 81 485 81 485 81 378 c 0,49,50
 81 334 81 334 97 298 c 256,51,52
 113 262 113 262 141 244 c 1,53,-1
 141 400 l 1,54,-1
 526 400 l 1,55,-1
 526 370 l 1,56,-1
 416 370 l 1,57,-1
 416 220 l 1,58,-1
 488 220 l 2,59,60
 545 220 545 220 579 191 c 256,61,62
 613 162 613 162 613 114 c 0,63,64
 613 53 613 53 563 26 c 0,65,66
 512 0 512 0 396 0 c 1,67,-1
 396 30 l 1,68,69
 444 30 444 30 464 48 c 0,70,71
 483 67 483 67 483 113 c 0,72,73
 483 149 483 149 469 167 c 256,74,75
 455 185 455 185 428 185 c 2,76,-1
 416 185 l 1,77,-1
 416 131 l 2,78,79
 416 65 416 65 354 32 c 0,80,81
 292 -2 292 -2 170 -2 c 0,82,83
 106 -2 106 -2 61 38 c 256,84,85
 16 78 16 78 16 134 c 1,86,-1
 16 134 l 1,17,18
286 220 m 1,87,-1
 286 370 l 1,88,-1
 176 370 l 1,89,-1
 176 220 l 1,90,-1
 286 220 l 1,91,-1
 286 220 l 1,87,-1
286 138 m 1,92,-1
 286 185 l 1,93,-1
 119 185 l 2,94,95
 88 185 88 185 70 171 c 0,96,97
 51 158 51 158 51 135 c 0,98,99
 51 89 51 89 84 61 c 256,100,101
 117 33 117 33 171 33 c 0,102,103
 219 33 219 33 252 64 c 0,104,105
 286 95 286 95 286 138 c 1,106,-1
 286 138 l 1,92,-1
EndSplineSet
Ligature2: "'abvs' Above Base Substitutions in Tamil lookup 2 subtable" uni0B95 uni0BC0
EndChar

StartChar: uni0B99_uni0BC0
Encoding: 356 -1 101
Width: 790
GlyphClass: 2
Flags: W
LayerCount: 2
Back
Fore
SplineSet
796 535 m 1,0,1
 796 564 796 564 782 584 c 256,2,3
 768 604 768 604 748 604 c 0,4,5
 730 604 730 604 718 584 c 0,6,7
 705 564 705 564 705 535 c 0,8,9
 705 509 705 509 718 491 c 0,10,11
 730 473 730 473 748 473 c 0,12,13
 768 473 768 473 782 491 c 256,14,15
 796 509 796 509 796 535 c 1,16,-1
 796 535 l 1,0,1
745 0 m 1,17,-1
 218 0 l 1,18,-1
 218 30 l 1,19,-1
 384 30 l 1,20,21
 412 45 412 45 428 80 c 0,22,23
 444 114 444 114 444 157 c 0,24,25
 444 191 444 191 426 216 c 0,26,27
 408 240 408 240 383 240 c 0,28,29
 369 240 369 240 358 227 c 0,30,31
 348 215 348 215 348 197 c 2,32,-1
 348 110 l 1,33,-1
 218 110 l 1,34,-1
 218 370 l 1,35,-1
 80 370 l 1,36,-1
 80 0 l 1,37,-1
 45 0 l 1,38,-1
 45 400 l 1,39,-1
 464 400 l 1,40,-1
 464 370 l 1,41,-1
 348 370 l 1,42,-1
 348 257 l 1,43,44
 390 285 390 285 442 285 c 0,45,46
 502 285 502 285 538 247 c 0,47,48
 574 210 574 210 574 147 c 0,49,50
 574 109 574 109 551 77 c 256,51,52
 528 45 528 45 490 30 c 1,53,-1
 615 30 l 1,54,-1
 615 307 l 1,55,56
 563 316 563 316 530 361 c 0,57,58
 496 407 496 407 496 467 c 0,59,60
 496 562 496 562 555 620 c 0,61,62
 614 677 614 677 712 677 c 0,63,64
 814 677 814 677 870 641 c 256,65,66
 926 605 926 605 926 540 c 0,67,68
 926 487 926 487 887 455 c 256,69,70
 848 423 848 423 783 423 c 0,71,72
 732 423 732 423 701 453 c 0,73,74
 670 484 670 484 670 534 c 0,75,76
 670 558 670 558 678 578 c 0,77,78
 687 599 687 599 702 611 c 1,79,80
 624 611 624 611 578 570 c 0,81,82
 531 529 531 529 531 460 c 0,83,84
 531 414 531 414 555 380 c 0,85,86
 578 346 578 346 615 338 c 1,87,-1
 615 400 l 1,88,-1
 745 400 l 1,89,-1
 745 0 l 1,90,-1
 745 0 l 1,17,-1
EndSplineSet
Ligature2: "'abvs' Above Base Substitutions in Tamil lookup 2 subtable" uni0B99 uni0BC0
EndChar

StartChar: uni0B9A_uni0BC0
Encoding: 357 -1 102
Width: 516
GlyphClass: 2
Flags: W
LayerCount: 2
Back
Fore
SplineSet
446 535 m 1,0,1
 446 564 446 564 432 584 c 256,2,3
 418 604 418 604 398 604 c 0,4,5
 380 604 380 604 368 584 c 0,6,7
 355 564 355 564 355 535 c 0,8,9
 355 509 355 509 368 490 c 0,10,11
 380 472 380 472 398 472 c 0,12,13
 418 472 418 472 432 490 c 0,14,15
 446 509 446 509 446 535 c 1,16,-1
 446 535 l 1,0,1
508 185 m 1,17,-1
 419 185 l 1,18,-1
 419 137 l 2,19,20
 419 68 419 68 363 33 c 256,21,22
 307 -2 307 -2 197 -2 c 0,23,24
 116 -2 116 -2 68 36 c 0,25,26
 19 74 19 74 19 137 c 0,27,28
 19 172 19 172 42 194 c 0,29,30
 65 215 65 215 104 215 c 1,31,32
 74 243 74 243 57 287 c 0,33,34
 41 330 41 330 41 382 c 0,35,36
 41 508 41 508 129 590 c 0,37,38
 218 672 218 672 353 672 c 0,39,40
 454 672 454 672 515 633 c 256,41,42
 576 594 576 594 576 530 c 0,43,44
 576 481 576 481 537 451 c 0,45,46
 498 422 498 422 433 422 c 0,47,48
 379 422 379 422 350 451 c 0,49,50
 320 481 320 481 320 534 c 0,51,52
 320 555 320 555 327 573 c 0,53,54
 335 591 335 591 348 604 c 1,55,56
 225 604 225 604 150 542 c 0,57,58
 76 481 76 481 76 378 c 0,59,60
 76 327 76 327 91 289 c 256,61,62
 106 251 106 251 133 234 c 1,63,-1
 133 400 l 1,64,-1
 508 400 l 1,65,-1
 508 370 l 1,66,-1
 419 370 l 1,67,-1
 419 220 l 1,68,-1
 508 220 l 1,69,-1
 508 185 l 1,70,-1
 508 185 l 1,17,-1
289 220 m 1,71,-1
 289 370 l 1,72,-1
 168 370 l 1,73,-1
 168 220 l 1,74,-1
 289 220 l 1,75,-1
 289 220 l 1,71,-1
289 137 m 1,76,-1
 289 185 l 1,77,-1
 121 185 l 2,78,79
 91 185 91 185 72 172 c 0,80,81
 54 159 54 159 54 137 c 0,82,83
 54 90 54 90 93 61 c 0,84,85
 133 33 133 33 198 33 c 0,86,87
 239 33 239 33 264 61 c 0,88,89
 289 90 289 90 289 137 c 1,90,-1
 289 137 l 1,76,-1
EndSplineSet
Ligature2: "'abvs' Above Base Substitutions in Tamil lookup 2 subtable" uni0B9A uni0BC0
EndChar

StartChar: uni0B9C_uni0BC0
Encoding: 358 -1 103
Width: 769
GlyphClass: 2
Flags: W
LayerCount: 2
Back
Fore
SplineSet
919 535 m 1,0,1
 919 486 919 486 885 456 c 0,2,3
 850 426 850 426 793 426 c 256,4,5
 736 426 736 426 702 456 c 256,6,7
 668 486 668 486 668 535 c 0,8,9
 668 559 668 559 676 579 c 256,10,11
 684 599 684 599 699 610 c 1,12,13
 640 610 640 610 599 573 c 0,14,15
 557 537 557 537 557 485 c 0,16,17
 557 440 557 440 572 408 c 1,18,19
 647 405 647 405 699 353 c 256,20,21
 751 301 751 301 751 228 c 0,22,23
 751 140 751 140 686 95 c 256,24,25
 621 50 621 50 493 50 c 2,26,-1
 237 50 l 2,27,28
 187 50 187 50 152 17 c 0,29,30
 117 -17 117 -17 117 -64 c 0,31,32
 117 -113 117 -113 143 -148 c 0,33,34
 170 -183 170 -183 207 -183 c 0,35,36
 237 -183 237 -183 277 -158 c 0,37,38
 317 -134 317 -134 361 -88 c 0,39,40
 406 -42 406 -42 458 -16 c 0,41,42
 510 9 510 9 560 9 c 0,43,44
 647 9 647 9 699 -25 c 0,45,46
 751 -58 751 -58 751 -114 c 0,47,48
 751 -166 751 -166 698 -197 c 0,49,50
 646 -228 646 -228 558 -228 c 0,51,52
 519 -228 519 -228 486 -216 c 256,53,54
 453 -204 453 -204 431 -181 c 1,55,-1
 446 -157 l 1,56,57
 467 -174 467 -174 496 -184 c 0,58,59
 525 -193 525 -193 558 -193 c 0,60,61
 584 -193 584 -193 603 -170 c 0,62,63
 621 -146 621 -146 621 -113 c 0,64,65
 621 -77 621 -77 600 -51 c 0,66,67
 579 -26 579 -26 549 -26 c 0,68,69
 479 -26 479 -26 376 -122 c 256,70,71
 273 -218 273 -218 203 -218 c 0,72,73
 115 -218 115 -218 61 -176 c 0,74,75
 8 -134 8 -134 8 -64 c 0,76,77
 8 -2 8 -2 68 41 c 0,78,79
 128 85 128 85 212 85 c 2,80,-1
 494 85 l 2,81,82
 547 85 547 85 584 128 c 256,83,84
 621 171 621 171 621 231 c 0,85,86
 621 290 621 290 600 331 c 0,87,88
 578 373 578 373 548 373 c 0,89,90
 519 373 519 373 498 343 c 256,91,92
 477 313 477 313 477 271 c 2,93,-1
 477 138 l 1,94,-1
 347 138 l 1,95,-1
 347 259 l 2,96,97
 347 306 347 306 301 340 c 0,98,99
 255 373 255 373 190 373 c 0,100,101
 133 373 133 373 92 339 c 0,102,103
 52 305 52 305 52 257 c 0,104,105
 52 216 52 216 72 186 c 0,106,107
 92 157 92 157 121 154 c 1,108,109
 104 160 104 160 93 180 c 0,110,111
 82 201 82 201 82 229 c 0,112,113
 82 275 82 275 111 302 c 0,114,115
 140 330 140 330 189 330 c 256,116,117
 238 330 238 330 267 301 c 0,118,119
 296 273 296 273 296 225 c 0,120,121
 296 181 296 181 261 154 c 256,122,123
 226 127 226 127 168 127 c 0,124,125
 99 127 99 127 58 163 c 256,126,127
 17 199 17 199 17 258 c 0,128,129
 17 320 17 320 73 364 c 256,130,131
 129 408 129 408 209 408 c 0,132,133
 275 408 275 408 328 385 c 0,134,135
 380 361 380 361 407 320 c 1,136,137
 421 355 421 355 456 379 c 0,138,139
 491 402 491 402 537 407 c 1,140,141
 522 441 522 441 522 484 c 0,142,143
 522 563 522 563 579 618 c 0,144,145
 635 674 635 674 715 674 c 0,146,147
 816 674 816 674 867 639 c 0,148,149
 919 604 919 604 919 535 c 1,150,-1
 919 535 l 1,0,1
789 538 m 1,151,152
 789 566 789 566 776 585 c 0,153,154
 764 605 764 605 746 605 c 256,155,156
 728 605 728 605 716 585 c 0,157,158
 703 566 703 566 703 538 c 256,159,160
 703 510 703 510 716 491 c 0,161,162
 728 471 728 471 746 471 c 256,163,164
 764 471 764 471 776 491 c 0,165,166
 789 510 789 510 789 538 c 1,167,-1
 789 538 l 1,151,152
210 225 m 1,168,169
 210 254 210 254 196 274 c 0,170,171
 181 295 181 295 161 295 c 0,172,173
 143 295 143 295 130 276 c 0,174,175
 117 256 117 256 117 229 c 0,176,177
 117 201 117 201 130 182 c 0,178,179
 143 162 143 162 161 162 c 0,180,181
 181 162 181 162 196 180 c 0,182,183
 210 199 210 199 210 225 c 1,184,-1
 210 225 l 1,168,169
EndSplineSet
Ligature2: "'abvs' Above Base Substitutions in Tamil lookup 2 subtable" uni0B9C uni0BC0
EndChar

StartChar: uni0B9E_uni0BC0
Encoding: 359 -1 104
Width: 1016
GlyphClass: 2
Flags: W
LayerCount: 2
Back
Fore
SplineSet
869 535 m 1,0,1
 869 564 869 564 855 584 c 0,2,3
 840 605 840 605 820 605 c 0,4,5
 802 605 802 605 790 585 c 0,6,7
 777 565 777 565 777 536 c 0,8,9
 777 509 777 509 790 491 c 0,10,11
 804 472 804 472 823 472 c 256,12,13
 842 472 842 472 856 490 c 0,14,15
 869 509 869 509 869 535 c 1,16,-1
 869 535 l 1,0,1
998 88 m 1,17,18
 998 -77 998 -77 856 -168 c 0,19,20
 713 -259 713 -259 456 -259 c 0,21,22
 269 -259 269 -259 146 -150 c 0,23,24
 24 -41 24 -41 24 126 c 0,25,26
 24 195 24 195 56 265 c 0,27,28
 89 335 89 335 149 395 c 1,29,-1
 169 373 l 1,30,31
 116 318 116 318 88 254 c 0,32,33
 59 190 59 190 59 125 c 0,34,35
 59 -26 59 -26 172 -125 c 0,36,37
 284 -224 284 -224 456 -224 c 0,38,39
 651 -224 651 -224 760 -142 c 0,40,41
 868 -59 868 -59 868 89 c 0,42,43
 868 136 868 136 842 169 c 256,44,45
 816 202 816 202 779 202 c 0,46,47
 763 202 763 202 752 188 c 256,48,49
 741 174 741 174 741 155 c 2,50,-1
 741 0 l 1,51,-1
 611 0 l 1,52,-1
 611 370 l 1,53,-1
 442 370 l 2,54,55
 344 370 344 370 274 316 c 0,56,57
 205 262 205 262 205 185 c 0,58,59
 205 138 205 138 221 102 c 0,60,61
 238 66 238 66 266 50 c 1,62,63
 255 62 255 62 250 80 c 0,64,65
 244 98 244 98 244 120 c 0,66,67
 244 185 244 185 285 224 c 256,68,69
 326 263 326 263 394 263 c 256,70,71
 462 263 462 263 503 227 c 0,72,73
 544 190 544 190 544 130 c 0,74,75
 544 67 544 67 495 30 c 0,76,77
 446 -8 446 -8 365 -8 c 0,78,79
 277 -8 277 -8 223 44 c 0,80,81
 170 97 170 97 170 184 c 0,82,83
 170 278 170 278 248 339 c 0,84,85
 325 400 325 400 444 400 c 2,86,-1
 632 400 l 1,87,88
 613 418 613 418 603 443 c 256,89,90
 593 468 593 468 593 496 c 0,91,92
 593 570 593 570 651 622 c 0,93,94
 708 674 708 674 790 674 c 0,95,96
 885 674 885 674 942 635 c 0,97,98
 999 595 999 595 999 530 c 0,99,100
 999 481 999 481 964 451 c 0,101,102
 929 422 929 422 870 422 c 0,103,104
 812 422 812 422 777 453 c 0,105,106
 742 483 742 483 742 534 c 0,107,108
 742 558 742 558 750 578 c 0,109,110
 759 598 759 598 774 610 c 1,111,112
 714 610 714 610 671 577 c 256,113,114
 628 544 628 544 628 498 c 0,115,116
 628 468 628 468 639 442 c 0,117,118
 650 417 650 417 670 400 c 1,119,-1
 837 400 l 1,120,-1
 837 370 l 1,121,-1
 741 370 l 1,122,-1
 741 228 l 1,123,124
 786 252 786 252 824 252 c 0,125,126
 903 252 903 252 950 207 c 0,127,128
 998 162 998 162 998 88 c 1,129,-1
 998 88 l 1,17,18
414 119 m 1,130,131
 414 154 414 154 393 178 c 0,132,133
 373 203 373 203 344 203 c 0,134,135
 317 203 317 203 298 178 c 256,136,137
 279 153 279 153 279 117 c 0,138,139
 279 82 279 82 299 57 c 0,140,141
 318 32 318 32 346 32 c 256,142,143
 374 32 374 32 394 57 c 0,144,145
 414 83 414 83 414 119 c 1,146,-1
 414 119 l 1,130,131
EndSplineSet
Ligature2: "'abvs' Above Base Substitutions in Tamil lookup 2 subtable" uni0B9E uni0BC0
EndChar

StartChar: uni0B9F_uni0BC0
Encoding: 360 -1 105
Width: 802
GlyphClass: 2
Flags: W
LayerCount: 2
Back
Fore
SplineSet
799 0 m 1,0,-1
 45 0 l 1,1,-1
 45 400 l 1,2,-1
 175 400 l 1,3,-1
 175 30 l 1,4,-1
 427 30 l 1,5,6
 377 55 377 55 347 100 c 256,7,8
 317 145 317 145 317 197 c 0,9,10
 317 279 317 279 384 337 c 256,11,12
 451 395 451 395 545 395 c 0,13,14
 628 395 628 395 679 356 c 0,15,16
 729 317 729 317 729 253 c 0,17,18
 729 203 729 203 694 173 c 256,19,20
 659 143 659 143 600 143 c 0,21,22
 542 143 542 143 507 173 c 256,23,24
 472 203 472 203 472 253 c 0,25,26
 472 275 472 275 480 295 c 256,27,28
 488 315 488 315 502 331 c 1,29,30
 438 325 438 325 395 286 c 256,31,32
 352 247 352 247 352 195 c 0,33,34
 352 147 352 147 386 103 c 0,35,36
 420 58 420 58 478 30 c 1,37,-1
 799 30 l 1,38,-1
 799 0 l 1,39,-1
 799 0 l 1,0,-1
599 253 m 1,40,41
 599 282 599 282 585 302 c 0,42,43
 570 323 570 323 550 323 c 0,44,45
 532 323 532 323 520 303 c 0,46,47
 507 283 507 283 507 254 c 0,48,49
 507 229 507 229 520 211 c 0,50,51
 532 193 532 193 550 193 c 0,52,53
 570 193 570 193 585 211 c 0,54,55
 599 228 599 228 599 253 c 1,56,-1
 599 253 l 1,40,41
EndSplineSet
Ligature2: "'abvs' Above Base Substitutions in Tamil lookup 2 subtable" uni0B9F uni0BC0
EndChar

StartChar: uni0BA3_uni0BC0
Encoding: 361 -1 106
Width: 1229
GlyphClass: 2
Flags: W
LayerCount: 2
Back
Fore
SplineSet
1388 535 m 1,0,1
 1388 486 1388 486 1352 456 c 0,2,3
 1317 427 1317 427 1258 427 c 256,4,5
 1199 427 1199 427 1164 457 c 256,6,7
 1129 487 1129 487 1129 536 c 0,8,9
 1129 558 1129 558 1138 577 c 0,10,11
 1147 597 1147 597 1163 610 c 1,12,13
 1103 610 1103 610 1061 575 c 0,14,15
 1019 541 1019 541 1019 492 c 0,16,17
 1019 467 1019 467 1028 443 c 256,18,19
 1037 419 1037 419 1054 400 c 1,20,-1
 1226 400 l 1,21,-1
 1226 370 l 1,22,-1
 1144 370 l 1,23,-1
 1144 0 l 1,24,-1
 1014 0 l 1,25,-1
 1014 370 l 1,26,-1
 963 370 l 2,27,28
 908 370 908 370 868 340 c 1,29,30
 917 295 917 295 943 242 c 0,31,32
 970 189 970 189 970 137 c 0,33,34
 970 76 970 76 929 32 c 0,35,36
 889 -11 889 -11 831 -11 c 0,37,38
 774 -11 774 -11 733 32 c 0,39,40
 693 76 693 76 693 137 c 0,41,42
 693 182 693 182 712 228 c 256,43,44
 731 274 731 274 767 315 c 1,45,46
 743 341 743 341 714 356 c 0,47,48
 684 370 684 370 653 370 c 0,49,50
 631 370 631 370 608 361 c 256,51,52
 585 352 585 352 564 335 c 1,53,54
 613 292 613 292 640 241 c 0,55,56
 667 189 667 189 667 137 c 0,57,58
 667 76 667 76 625 32 c 0,59,60
 583 -11 583 -11 524 -11 c 256,61,62
 465 -11 465 -11 423 32 c 0,63,64
 381 76 381 76 381 137 c 0,65,66
 381 187 381 187 399 232 c 0,67,68
 417 278 417 278 450 312 c 1,69,70
 418 340 418 340 375 355 c 0,71,72
 333 370 333 370 286 370 c 0,73,74
 190 370 190 370 123 313 c 0,75,76
 55 256 55 256 55 175 c 0,77,78
 55 125 55 125 73 87 c 0,79,80
 91 50 91 50 121 39 c 1,81,82
 108 53 108 53 102 74 c 0,83,84
 95 94 95 94 95 118 c 0,85,86
 95 180 95 180 132 217 c 256,87,88
 169 254 169 254 230 254 c 0,89,90
 286 254 286 254 326 215 c 256,91,92
 366 176 366 176 366 120 c 0,93,94
 366 61 366 61 318 25 c 0,95,96
 269 -11 269 -11 189 -11 c 0,97,98
 119 -11 119 -11 69 43 c 0,99,100
 20 97 20 97 20 173 c 0,101,102
 20 278 20 278 98 342 c 0,103,104
 176 405 176 405 306 405 c 0,105,106
 387 405 387 405 444 393 c 0,107,108
 501 382 501 382 528 360 c 1,109,110
 555 382 555 382 589 393 c 0,111,112
 623 405 623 405 660 405 c 0,113,114
 714 405 714 405 759 393 c 0,115,116
 803 380 803 380 833 357 c 1,117,118
 892 400 892 400 960 400 c 2,119,-1
 1020 400 l 1,120,121
 1003 421 1003 421 993 446 c 0,122,123
 984 471 984 471 984 498 c 0,124,125
 984 577 984 577 1037 624 c 0,126,127
 1089 672 1089 672 1177 672 c 0,128,129
 1281 672 1281 672 1335 637 c 0,130,131
 1388 603 1388 603 1388 535 c 1,132,-1
 1388 535 l 1,0,1
1258 535 m 1,133,134
 1258 567 1258 567 1245 586 c 0,135,136
 1231 605 1231 605 1209 605 c 0,137,138
 1189 605 1189 605 1176 586 c 0,139,140
 1164 567 1164 567 1164 536 c 0,141,142
 1164 509 1164 509 1176 493 c 0,143,144
 1189 477 1189 477 1209 477 c 0,145,146
 1231 477 1231 477 1245 493 c 0,147,148
 1258 509 1258 509 1258 535 c 1,149,-1
 1258 535 l 1,133,134
840 137 m 1,150,151
 840 182 840 182 825 221 c 0,152,153
 811 260 811 260 784 288 c 1,154,155
 757 261 757 261 743 222 c 0,156,157
 728 183 728 183 728 137 c 0,158,159
 728 98 728 98 745 71 c 256,160,161
 762 44 762 44 786 44 c 0,162,163
 808 44 808 44 824 71 c 256,164,165
 840 98 840 98 840 137 c 1,166,-1
 840 137 l 1,150,151
537 137 m 1,167,168
 537 180 537 180 521 219 c 0,169,170
 505 259 505 259 476 289 c 1,171,172
 447 258 447 258 432 219 c 0,173,174
 416 179 416 179 416 137 c 0,175,176
 416 98 416 98 434 71 c 0,177,178
 451 44 451 44 476 44 c 256,179,180
 501 44 501 44 519 71 c 256,181,182
 537 98 537 98 537 137 c 1,183,-1
 537 137 l 1,167,168
236 118 m 1,184,185
 236 147 236 147 220 168 c 0,186,187
 203 189 203 189 180 189 c 0,188,189
 159 189 159 189 145 168 c 0,190,191
 130 147 130 147 130 117 c 256,192,193
 130 87 130 87 145 65 c 0,194,195
 159 44 159 44 180 44 c 0,196,197
 203 44 203 44 220 66 c 0,198,199
 236 87 236 87 236 118 c 1,200,-1
 236 118 l 1,184,185
EndSplineSet
Ligature2: "'abvs' Above Base Substitutions in Tamil lookup 2 subtable" uni0BA3 uni0BC0
EndChar

StartChar: uni0BA4_uni0BC0
Encoding: 362 -1 107
Width: 639
GlyphClass: 2
Flags: W
LayerCount: 2
Back
Fore
SplineSet
462 535 m 1,0,1
 462 564 462 564 448 584 c 256,2,3
 434 604 434 604 414 604 c 0,4,5
 397 604 397 604 384 584 c 0,6,7
 372 564 372 564 372 535 c 0,8,9
 372 507 372 507 384 487 c 0,10,11
 397 467 397 467 414 467 c 0,12,13
 434 467 434 467 448 487 c 256,14,15
 462 507 462 507 462 535 c 1,16,-1
 462 535 l 1,0,1
53 382 m 1,17,18
 53 504 53 504 146 591 c 0,19,20
 238 677 238 677 369 677 c 0,21,22
 475 677 475 677 533 638 c 0,23,24
 592 600 592 600 592 530 c 0,25,26
 592 481 592 481 557 451 c 0,27,28
 522 422 522 422 464 422 c 256,29,30
 406 422 406 422 372 453 c 0,31,32
 337 484 337 484 337 535 c 0,33,34
 337 553 337 553 344 571 c 0,35,36
 351 588 351 588 365 604 c 1,37,38
 239 604 239 604 164 542 c 0,39,40
 88 481 88 481 88 378 c 0,41,42
 88 333 88 333 100 295 c 0,43,44
 112 258 112 258 134 233 c 1,45,-1
 134 400 l 1,46,-1
 523 400 l 1,47,-1
 523 370 l 1,48,-1
 414 370 l 1,49,-1
 414 220 l 1,50,-1
 485 220 l 2,51,52
 542 220 542 220 583 180 c 0,53,54
 623 141 623 141 623 85 c 0,55,56
 623 2 623 2 552 -48 c 256,57,58
 481 -98 481 -98 363 -98 c 2,59,-1
 112 -98 l 2,60,61
 78 -98 78 -98 53 -112 c 0,62,63
 29 -127 29 -127 29 -147 c 1,64,65
 36 -141 36 -141 44 -138 c 256,66,67
 52 -135 52 -135 61 -135 c 0,68,69
 87 -135 87 -135 106 -148 c 0,70,71
 124 -160 124 -160 124 -178 c 256,72,73
 124 -196 124 -196 104 -209 c 256,74,75
 84 -222 84 -222 56 -222 c 0,76,77
 30 -222 30 -222 12 -206 c 0,78,79
 -6 -191 -6 -191 -6 -169 c 0,80,81
 -6 -125 -6 -125 30 -94 c 0,82,83
 65 -63 65 -63 116 -63 c 2,84,-1
 342 -63 l 2,85,86
 405 -63 405 -63 449 -19 c 256,87,88
 493 25 493 25 493 88 c 0,89,90
 493 128 493 128 477 157 c 0,91,92
 461 185 461 185 439 185 c 2,93,-1
 414 185 l 1,94,-1
 414 131 l 2,95,96
 414 65 414 65 355 32 c 0,97,98
 297 -2 297 -2 182 -2 c 0,99,100
 112 -2 112 -2 63 38 c 256,101,102
 14 78 14 78 14 134 c 0,103,104
 14 168 14 168 42 193 c 256,105,106
 70 218 70 218 111 220 c 1,107,108
 83 252 83 252 68 294 c 256,109,110
 53 336 53 336 53 382 c 1,111,-1
 53 382 l 1,17,18
284 220 m 1,112,-1
 284 370 l 1,113,-1
 169 370 l 1,114,-1
 169 220 l 1,115,-1
 284 220 l 1,116,-1
 284 220 l 1,112,-1
284 138 m 1,117,-1
 284 185 l 1,118,-1
 116 185 l 2,119,120
 88 185 88 185 69 170 c 0,121,122
 49 156 49 156 49 135 c 0,123,124
 49 89 49 89 86 61 c 0,125,126
 122 33 122 33 183 33 c 0,127,128
 225 33 225 33 254 64 c 0,129,130
 284 95 284 95 284 138 c 1,131,-1
 284 138 l 1,117,-1
EndSplineSet
Ligature2: "'abvs' Above Base Substitutions in Tamil lookup 2 subtable" uni0BA4 uni0BC0
EndChar

StartChar: uni0BA8_uni0BC0
Encoding: 363 -1 108
Width: 616
GlyphClass: 2
Flags: W
LayerCount: 2
Back
Fore
SplineSet
607 530 m 1,0,1
 607 481 607 481 573 451 c 0,2,3
 538 421 538 421 481 421 c 0,4,5
 429 421 429 421 393 454 c 0,6,7
 356 488 356 488 356 535 c 0,8,9
 356 559 356 559 364 579 c 256,10,11
 372 599 372 599 386 610 c 1,12,13
 330 610 330 610 291 574 c 0,14,15
 251 539 251 539 251 488 c 0,16,17
 251 460 251 460 259 437 c 0,18,19
 268 414 268 414 283 400 c 1,20,-1
 509 400 l 1,21,-1
 509 370 l 1,22,-1
 346 370 l 1,23,-1
 346 235 l 1,24,25
 393 262 393 262 442 262 c 0,26,27
 507 262 507 262 552 216 c 0,28,29
 598 169 598 169 598 104 c 0,30,31
 598 8 598 8 519 -45 c 256,32,33
 440 -98 440 -98 298 -98 c 2,34,-1
 126 -98 l 2,35,36
 97 -98 97 -98 76 -110 c 0,37,38
 54 -123 54 -123 49 -142 c 1,39,-1
 76 -135 l 1,40,41
 101 -135 101 -135 119 -148 c 0,42,43
 137 -162 137 -162 137 -181 c 0,44,45
 137 -197 137 -197 117 -209 c 0,46,47
 97 -220 97 -220 69 -220 c 0,48,49
 43 -220 43 -220 25 -205 c 256,50,51
 7 -190 7 -190 7 -169 c 0,52,53
 7 -125 7 -125 43 -94 c 256,54,55
 79 -63 79 -63 130 -63 c 2,56,-1
 301 -63 l 2,57,58
 384 -63 384 -63 426 -21 c 0,59,60
 468 22 468 22 468 105 c 0,61,62
 468 151 468 151 446 184 c 256,63,64
 424 217 424 217 393 217 c 0,65,66
 374 217 374 217 360 207 c 0,67,68
 346 198 346 198 346 184 c 2,69,-1
 346 0 l 1,70,-1
 216 0 l 1,71,-1
 216 370 l 1,72,-1
 80 370 l 1,73,-1
 80 0 l 1,74,-1
 45 0 l 1,75,-1
 45 400 l 1,76,-1
 240 400 l 1,77,78
 216 436 216 436 216 489 c 0,79,80
 216 566 216 566 273 620 c 256,81,82
 330 674 330 674 411 674 c 0,83,84
 512 674 512 674 560 639 c 0,85,86
 607 604 607 604 607 530 c 1,87,-1
 607 530 l 1,0,1
477 538 m 1,88,89
 477 566 477 566 464 585 c 0,90,91
 452 605 452 605 434 605 c 256,92,93
 416 605 416 605 404 585 c 0,94,95
 391 566 391 566 391 538 c 256,96,97
 391 510 391 510 404 491 c 0,98,99
 416 471 416 471 434 471 c 256,100,101
 452 471 452 471 464 491 c 0,102,103
 477 510 477 510 477 538 c 1,104,-1
 477 538 l 1,88,89
EndSplineSet
Ligature2: "'abvs' Above Base Substitutions in Tamil lookup 2 subtable" uni0BA8 uni0BC0
EndChar

StartChar: uni0BA9_uni0BC0
Encoding: 364 -1 109
Width: 926
GlyphClass: 2
Flags: W
LayerCount: 2
Back
Fore
SplineSet
1111 530 m 1,0,1
 1111 476 1111 476 1076 444 c 256,2,3
 1041 412 1041 412 983 412 c 256,4,5
 925 412 925 412 890 446 c 0,6,7
 855 479 855 479 855 535 c 0,8,9
 855 561 855 561 864 581 c 0,10,11
 872 601 872 601 887 610 c 1,12,13
 831 610 831 610 791 574 c 0,14,15
 751 539 751 539 751 488 c 256,16,17
 751 437 751 437 776 400 c 1,18,-1
 922 400 l 1,19,-1
 922 367 l 1,20,-1
 840 367 l 1,21,-1
 840 0 l 1,22,-1
 710 0 l 1,23,-1
 710 367 l 1,24,-1
 659 367 l 2,25,26
 631 367 631 367 608 359 c 0,27,28
 586 351 586 351 573 337 c 1,29,30
 615 302 615 302 638 249 c 0,31,32
 661 197 661 197 661 137 c 0,33,34
 661 73 661 73 623 34 c 0,35,36
 586 -5 586 -5 523 -5 c 256,37,38
 460 -5 460 -5 423 34 c 0,39,40
 385 73 385 73 385 137 c 0,41,42
 385 195 385 195 403 242 c 256,43,44
 421 289 421 289 453 317 c 1,45,46
 417 346 417 346 375 362 c 0,47,48
 333 377 333 377 289 377 c 0,49,50
 183 377 183 377 120 321 c 0,51,52
 56 265 56 265 56 172 c 0,53,54
 56 121 56 121 77 83 c 256,55,56
 98 45 98 45 131 35 c 1,57,58
 115 46 115 46 105 70 c 0,59,60
 96 95 96 95 96 127 c 0,61,62
 96 185 96 185 133 219 c 0,63,64
 170 254 170 254 231 254 c 0,65,66
 293 254 293 254 330 219 c 256,67,68
 367 184 367 184 367 125 c 256,69,70
 367 66 367 66 323 31 c 0,71,72
 280 -5 280 -5 207 -5 c 0,73,74
 123 -5 123 -5 72 43 c 256,75,76
 21 91 21 91 21 170 c 0,77,78
 21 280 21 280 98 346 c 0,79,80
 174 412 174 412 302 412 c 0,81,82
 382 412 382 412 442 398 c 256,83,84
 502 384 502 384 536 358 c 1,85,86
 553 378 553 378 586 389 c 0,87,88
 618 400 618 400 660 400 c 2,89,-1
 737 400 l 1,90,91
 711 445 711 445 711 489 c 0,92,93
 711 564 711 564 770 616 c 0,94,95
 828 669 828 669 911 669 c 0,96,97
 1002 669 1002 669 1056 631 c 0,98,99
 1111 593 1111 593 1111 530 c 1,100,-1
 1111 530 l 1,0,1
981 535 m 1,101,102
 981 564 981 564 967 584 c 0,103,104
 953 605 953 605 933 605 c 0,105,106
 915 605 915 605 903 585 c 0,107,108
 890 565 890 565 890 536 c 256,109,110
 890 507 890 507 903 487 c 0,111,112
 915 466 915 466 933 466 c 0,113,114
 953 466 953 466 967 486 c 256,115,116
 981 506 981 506 981 535 c 1,117,-1
 981 535 l 1,101,102
531 137 m 1,118,119
 531 186 531 186 516 226 c 256,120,121
 501 266 501 266 473 289 c 1,122,123
 448 270 448 270 434 230 c 256,124,125
 420 190 420 190 420 137 c 0,126,127
 420 98 420 98 436 70 c 0,128,129
 451 42 451 42 473 42 c 0,130,131
 497 42 497 42 514 70 c 256,132,133
 531 98 531 98 531 137 c 1,134,-1
 531 137 l 1,118,119
237 120 m 1,135,136
 237 153 237 153 221 176 c 0,137,138
 204 199 204 199 181 199 c 0,139,140
 160 199 160 199 146 176 c 0,141,142
 131 154 131 154 131 122 c 0,143,144
 131 89 131 89 146 65 c 0,145,146
 160 42 160 42 181 42 c 0,147,148
 204 42 204 42 221 65 c 0,149,150
 237 88 237 88 237 120 c 1,151,-1
 237 120 l 1,135,136
EndSplineSet
Ligature2: "'abvs' Above Base Substitutions in Tamil lookup 2 subtable" uni0BA9 uni0BC0
EndChar

StartChar: uni0BAA_uni0BC0
Encoding: 365 -1 110
Width: 692
GlyphClass: 2
Flags: W
LayerCount: 2
Back
Fore
SplineSet
827 540 m 1,0,1
 827 489 827 489 792 458 c 256,2,3
 757 427 757 427 699 427 c 256,4,5
 641 427 641 427 606 458 c 0,6,7
 571 488 571 488 571 539 c 0,8,9
 571 560 571 560 580 579 c 0,10,11
 588 598 588 598 604 611 c 1,12,13
 532 611 532 611 482 567 c 0,14,15
 431 523 431 523 431 460 c 0,16,17
 431 409 431 409 456 374 c 0,18,19
 481 338 481 338 517 338 c 1,20,-1
 517 400 l 1,21,-1
 647 400 l 1,22,-1
 647 0 l 1,23,-1
 45 0 l 1,24,-1
 45 400 l 1,25,-1
 175 400 l 1,26,-1
 175 30 l 1,27,-1
 517 30 l 1,28,-1
 517 307 l 1,29,30
 467 307 467 307 431 353 c 0,31,32
 396 399 396 399 396 464 c 0,33,34
 396 552 396 552 460 615 c 0,35,36
 524 677 524 677 614 677 c 0,37,38
 711 677 711 677 769 640 c 0,39,40
 827 602 827 602 827 540 c 1,41,-1
 827 540 l 1,0,1
697 538 m 1,42,43
 697 565 697 565 683 585 c 0,44,45
 669 604 669 604 649 604 c 0,46,47
 631 604 631 604 619 585 c 0,48,49
 606 565 606 565 606 538 c 0,50,51
 606 509 606 509 619 488 c 0,52,53
 631 467 631 467 649 467 c 0,54,55
 669 467 669 467 683 488 c 256,56,57
 697 509 697 509 697 538 c 1,58,-1
 697 538 l 1,42,43
EndSplineSet
Ligature2: "'abvs' Above Base Substitutions in Tamil lookup 2 subtable" uni0BAA uni0BC0
EndChar

StartChar: uni0BAE_uni0BC0
Encoding: 366 -1 111
Width: 658
GlyphClass: 2
Flags: W
LayerCount: 2
Back
Fore
SplineSet
319 272 m 1,0,1
 319 319 319 319 355 356 c 256,2,3
 391 393 391 393 446 402 c 1,4,5
 433 420 433 420 426 445 c 0,6,7
 419 469 419 469 419 498 c 0,8,9
 419 581 419 581 474 632 c 0,10,11
 529 682 529 682 620 682 c 0,12,13
 719 682 719 682 769 645 c 0,14,15
 820 608 820 608 820 535 c 0,16,17
 820 488 820 488 785 460 c 256,18,19
 750 432 750 432 692 432 c 256,20,21
 634 432 634 432 599 460 c 0,22,23
 564 489 564 489 564 536 c 0,24,25
 564 561 564 561 571 580 c 0,26,27
 578 600 578 600 591 610 c 1,28,29
 534 610 534 610 494 577 c 256,30,31
 454 544 454 544 454 497 c 0,32,33
 454 468 454 468 462 443 c 256,34,35
 470 418 470 418 485 399 c 1,36,37
 547 399 547 399 590 334 c 0,38,39
 634 270 634 270 634 178 c 0,40,41
 634 97 634 97 603 49 c 0,42,43
 573 0 573 0 522 0 c 2,44,-1
 45 0 l 1,45,-1
 45 400 l 1,46,-1
 175 400 l 1,47,-1
 175 30 l 1,48,-1
 319 30 l 1,49,-1
 319 272 l 1,50,-1
 319 272 l 1,0,1
449 275 m 1,51,-1
 449 30 l 1,52,-1
 512 30 l 2,53,54
 551 30 551 30 575 71 c 256,55,56
 599 112 599 112 599 180 c 0,57,58
 599 267 599 267 569 319 c 256,59,60
 539 371 539 371 490 371 c 0,61,62
 473 371 473 371 461 343 c 256,63,64
 449 315 449 315 449 275 c 1,65,-1
 449 275 l 1,51,-1
690 535 m 1,66,67
 690 567 690 567 677 586 c 256,68,69
 664 605 664 605 642 605 c 0,70,71
 622 605 622 605 611 586 c 0,72,73
 599 567 599 567 599 536 c 256,74,75
 599 505 599 505 611 486 c 0,76,77
 622 467 622 467 642 467 c 0,78,79
 664 467 664 467 677 486 c 0,80,81
 690 504 690 504 690 535 c 1,82,-1
 690 535 l 1,66,67
EndSplineSet
Ligature2: "'abvs' Above Base Substitutions in Tamil lookup 2 subtable" uni0BAE uni0BC0
EndChar

StartChar: uni0BAF_uni0BC0
Encoding: 367 -1 112
Width: 712
GlyphClass: 2
Flags: W
LayerCount: 2
Back
Fore
SplineSet
847 535 m 1,0,1
 847 484 847 484 812 453 c 256,2,3
 777 422 777 422 718 422 c 0,4,5
 660 422 660 422 625 453 c 0,6,7
 590 483 590 483 590 534 c 0,8,9
 590 557 590 557 599 577 c 256,10,11
 608 597 608 597 624 611 c 1,12,13
 552 611 552 611 502 567 c 0,14,15
 451 523 451 523 451 460 c 0,16,17
 451 409 451 409 476 374 c 0,18,19
 501 338 501 338 537 338 c 1,20,-1
 537 400 l 1,21,-1
 667 400 l 1,22,-1
 667 0 l 1,23,-1
 247 0 l 1,24,-1
 247 66 l 1,25,26
 237 32 237 32 210 11 c 256,27,28
 183 -10 183 -10 150 -10 c 0,29,30
 104 -10 104 -10 72 28 c 256,31,32
 40 66 40 66 40 119 c 2,33,-1
 40 400 l 1,34,-1
 170 400 l 1,35,-1
 170 113 l 2,36,37
 170 87 170 87 178 69 c 256,38,39
 186 51 186 51 198 51 c 0,40,41
 211 51 211 51 220 69 c 256,42,43
 229 87 229 87 229 112 c 2,44,-1
 229 400 l 1,45,-1
 359 400 l 1,46,-1
 359 30 l 1,47,-1
 537 30 l 1,48,-1
 537 307 l 1,49,50
 487 307 487 307 451 352 c 0,51,52
 416 398 416 398 416 462 c 0,53,54
 416 549 416 549 479 610 c 0,55,56
 543 672 543 672 632 672 c 0,57,58
 734 672 734 672 790 636 c 0,59,60
 847 600 847 600 847 535 c 1,61,-1
 847 535 l 1,0,1
717 535 m 1,62,63
 717 564 717 564 703 584 c 0,64,65
 688 604 688 604 668 604 c 0,66,67
 650 604 650 604 638 584 c 0,68,69
 625 564 625 564 625 535 c 0,70,71
 625 509 625 509 638 490 c 0,72,73
 650 472 650 472 668 472 c 0,74,75
 688 472 688 472 703 490 c 0,76,77
 717 509 717 509 717 535 c 1,78,-1
 717 535 l 1,62,63
EndSplineSet
Ligature2: "'abvs' Above Base Substitutions in Tamil lookup 2 subtable" uni0BAF uni0BC0
EndChar

StartChar: uni0BB0_uni0BC0
Encoding: 368 -1 113
Width: 454
GlyphClass: 2
Flags: W
LayerCount: 2
Back
Fore
SplineSet
484 535 m 1,0,1
 484 564 484 564 470 584 c 0,2,3
 455 605 455 605 435 605 c 0,4,5
 417 605 417 605 405 585 c 0,6,7
 392 565 392 565 392 536 c 0,8,9
 392 509 392 509 405 490 c 0,10,11
 417 471 417 471 435 471 c 0,12,13
 455 471 455 471 470 490 c 0,14,15
 484 508 484 508 484 535 c 1,16,-1
 484 535 l 1,0,1
354 14 m 1,17,-1
 57 -165 l 1,18,-1
 38 -142 l 1,19,-1
 224 0 l 1,20,-1
 224 370 l 1,21,-1
 80 370 l 1,22,-1
 80 0 l 1,23,-1
 45 0 l 1,24,-1
 45 400 l 1,25,-1
 241 400 l 1,26,27
 209 441 209 441 209 494 c 0,28,29
 209 573 209 573 271 628 c 0,30,31
 332 684 332 684 419 684 c 0,32,33
 507 684 507 684 561 645 c 0,34,35
 614 605 614 605 614 540 c 0,36,37
 614 495 614 495 576 463 c 256,38,39
 538 431 538 431 485 431 c 0,40,41
 427 431 427 431 392 459 c 0,42,43
 357 488 357 488 357 535 c 0,44,45
 357 560 357 560 366 580 c 256,46,47
 375 600 375 600 390 610 c 1,48,49
 330 610 330 610 287 576 c 0,50,51
 244 541 244 541 244 493 c 0,52,53
 244 465 244 465 253 440 c 0,54,55
 263 416 263 416 280 400 c 1,56,-1
 451 400 l 1,57,-1
 451 370 l 1,58,-1
 354 370 l 1,59,-1
 354 14 l 1,60,-1
 354 14 l 1,17,-1
EndSplineSet
Ligature2: "'abvs' Above Base Substitutions in Tamil lookup 2 subtable" uni0BB0 uni0BC0
EndChar

StartChar: uni0BB1_uni0BC0
Encoding: 369 -1 114
Width: 645
GlyphClass: 2
Flags: W
LayerCount: 2
Back
Fore
SplineSet
762 535 m 1,0,1
 762 483 762 483 728 452 c 256,2,3
 694 421 694 421 638 421 c 256,4,5
 582 421 582 421 549 452 c 0,6,7
 515 483 515 483 515 535 c 0,8,9
 515 563 515 563 522 584 c 256,10,11
 529 605 529 605 541 615 c 1,12,13
 484 615 484 615 444 577 c 256,14,15
 404 539 404 539 404 485 c 0,16,17
 404 437 404 437 417 409 c 1,18,19
 502 408 502 408 562 338 c 0,20,21
 622 269 622 269 622 172 c 0,22,23
 622 60 622 60 540 -19 c 0,24,25
 457 -98 457 -98 341 -98 c 2,26,-1
 128 -98 l 2,27,28
 96 -98 96 -98 73 -110 c 0,29,30
 50 -123 50 -123 45 -142 c 1,31,-1
 73 -135 l 1,32,33
 94 -135 94 -135 109 -148 c 0,34,35
 124 -162 124 -162 124 -181 c 0,36,37
 124 -197 124 -197 108 -209 c 0,38,39
 93 -220 93 -220 71 -220 c 0,40,41
 45 -220 45 -220 27 -205 c 256,42,43
 9 -190 9 -190 9 -169 c 0,44,45
 9 -125 9 -125 44 -94 c 0,46,47
 78 -63 78 -63 127 -63 c 2,48,-1
 337 -63 l 2,49,50
 401 -63 401 -63 447 6 c 0,51,52
 492 75 492 75 492 172 c 0,53,54
 492 256 492 256 467 315 c 256,55,56
 442 374 442 374 407 374 c 0,57,58
 378 374 378 374 358 353 c 0,59,60
 338 331 338 331 338 301 c 2,61,-1
 338 0 l 1,62,-1
 208 0 l 1,63,-1
 208 305 l 2,64,65
 208 334 208 334 188 354 c 256,66,67
 168 374 168 374 139 374 c 0,68,69
 113 374 113 374 94 353 c 0,70,71
 76 333 76 333 76 304 c 2,72,-1
 76 0 l 1,73,-1
 41 0 l 1,74,-1
 41 307 l 2,75,76
 41 349 41 349 75 379 c 256,77,78
 109 409 109 409 157 409 c 256,79,80
 205 409 205 409 242 388 c 0,81,82
 279 366 279 366 293 331 c 1,83,84
 306 362 306 362 331 383 c 0,85,86
 355 403 355 403 385 407 c 1,87,88
 369 437 369 437 369 486 c 0,89,90
 369 564 369 564 426 619 c 0,91,92
 482 674 482 674 562 674 c 0,93,94
 661 674 661 674 711 639 c 0,95,96
 762 604 762 604 762 535 c 1,97,-1
 762 535 l 1,0,1
632 535 m 1,98,99
 632 564 632 564 620 584 c 0,100,101
 607 605 607 605 590 605 c 256,102,103
 573 605 573 605 562 585 c 0,104,105
 550 565 550 565 550 536 c 0,106,107
 550 511 550 511 562 494 c 0,108,109
 573 476 573 476 590 476 c 256,110,111
 607 476 607 476 620 493 c 0,112,113
 632 511 632 511 632 535 c 1,114,-1
 632 535 l 1,98,99
EndSplineSet
Ligature2: "'abvs' Above Base Substitutions in Tamil lookup 2 subtable" uni0BB1 uni0BC0
EndChar

StartChar: uni0BB2_uni0BC0
Encoding: 370 -1 115
Width: 746
GlyphClass: 2
Flags: W
LayerCount: 2
Back
Fore
SplineSet
911 535 m 1,0,1
 911 481 911 481 876 449 c 256,2,3
 841 417 841 417 782 417 c 0,4,5
 724 417 724 417 689 449 c 256,6,7
 654 481 654 481 654 534 c 0,8,9
 654 558 654 558 663 578 c 0,10,11
 671 598 671 598 687 611 c 1,12,13
 615 611 615 611 565 567 c 0,14,15
 514 523 514 523 514 460 c 0,16,17
 514 407 514 407 546 370 c 256,18,19
 578 333 578 333 624 333 c 1,20,-1
 596 360 l 2,21,22
 590 366 590 366 586 374 c 0,23,24
 583 383 583 383 583 392 c 0,25,26
 583 404 583 404 594 413 c 0,27,28
 606 422 606 422 622 422 c 0,29,30
 662 422 662 422 690 358 c 256,31,32
 718 294 718 294 718 204 c 0,33,34
 718 101 718 101 676 49 c 0,35,36
 634 -4 634 -4 552 -4 c 0,37,38
 479 -4 479 -4 436 28 c 0,39,40
 392 60 392 60 392 114 c 2,41,-1
 392 247 l 2,42,43
 392 302 392 302 356 336 c 0,44,45
 320 369 320 369 261 369 c 0,46,47
 175 369 175 369 115 314 c 0,48,49
 54 259 54 259 54 182 c 0,50,51
 54 138 54 138 72 102 c 0,52,53
 91 65 91 65 123 44 c 1,54,55
 108 59 108 59 100 79 c 0,56,57
 92 100 92 100 92 123 c 0,58,59
 92 184 92 184 129 221 c 0,60,61
 165 258 165 258 226 258 c 256,62,63
 287 258 287 258 323 220 c 0,64,65
 360 183 360 183 360 120 c 0,66,67
 360 64 360 64 317 30 c 0,68,69
 275 -4 275 -4 204 -4 c 0,70,71
 127 -4 127 -4 73 50 c 256,72,73
 19 104 19 104 19 180 c 0,74,75
 19 271 19 271 91 336 c 0,76,77
 163 400 163 400 264 400 c 0,78,79
 381 400 381 400 452 358 c 0,80,81
 522 316 522 316 522 246 c 2,82,-1
 522 117 l 2,83,84
 522 83 522 83 542 60 c 0,85,86
 561 36 561 36 589 36 c 0,87,88
 632 36 632 36 657 82 c 0,89,90
 683 128 683 128 683 204 c 0,91,92
 683 229 683 229 673 256 c 0,93,94
 662 283 662 283 643 309 c 1,95,-1
 634 309 l 2,96,97
 570 309 570 309 524 354 c 0,98,99
 479 399 479 399 479 462 c 0,100,101
 479 553 479 553 544 618 c 0,102,103
 610 682 610 682 702 682 c 0,104,105
 797 682 797 682 854 642 c 256,106,107
 911 602 911 602 911 535 c 1,108,-1
 911 535 l 1,0,1
781 535 m 1,109,110
 781 564 781 564 767 584 c 0,111,112
 752 604 752 604 732 604 c 0,113,114
 714 604 714 604 702 584 c 0,115,116
 689 564 689 564 689 535 c 0,117,118
 689 509 689 509 702 490 c 0,119,120
 714 472 714 472 732 472 c 0,121,122
 752 472 752 472 767 490 c 0,123,124
 781 509 781 509 781 535 c 1,125,-1
 781 535 l 1,109,110
230 114 m 1,126,127
 230 149 230 149 214 173 c 0,128,129
 198 198 198 198 176 198 c 0,130,131
 156 198 156 198 141 173 c 0,132,133
 127 149 127 149 127 114 c 0,134,135
 127 80 127 80 141 55 c 0,136,137
 156 31 156 31 176 31 c 0,138,139
 198 31 198 31 214 55 c 0,140,141
 230 80 230 80 230 114 c 1,142,-1
 230 114 l 1,126,127
EndSplineSet
Ligature2: "'abvs' Above Base Substitutions in Tamil lookup 2 subtable" uni0BB2 uni0BC0
EndChar

StartChar: uni0BB3_uni0BC0
Encoding: 371 -1 116
Width: 937
GlyphClass: 2
Flags: W
LayerCount: 2
Back
Fore
SplineSet
1095 535 m 1,0,1
 1095 481 1095 481 1060 449 c 0,2,3
 1025 416 1025 416 967 416 c 256,4,5
 909 416 909 416 874 449 c 0,6,7
 839 481 839 481 839 535 c 0,8,9
 839 558 839 558 848 578 c 256,10,11
 857 598 857 598 873 610 c 1,12,13
 816 610 816 610 775 576 c 0,14,15
 735 541 735 541 735 493 c 0,16,17
 735 467 735 467 744 443 c 0,18,19
 752 419 752 419 768 400 c 1,20,-1
 933 400 l 1,21,-1
 933 367 l 1,22,-1
 844 367 l 1,23,-1
 844 0 l 1,24,-1
 714 0 l 1,25,-1
 714 367 l 1,26,-1
 582 367 l 1,27,-1
 582 0 l 1,28,-1
 452 0 l 1,29,-1
 452 218 l 1,30,31
 428 285 428 285 376 326 c 256,32,33
 324 367 324 367 264 367 c 0,34,35
 177 367 177 367 116 317 c 0,36,37
 54 266 54 266 54 195 c 0,38,39
 54 138 54 138 76 96 c 0,40,41
 98 53 98 53 134 41 c 1,42,43
 121 55 121 55 114 77 c 0,44,45
 107 100 107 100 107 127 c 0,46,47
 107 187 107 187 144 224 c 0,48,49
 181 260 181 260 243 260 c 256,50,51
 305 260 305 260 342 222 c 0,52,53
 379 185 379 185 379 122 c 0,54,55
 379 66 379 66 331 33 c 0,56,57
 284 -1 284 -1 205 -1 c 0,58,59
 128 -1 128 -1 73 56 c 0,60,61
 19 113 19 113 19 193 c 0,62,63
 19 280 19 280 91 341 c 256,64,65
 163 402 163 402 264 402 c 0,66,67
 328 402 328 402 384 378 c 0,68,69
 439 353 439 353 475 309 c 1,70,-1
 475 400 l 1,71,-1
 729 400 l 1,72,73
 715 418 715 418 707 442 c 0,74,75
 700 466 700 466 700 494 c 0,76,77
 700 573 700 573 752 621 c 256,78,79
 804 669 804 669 890 669 c 0,80,81
 983 669 983 669 1039 632 c 0,82,83
 1095 596 1095 596 1095 535 c 1,84,-1
 1095 535 l 1,0,1
965 535 m 1,85,86
 965 564 965 564 952 584 c 0,87,88
 938 605 938 605 919 605 c 256,89,90
 900 605 900 605 887 585 c 256,91,92
 874 565 874 565 874 536 c 256,93,94
 874 507 874 507 887 487 c 0,95,96
 900 466 900 466 919 466 c 256,97,98
 938 466 938 466 952 486 c 0,99,100
 965 506 965 506 965 535 c 1,101,-1
 965 535 l 1,85,86
249 119 m 1,102,103
 249 150 249 150 233 173 c 0,104,105
 216 195 216 195 193 195 c 0,106,107
 172 195 172 195 157 172 c 0,108,109
 142 150 142 150 142 118 c 0,110,111
 142 83 142 83 157 59 c 0,112,113
 172 34 172 34 193 34 c 0,114,115
 216 34 216 34 233 59 c 0,116,117
 249 84 249 84 249 119 c 1,118,-1
 249 119 l 1,102,103
EndSplineSet
Ligature2: "'abvs' Above Base Substitutions in Tamil lookup 2 subtable" uni0BB3 uni0BC0
EndChar

StartChar: uni0BB4_uni0BC0
Encoding: 372 -1 117
Width: 667
GlyphClass: 2
Flags: W
LayerCount: 2
Back
Fore
SplineSet
817 530 m 0,0,1
 817 478 817 478 783 447 c 256,2,3
 749 416 749 416 692 416 c 256,4,5
 635 416 635 416 601 449 c 0,6,7
 567 481 567 481 567 535 c 0,8,9
 567 559 567 559 575 579 c 256,10,11
 583 599 583 599 597 610 c 1,12,13
 538 610 538 610 497 573 c 0,14,15
 455 537 455 537 455 485 c 0,16,17
 455 442 455 442 471 411 c 1,18,-1
 482 411 l 2,19,20
 549 411 549 411 596 347 c 256,21,22
 643 283 643 283 643 193 c 0,23,24
 643 105 643 105 610 53 c 0,25,26
 576 0 576 0 521 0 c 2,27,-1
 448 0 l 1,28,29
 448 -26 448 -26 460 -45 c 0,30,31
 471 -63 471 -63 488 -63 c 2,32,-1
 586 -63 l 1,33,-1
 586 -98 l 1,34,-1
 488 -98 l 2,35,36
 450 -98 450 -98 423 -123 c 0,37,38
 396 -149 396 -149 396 -185 c 0,39,40
 396 -224 396 -224 333 -252 c 256,41,42
 270 -280 270 -280 181 -280 c 0,43,44
 110 -280 110 -280 67 -251 c 256,45,46
 24 -222 24 -222 24 -173 c 0,47,48
 24 -127 24 -127 64 -95 c 0,49,50
 103 -63 103 -63 159 -63 c 0,51,52
 198 -63 198 -63 225 -81 c 0,53,54
 252 -100 252 -100 252 -126 c 0,55,56
 252 -148 252 -148 233 -163 c 256,57,58
 214 -178 214 -178 187 -178 c 256,59,60
 160 -178 160 -178 141 -163 c 256,61,62
 122 -148 122 -148 122 -126 c 0,63,64
 120 -117 120 -117 123 -109 c 0,65,66
 125 -102 125 -102 131 -98 c 1,67,68
 101 -98 101 -98 80 -120 c 0,69,70
 59 -143 59 -143 59 -174 c 0,71,72
 59 -203 59 -203 94 -224 c 0,73,74
 130 -245 130 -245 180 -245 c 0,75,76
 216 -245 216 -245 241 -220 c 256,77,78
 266 -195 266 -195 266 -160 c 0,79,80
 266 -120 266 -120 294 -91 c 0,81,82
 322 -63 322 -63 362 -63 c 1,83,84
 343 -60 343 -60 332 -43 c 0,85,86
 319 -25 319 -25 319 0 c 1,87,-1
 45 0 l 1,88,-1
 45 400 l 1,89,-1
 175 400 l 1,90,-1
 175 30 l 1,91,-1
 319 30 l 1,92,-1
 319 267 l 2,93,94
 319 313 319 313 353 351 c 0,95,96
 386 388 386 388 439 400 c 1,97,98
 420 434 420 434 420 486 c 0,99,100
 420 562 420 562 477 615 c 0,101,102
 534 669 534 669 614 669 c 0,103,104
 710 669 710 669 764 632 c 0,105,106
 817 596 817 596 817 530 c 0,0,1
449 30 m 1,107,-1
 522 30 l 2,108,109
 558 30 558 30 583 78 c 0,110,111
 608 127 608 127 608 195 c 0,112,113
 608 267 608 267 576 319 c 0,114,115
 545 370 545 370 500 370 c 0,116,117
 479 370 479 370 464 341 c 256,118,119
 449 312 449 312 449 271 c 2,120,-1
 449 30 l 1,107,-1
687 535 m 0,121,122
 687 564 687 564 674 584 c 0,123,124
 661 605 661 605 642 605 c 0,125,126
 625 605 625 605 614 585 c 0,127,128
 602 565 602 565 602 536 c 0,129,130
 602 509 602 509 614 490 c 0,131,132
 625 471 625 471 642 471 c 0,133,134
 661 471 661 471 674 490 c 0,135,136
 687 508 687 508 687 535 c 0,121,122
EndSplineSet
Ligature2: "'abvs' Above Base Substitutions in Tamil lookup 2 subtable" uni0BB4 uni0BC0
EndChar

StartChar: uni0BB5_uni0BC0
Encoding: 373 -1 118
Width: 819
GlyphClass: 2
Flags: W
LayerCount: 2
Back
Fore
SplineSet
952 530 m 1,0,1
 952 476 952 476 917 444 c 256,2,3
 882 412 882 412 823 412 c 0,4,5
 765 412 765 412 730 445 c 0,6,7
 695 479 695 479 695 534 c 0,8,9
 695 557 695 557 704 577 c 256,10,11
 713 597 713 597 729 611 c 1,12,13
 656 611 656 611 605 568 c 0,14,15
 553 525 553 525 553 465 c 0,16,17
 553 414 553 414 579 377 c 0,18,19
 606 341 606 341 644 338 c 1,20,-1
 644 400 l 1,21,-1
 774 400 l 1,22,-1
 774 0 l 1,23,-1
 343 0 l 1,24,-1
 343 27 l 1,25,26
 383 46 383 46 406 92 c 0,27,28
 430 138 430 138 430 196 c 0,29,30
 430 271 430 271 375 323 c 0,31,32
 320 376 320 376 243 376 c 256,33,34
 166 376 166 376 111 319 c 256,35,36
 56 262 56 262 56 182 c 0,37,38
 56 137 56 137 73 100 c 0,39,40
 91 64 91 64 121 44 c 1,41,42
 108 59 108 59 102 79 c 0,43,44
 95 100 95 100 95 123 c 0,45,46
 95 184 95 184 132 221 c 0,47,48
 168 258 168 258 229 258 c 256,49,50
 290 258 290 258 326 221 c 0,51,52
 363 184 363 184 363 122 c 0,53,54
 363 67 363 67 318 34 c 0,55,56
 272 1 272 1 197 1 c 0,57,58
 117 1 117 1 69 50 c 0,59,60
 21 100 21 100 21 182 c 0,61,62
 21 290 21 290 94 356 c 0,63,64
 168 421 168 421 290 421 c 0,65,66
 413 421 413 421 486 360 c 0,67,68
 560 299 560 299 560 198 c 0,69,70
 560 141 560 141 543 97 c 0,71,72
 526 52 526 52 495 30 c 1,73,-1
 644 30 l 1,74,-1
 644 307 l 1,75,76
 591 311 591 311 554 357 c 0,77,78
 518 403 518 403 518 467 c 0,79,80
 518 550 518 550 582 608 c 0,81,82
 646 667 646 667 737 667 c 0,83,84
 835 667 835 667 893 630 c 0,85,86
 952 592 952 592 952 530 c 1,87,-1
 952 530 l 1,0,1
822 535 m 1,88,89
 822 564 822 564 808 584 c 0,90,91
 793 604 793 604 773 604 c 0,92,93
 755 604 755 604 743 584 c 0,94,95
 730 564 730 564 730 535 c 0,96,97
 730 507 730 507 743 487 c 0,98,99
 755 467 755 467 773 467 c 0,100,101
 793 467 793 467 808 487 c 0,102,103
 822 507 822 507 822 535 c 1,104,-1
 822 535 l 1,88,89
233 119 m 1,105,106
 233 152 233 152 217 175 c 256,107,108
 201 198 201 198 179 198 c 0,109,110
 159 198 159 198 144 175 c 0,111,112
 130 152 130 152 130 120 c 0,113,114
 130 85 130 85 144 61 c 0,115,116
 159 36 159 36 179 36 c 0,117,118
 201 36 201 36 217 60 c 0,119,120
 233 85 233 85 233 119 c 1,121,-1
 233 119 l 1,105,106
EndSplineSet
Ligature2: "'abvs' Above Base Substitutions in Tamil lookup 2 subtable" uni0BB5 uni0BC0
EndChar

StartChar: uni0BB7_uni0BC0
Encoding: 374 -1 119
Width: 1060
GlyphClass: 2
Flags: W
LayerCount: 2
Back
Fore
SplineSet
1052 535 m 1,0,1
 1052 483 1052 483 1017 452 c 256,2,3
 982 421 982 421 924 421 c 256,4,5
 866 421 866 421 831 452 c 256,6,7
 796 483 796 483 796 535 c 0,8,9
 796 558 796 558 804 578 c 256,10,11
 812 598 812 598 826 610 c 1,12,13
 770 610 770 610 730 573 c 0,14,15
 690 537 690 537 690 485 c 0,16,17
 690 434 690 434 710 399 c 1,18,19
 763 396 763 396 800 369 c 0,20,21
 837 341 837 341 837 304 c 2,22,-1
 837 193 l 1,23,24
 870 193 870 193 904 223 c 0,25,26
 939 253 939 253 965 304 c 1,27,-1
 1026 304 l 1,28,-1
 1026 0 l 1,29,-1
 837 0 l 1,30,-1
 837 -242 l 1,31,-1
 707 -242 l 1,32,-1
 707 0 l 1,33,-1
 347 0 l 1,34,-1
 347 27 l 1,35,36
 387 49 387 49 411 95 c 0,37,38
 434 140 434 140 434 196 c 0,39,40
 434 274 434 274 382 322 c 0,41,42
 330 369 330 369 244 369 c 256,43,44
 158 369 158 369 107 318 c 0,45,46
 55 267 55 267 55 182 c 0,47,48
 55 139 55 139 74 102 c 0,49,50
 92 65 92 65 125 44 c 1,51,52
 112 59 112 59 106 78 c 0,53,54
 99 97 99 97 99 118 c 0,55,56
 99 175 99 175 136 209 c 0,57,58
 172 243 172 243 233 243 c 256,59,60
 294 243 294 243 330 210 c 0,61,62
 367 177 367 177 367 122 c 0,63,64
 367 63 367 63 323 27 c 256,65,66
 279 -9 279 -9 206 -9 c 0,67,68
 129 -9 129 -9 74 48 c 0,69,70
 20 105 20 105 20 185 c 0,71,72
 20 289 20 289 94 351 c 0,73,74
 169 414 169 414 292 414 c 256,75,76
 415 414 415 414 490 354 c 0,77,78
 564 294 564 294 564 195 c 0,79,80
 564 142 564 142 545 99 c 0,81,82
 525 55 525 55 491 30 c 1,83,-1
 707 30 l 1,84,-1
 707 164 l 1,85,86
 652 164 652 164 613 198 c 0,87,88
 574 233 574 233 574 281 c 0,89,90
 574 325 574 325 603 358 c 256,91,92
 632 391 632 391 675 397 c 1,93,94
 655 432 655 432 655 484 c 0,95,96
 655 561 655 561 712 615 c 0,97,98
 768 669 768 669 848 669 c 0,99,100
 941 669 941 669 996 632 c 0,101,102
 1052 596 1052 596 1052 535 c 1,103,-1
 1052 535 l 1,0,1
922 535 m 1,104,105
 922 564 922 564 908 584 c 0,106,107
 894 605 894 605 874 605 c 0,108,109
 856 605 856 605 844 585 c 0,110,111
 831 565 831 565 831 536 c 0,112,113
 831 509 831 509 844 490 c 0,114,115
 856 471 856 471 874 471 c 0,116,117
 894 471 894 471 908 490 c 0,118,119
 922 508 922 508 922 535 c 1,120,-1
 922 535 l 1,104,105
707 192 m 1,121,-1
 707 302 l 2,122,123
 707 324 707 324 694 339 c 0,124,125
 682 354 682 354 664 354 c 0,126,127
 641 354 641 354 625 333 c 0,128,129
 609 311 609 311 609 281 c 0,130,131
 609 244 609 244 638 218 c 0,132,133
 666 192 666 192 707 192 c 1,134,-1
 707 192 l 1,121,-1
237 119 m 1,135,136
 237 150 237 150 221 171 c 0,137,138
 205 193 205 193 183 193 c 0,139,140
 163 193 163 193 148 172 c 0,141,142
 134 150 134 150 134 120 c 0,143,144
 134 89 134 89 148 68 c 0,145,146
 163 46 163 46 183 46 c 0,147,148
 205 46 205 46 221 67 c 0,149,150
 237 89 237 89 237 119 c 1,151,-1
 237 119 l 1,135,136
896 30 m 1,152,-1
 896 179 l 1,153,154
 886 172 886 172 870 168 c 0,155,156
 855 164 855 164 837 164 c 1,157,-1
 837 30 l 1,158,-1
 896 30 l 1,159,-1
 896 30 l 1,152,-1
EndSplineSet
Ligature2: "'abvs' Above Base Substitutions in Tamil lookup 2 subtable" uni0BB7 uni0BC0
EndChar

StartChar: uni0BB8_uni0BC0
Encoding: 375 -1 120
Width: 1050
GlyphClass: 2
Flags: W
LayerCount: 2
Back
Fore
SplineSet
1220 530 m 1,0,1
 1220 479 1220 479 1185 448 c 256,2,3
 1150 417 1150 417 1092 417 c 256,4,5
 1034 417 1034 417 999 449 c 256,6,7
 964 481 964 481 964 534 c 0,8,9
 964 558 964 558 973 578 c 0,10,11
 981 598 981 598 997 611 c 1,12,13
 925 611 925 611 875 567 c 0,14,15
 824 523 824 523 824 460 c 0,16,17
 824 408 824 408 854 371 c 0,18,19
 884 335 884 335 925 336 c 1,20,-1
 901 360 l 2,21,22
 897 364 897 364 895 370 c 0,23,24
 893 375 893 375 893 382 c 0,25,26
 893 399 893 399 903 410 c 0,27,28
 914 422 914 422 928 422 c 0,29,30
 967 422 967 422 995 358 c 256,31,32
 1023 294 1023 294 1023 204 c 0,33,34
 1023 106 1023 106 978 48 c 0,35,36
 933 -11 933 -11 858 -11 c 0,37,38
 788 -11 788 -11 745 23 c 0,39,40
 703 57 703 57 703 114 c 2,41,-1
 703 257 l 2,42,43
 703 306 703 306 683 341 c 256,44,45
 663 376 663 376 635 376 c 0,46,47
 604 376 604 376 581 345 c 0,48,49
 559 313 559 313 559 269 c 2,50,-1
 559 0 l 1,51,-1
 429 0 l 1,52,-1
 429 235 l 2,53,54
 429 293 429 293 382 335 c 0,55,56
 336 376 336 376 270 376 c 0,57,58
 173 376 173 376 114 325 c 0,59,60
 56 274 56 274 56 190 c 0,61,62
 56 135 56 135 77 94 c 0,63,64
 97 53 97 53 131 41 c 1,65,66
 117 57 117 57 110 78 c 256,67,68
 103 99 103 99 103 124 c 0,69,70
 103 183 103 183 141 219 c 256,71,72
 179 255 179 255 242 255 c 256,73,74
 305 255 305 255 343 219 c 0,75,76
 381 182 381 182 381 122 c 0,77,78
 381 67 381 67 337 28 c 0,79,80
 294 -11 294 -11 232 -11 c 0,81,82
 136 -11 136 -11 79 43 c 0,83,84
 21 98 21 98 21 188 c 0,85,86
 21 289 21 289 89 350 c 0,87,88
 158 411 158 411 271 411 c 0,89,90
 360 411 360 411 426 382 c 0,91,92
 493 354 493 354 518 305 c 1,93,94
 531 352 531 352 572 381 c 0,95,96
 613 411 613 411 665 411 c 0,97,98
 735 411 735 411 784 366 c 0,99,100
 833 320 833 320 833 256 c 2,101,-1
 833 117 l 2,102,103
 833 87 833 87 849 65 c 0,104,105
 865 44 865 44 888 44 c 0,106,107
 933 44 933 44 961 88 c 0,108,109
 988 131 988 131 988 204 c 0,110,111
 988 260 988 260 954 304 c 1,112,113
 946 303 946 303 937 303 c 0,114,115
 876 303 876 303 832 348 c 0,116,117
 789 394 789 394 789 458 c 0,118,119
 789 545 789 545 853 606 c 256,120,121
 917 667 917 667 1007 667 c 0,122,123
 1108 667 1108 667 1164 631 c 256,124,125
 1220 595 1220 595 1220 530 c 1,126,-1
 1220 530 l 1,0,1
1090 535 m 1,127,128
 1090 564 1090 564 1076 584 c 256,129,130
 1062 604 1062 604 1042 604 c 0,131,132
 1024 604 1024 604 1012 584 c 0,133,134
 999 564 999 564 999 535 c 0,135,136
 999 507 999 507 1012 487 c 0,137,138
 1024 467 1024 467 1042 467 c 0,139,140
 1062 467 1062 467 1076 487 c 256,141,142
 1090 507 1090 507 1090 535 c 1,143,-1
 1090 535 l 1,127,128
251 119 m 1,144,145
 251 150 251 150 234 173 c 0,146,147
 216 195 216 195 192 195 c 0,148,149
 170 195 170 195 154 174 c 0,150,151
 138 152 138 152 138 122 c 0,152,153
 138 90 138 90 154 67 c 256,154,155
 170 44 170 44 192 44 c 0,156,157
 216 44 216 44 234 66 c 0,158,159
 251 88 251 88 251 119 c 1,160,-1
 251 119 l 1,144,145
EndSplineSet
Ligature2: "'abvs' Above Base Substitutions in Tamil lookup 2 subtable" uni0BB8 uni0BC0
EndChar

